CooperativaSans.ufo
<glyph name="parenleft" format="2">
	<advance width="423"/>
	<unicode hex="0028"/>
	<outline>
		<contour>
			<point x="153" y="291" type="curve" smooth="yes"/>
			<point x="153" y="603"/>
			<point x="393" y="720"/>
			<point x="393" y="720" type="curve"/>
			<point x="388" y="748"/>
			<point x="377" y="773"/>
			<point x="357" y="797" type="curve"/>
			<point x="357" y="797"/>
			<point x="50" y="678"/>
			<point x="50" y="291" type="curve" smooth="yes"/>
			<point x="50" y="-96"/>
			<point x="357" y="-215"/>
			<point x="357" y="-215" type="curve"/>
			<point x="377" y="-191"/>
			<point x="388" y="-166"/>
			<point x="393" y="-138" type="curve"/>
			<point x="393" y="-138"/>
			<point x="153" y="-21"/>
		</contour>
	</outline>
</glyph>
<glyph name="parenright" format="2">
	<advance width="423"/>
	<unicode hex="0029"/>
	<outline>
		<contour>
			<point x="270" y="291" type="curve" smooth="yes"/>
			<point x="270" y="-21"/>
			<point x="30" y="-138"/>
			<point x="30" y="-138" type="curve"/>
			<point x="35" y="-166"/>
			<point x="46" y="-191"/>
			<point x="66" y="-215" type="curve"/>
			<point x="66" y="-215"/>
			<point x="373" y="-96"/>
			<point x="373" y="291" type="curve" smooth="yes"/>
			<point x="373" y="678"/>
			<point x="66" y="797"/>
			<point x="66" y="797" type="curve"/>
			<point x="46" y="773"/>
			<point x="35" y="748"/>
			<point x="30" y="720" type="curve"/>
			<point x="30" y="720"/>
			<point x="270" y="603"/>
		</contour>
	</outline>
</glyph>
<glyph name="comma" format="2">
	<advance width="236"/>
	<unicode hex="002C"/>
	<outline>
		<contour>
			<point x="46" y="76" type="curve" smooth="yes"/>
			<point x="46" y="118"/>
			<point x="78" y="150"/>
			<point x="121" y="150" type="curve" smooth="yes"/>
			<point x="163" y="150"/>
			<point x="196" y="118"/>
			<point x="196" y="76" type="curve" smooth="yes"/>
			<point x="196" y="33"/>
			<point x="163" y="0"/>
			<point x="121" y="0" type="curve" smooth="yes"/>
			<point x="78" y="0"/>
			<point x="46" y="33"/>
		</contour>
		<contour>
			<point x="85" y="-187" type="curve"/>
			<point x="70" y="-186"/>
			<point x="45" y="-169"/>
			<point x="40" y="-156" type="curve"/>
			<point x="91" y="-85"/>
			<point x="114" y="0"/>
			<point x="114" y="86" type="curve"/>
			<point x="196" y="76" type="line"/>
			<point x="188" y="-8"/>
			<point x="137" y="-115"/>
		</contour>
	</outline>
</glyph>
<glyph name="hyphen" format="2">
	<advance width="428"/>
	<unicode hex="002D"/>
	<outline>
		<contour>
			<point x="366" y="260" type="curve"/>
			<point x="366" y="260"/>
			<point x="368" y="289"/>
			<point x="368" y="306" type="curve" smooth="yes"/>
			<point x="368" y="322"/>
			<point x="366" y="350"/>
			<point x="366" y="350" type="curve"/>
			<point x="366" y="350"/>
			<point x="271" y="348"/>
			<point x="213" y="348" type="curve" smooth="yes"/>
			<point x="158" y="348"/>
			<point x="62" y="350"/>
			<point x="62" y="350" type="curve"/>
			<point x="62" y="350"/>
			<point x="60" y="319"/>
			<point x="60" y="306" type="curve" smooth="yes"/>
			<point x="60" y="290"/>
			<point x="62" y="260"/>
			<point x="62" y="260" type="curve"/>
			<point x="62" y="260"/>
			<point x="158" y="262"/>
			<point x="213" y="262" type="curve" smooth="yes"/>
			<point x="269" y="262"/>
			<point x="366" y="260"/>
		</contour>
	</outline>
</glyph>
<<<<<<< HEAD:CooperativaSans.ufo/glyphs/period.glif
<glyph name="period" format="1">
  <advance width="177"/>
  <unicode hex="002E"/>
  <outline>
    <contour>
      <point x="34" y="40" type="curve" smooth="yes"/>
      <point x="34" y="71"/>
      <point x="57" y="94"/>
      <point x="88" y="94" type="curve" smooth="yes"/>
      <point x="119" y="94"/>
      <point x="143" y="71"/>
      <point x="143" y="40" type="curve" smooth="yes"/>
      <point x="143" y="9"/>
      <point x="119" y="-15"/>
      <point x="88" y="-15" type="curve" smooth="yes"/>
      <point x="57" y="-15"/>
      <point x="34" y="9"/>
    </contour>
  </outline>
=======
<glyph name="period" format="2">
	<advance width="189"/>
	<unicode hex="002E"/>
	<outline>
		<contour>
			<point x="94" y="-15" type="curve" smooth="yes"/>
			<point x="125" y="-15"/>
			<point x="149" y="9"/>
			<point x="149" y="40" type="curve" smooth="yes"/>
			<point x="149" y="71"/>
			<point x="125" y="94"/>
			<point x="94" y="94" type="curve" smooth="yes"/>
			<point x="63" y="94"/>
			<point x="40" y="71"/>
			<point x="40" y="40" type="curve" smooth="yes"/>
			<point x="40" y="9"/>
			<point x="63" y="-15"/>
		</contour>
	</outline>
>>>>>>> 64a96ebffaf5013ba58d98fd80efa4318a310ffa:Cooperativa-Sans-Regular.ufo/glyphs/period.glif
</glyph>
<<<<<<< HEAD:CooperativaSans.ufo/glyphs/one.glif
<glyph name="one" format="1">
  <advance width="520"/>
  <unicode hex="0031"/>
  <outline>
    <contour>
      <point x="254" y="0" type="curve" smooth="yes"/>
      <point x="335" y="0"/>
      <point x="487" y="0" type="line"/>
      <point x="495" y="24"/>
      <point x="495" y="83"/>
      <point x="489" y="102" type="curve"/>
      <point x="373" y="82"/>
      <point x="298" y="82" type="curve" smooth="yes"/>
      <point x="221" y="82"/>
      <point x="102" y="102"/>
      <point x="102" y="102" type="curve"/>
      <point x="96" y="83"/>
      <point x="96" y="24"/>
      <point x="104" y="0" type="curve"/>
      <point x="173" y="0"/>
    </contour>
    <contour>
      <point x="242" y="0" type="curve"/>
      <point x="353" y="0" type="line"/>
      <point x="353" y="0"/>
      <point x="346" y="117"/>
      <point x="346" y="335" type="curve" smooth="yes"/>
      <point x="346" y="415" type="line" smooth="yes"/>
      <point x="346" y="616"/>
      <point x="354" y="750"/>
      <point x="354" y="750" type="curve"/>
      <point x="239" y="750" type="line"/>
      <point x="239" y="750"/>
      <point x="249" y="616"/>
      <point x="249" y="415" type="curve" smooth="yes"/>
      <point x="249" y="335" type="line" smooth="yes"/>
      <point x="249" y="117"/>
      <point x="242" y="0"/>
    </contour>
    <contour>
      <point x="128" y="522" type="curve"/>
      <point x="250" y="645" type="line"/>
      <point x="239" y="750" type="line"/>
      <point x="56" y="593" type="line"/>
      <point x="56" y="593"/>
      <point x="57" y="579"/>
      <point x="83" y="551" type="curve" smooth="yes"/>
      <point x="111" y="520"/>
      <point x="128" y="522"/>
    </contour>
  </outline>
=======
<glyph name="one" format="2">
	<advance width="504"/>
	<unicode hex="0031"/>
	<outline>
		<contour>
			<point x="221" y="0" type="curve"/>
			<point x="335" y="0" type="line"/>
			<point x="335" y="0"/>
			<point x="328" y="117"/>
			<point x="328" y="335" type="curve" smooth="yes"/>
			<point x="328" y="415" type="line" smooth="yes"/>
			<point x="328" y="616"/>
			<point x="338" y="750"/>
			<point x="338" y="750" type="curve"/>
			<point x="218" y="750" type="line"/>
			<point x="218" y="750"/>
			<point x="228" y="616"/>
			<point x="228" y="415" type="curve" smooth="yes"/>
			<point x="228" y="335" type="line" smooth="yes"/>
			<point x="228" y="117"/>
			<point x="221" y="0"/>
		</contour>
		<contour>
			<point x="80" y="0" type="curve"/>
			<point x="468" y="0" type="line"/>
			<point x="468" y="0"/>
			<point x="469" y="16"/>
			<point x="469" y="68" type="curve" smooth="yes"/>
			<point x="468" y="89" type="line"/>
			<point x="79" y="89" type="line"/>
			<point x="78" y="68" type="line" smooth="yes"/>
			<point x="78" y="16"/>
			<point x="80" y="0"/>
		</contour>
		<contour>
			<point x="107" y="522" type="curve"/>
			<point x="229" y="645" type="line"/>
			<point x="218" y="750" type="line"/>
			<point x="35" y="593" type="line"/>
			<point x="35" y="593"/>
			<point x="36" y="579"/>
			<point x="62" y="551" type="curve" smooth="yes"/>
			<point x="90" y="520"/>
			<point x="107" y="522"/>
		</contour>
	</outline>
>>>>>>> 64a96ebffaf5013ba58d98fd80efa4318a310ffa:Cooperativa-Sans-Regular.ufo/glyphs/one.glif
</glyph>
<glyph name="two" format="1">
  <advance width="554"/>
  <unicode hex="0032"/>
  <outline>
    <contour>
      <point x="44" y="0" type="line"/>
      <point x="492" y="0" type="line"/>
      <point x="492" y="0"/>
      <point x="505" y="17"/>
      <point x="505" y="62" type="curve" smooth="yes"/>
      <point x="505" y="93"/>
      <point x="496" y="117"/>
      <point x="496" y="117" type="curve"/>
      <point x="457" y="96"/>
      <point x="162" y="95" type="line" smooth="yes"/>
      <point x="162" y="170"/>
      <point x="505" y="353"/>
      <point x="505" y="563" type="curve" smooth="yes"/>
      <point x="505" y="700"/>
      <point x="379" y="783"/>
      <point x="265" y="784" type="curve" smooth="yes"/>
      <point x="106" y="784"/>
      <point x="33" y="690"/>
      <point x="33" y="690" type="curve"/>
      <point x="33" y="690"/>
      <point x="32" y="672"/>
      <point x="51" y="647" type="curve" smooth="yes"/>
      <point x="74" y="616"/>
      <point x="87" y="600"/>
      <point x="87" y="600" type="curve"/>
      <point x="87" y="600"/>
      <point x="135" y="692"/>
      <point x="246" y="692" type="curve" smooth="yes"/>
      <point x="336" y="692"/>
      <point x="404" y="629"/>
      <point x="404" y="555" type="curve" smooth="yes"/>
      <point x="404" y="375"/>
      <point x="44" y="231"/>
      <point x="44" y="90" type="curve" smooth="yes"/>
      <point x="44" y="55"/>
    </contour>
  </outline>
</glyph>
<glyph name="three" format="2">
	<advance width="557"/>
	<unicode hex="0033"/>
	<outline>
		<contour>
			<point x="226" y="-9" type="curve" smooth="yes"/>
			<point x="404" y="-9"/>
			<point x="497" y="102"/>
			<point x="497" y="208" type="curve" smooth="yes"/>
			<point x="497" y="398"/>
			<point x="335" y="418"/>
			<point x="335" y="418" type="curve"/>
			<point x="335" y="418"/>
			<point x="477" y="450"/>
			<point x="477" y="571" type="curve" smooth="yes"/>
			<point x="477" y="685"/>
			<point x="394" y="769"/>
			<point x="250" y="769" type="curve" smooth="yes"/>
			<point x="100" y="769"/>
			<point x="40" y="681"/>
			<point x="40" y="681" type="curve"/>
			<point x="46" y="662"/>
			<point x="76" y="623"/>
			<point x="100" y="610" type="curve"/>
			<point x="119" y="633"/>
			<point x="145" y="683"/>
			<point x="231" y="683" type="curve" smooth="yes"/>
			<point x="296" y="683"/>
			<point x="370" y="646"/>
			<point x="370" y="582" type="curve" smooth="yes"/>
			<point x="370" y="456"/>
			<point x="223" y="457"/>
			<point x="196" y="457" type="curve"/>
			<point x="196" y="370" type="line"/>
			<point x="196" y="370"/>
			<point x="389" y="380"/>
			<point x="389" y="225" type="curve" smooth="yes"/>
			<point x="389" y="132"/>
			<point x="330" y="80"/>
			<point x="234" y="80" type="curve" smooth="yes"/>
			<point x="148" y="80"/>
			<point x="72" y="152"/>
			<point x="72" y="152" type="curve"/>
			<point x="63" y="140"/>
			<point x="36" y="66"/>
			<point x="36" y="66" type="curve"/>
			<point x="46" y="55"/>
			<point x="114" y="-9"/>
		</contour>
	</outline>
</glyph>
<<<<<<< HEAD:CooperativaSans.ufo/glyphs/five.glif
<glyph name="five" format="1">
  <advance width="600"/>
  <unicode hex="0035"/>
  <outline>
    <contour>
      <point x="289" y="-15" type="curve" smooth="yes"/>
      <point x="432" y="-15"/>
      <point x="518" y="83"/>
      <point x="518" y="230" type="curve" smooth="yes"/>
      <point x="518" y="371"/>
      <point x="448" y="477"/>
      <point x="300" y="477" type="curve" smooth="yes"/>
      <point x="236" y="477"/>
      <point x="168" y="461"/>
      <point x="70" y="396" type="curve"/>
      <point x="133" y="343" type="line"/>
      <point x="170" y="374"/>
      <point x="214" y="397"/>
      <point x="271" y="397" type="curve" smooth="yes"/>
      <point x="352" y="397"/>
      <point x="416" y="338"/>
      <point x="416" y="230" type="curve" smooth="yes"/>
      <point x="416" y="131"/>
      <point x="349" y="71"/>
      <point x="272" y="71" type="curve" smooth="yes"/>
      <point x="221" y="71"/>
      <point x="147" y="95"/>
      <point x="98" y="140" type="curve"/>
      <point x="57" y="53" type="line"/>
      <point x="105" y="10"/>
      <point x="202" y="-15"/>
    </contour>
    <contour>
      <point x="70" y="396" type="line"/>
      <point x="70" y="396"/>
      <point x="145" y="421"/>
      <point x="169" y="434" type="curve"/>
      <point x="203" y="661" type="line"/>
      <point x="314" y="661" type="line" smooth="yes"/>
      <point x="431" y="661"/>
      <point x="490" y="652"/>
      <point x="490" y="652" type="curve"/>
      <point x="496" y="671"/>
      <point x="496" y="730"/>
      <point x="488" y="754" type="curve"/>
      <point x="488" y="754"/>
      <point x="394" y="750"/>
      <point x="353" y="750" type="curve" smooth="yes"/>
      <point x="123" y="750" type="line"/>
      <point x="123" y="742" type="line"/>
    </contour>
  </outline>
=======
<glyph name="five" format="2">
	<advance width="561"/>
	<unicode hex="0035"/>
	<outline>
		<contour>
			<point x="282" y="-15" type="curve" smooth="yes"/>
			<point x="425" y="-15"/>
			<point x="511" y="83"/>
			<point x="511" y="230" type="curve" smooth="yes"/>
			<point x="511" y="371"/>
			<point x="434" y="477"/>
			<point x="293" y="477" type="curve" smooth="yes"/>
			<point x="229" y="477"/>
			<point x="161" y="461"/>
			<point x="63" y="396" type="curve"/>
			<point x="126" y="343" type="line"/>
			<point x="163" y="374"/>
			<point x="207" y="397"/>
			<point x="264" y="397" type="curve" smooth="yes"/>
			<point x="361" y="397"/>
			<point x="416" y="338"/>
			<point x="416" y="230" type="curve" smooth="yes"/>
			<point x="416" y="131"/>
			<point x="349" y="69"/>
			<point x="265" y="69" type="curve" smooth="yes"/>
			<point x="214" y="69"/>
			<point x="140" y="95"/>
			<point x="91" y="140" type="curve"/>
			<point x="91" y="140"/>
			<point x="73" y="122"/>
			<point x="63" y="100" type="curve" smooth="yes"/>
			<point x="51" y="73"/>
			<point x="50" y="53"/>
			<point x="50" y="53" type="curve"/>
			<point x="98" y="10"/>
			<point x="195" y="-15"/>
		</contour>
		<contour>
			<point x="63" y="396" type="line"/>
			<point x="63" y="396"/>
			<point x="138" y="421"/>
			<point x="162" y="434" type="curve"/>
			<point x="196" y="661" type="line"/>
			<point x="307" y="661" type="line" smooth="yes"/>
			<point x="424" y="661"/>
			<point x="483" y="652"/>
			<point x="483" y="652" type="curve"/>
			<point x="489" y="671"/>
			<point x="489" y="730"/>
			<point x="481" y="754" type="curve"/>
			<point x="481" y="754"/>
			<point x="387" y="750"/>
			<point x="346" y="750" type="curve" smooth="yes"/>
			<point x="116" y="750" type="line"/>
			<point x="116" y="742" type="line"/>
		</contour>
	</outline>
>>>>>>> 64a96ebffaf5013ba58d98fd80efa4318a310ffa:Cooperativa-Sans-Regular.ufo/glyphs/five.glif
</glyph>
<glyph name="seven" format="2">
  <advance width="476"/>
  <unicode hex="0037"/>
  <outline>
    <contour>
      <point x="29" y="652" type="curve"/>
      <point x="23" y="671"/>
      <point x="23" y="730"/>
      <point x="31" y="754" type="curve"/>
      <point x="31" y="754"/>
      <point x="105" y="750"/>
      <point x="186" y="750" type="curve" smooth="yes"/>
      <point x="446" y="750" type="line"/>
      <point x="446" y="742" type="line"/>
      <point x="220" y="0" type="line"/>
      <point x="114" y="0" type="line"/>
      <point x="334" y="666" type="line"/>
      <point x="334" y="666"/>
      <point x="274" y="666"/>
      <point x="198" y="666" type="curve" smooth="yes"/>
      <point x="98" y="666"/>
      <point x="29" y="652"/>
    </contour>
  </outline>
</glyph>
<<<<<<< HEAD:CooperativaSans.ufo/glyphs/colon.glif
<glyph name="colon" format="1">
  <advance width="184"/>
  <unicode hex="003A"/>
  <outline>
    <contour>
      <point x="30" y="45" type="curve" smooth="yes"/>
      <point x="30" y="79"/>
      <point x="57" y="106"/>
      <point x="91" y="106" type="curve" smooth="yes"/>
      <point x="125" y="106"/>
      <point x="152" y="79"/>
      <point x="152" y="45" type="curve" smooth="yes"/>
      <point x="152" y="11"/>
      <point x="125" y="-16"/>
      <point x="91" y="-16" type="curve" smooth="yes"/>
      <point x="57" y="-16"/>
      <point x="30" y="11"/>
    </contour>
    <contour>
      <point x="30" y="328" type="curve" smooth="yes"/>
      <point x="30" y="362"/>
      <point x="57" y="389"/>
      <point x="91" y="389" type="curve" smooth="yes"/>
      <point x="125" y="389"/>
      <point x="152" y="362"/>
      <point x="152" y="328" type="curve" smooth="yes"/>
      <point x="152" y="294"/>
      <point x="125" y="267"/>
      <point x="91" y="267" type="curve" smooth="yes"/>
      <point x="57" y="267"/>
      <point x="30" y="294"/>
    </contour>
  </outline>
=======
<glyph name="colon" format="2">
	<advance width="189"/>
	<unicode hex="003A"/>
	<outline>
		<component base="period"/>
		<component base="period" yOffset="291"/>
	</outline>
>>>>>>> 64a96ebffaf5013ba58d98fd80efa4318a310ffa:Cooperativa-Sans-Regular.ufo/glyphs/colon.glif
</glyph>
<glyph name="question" format="1">
  <advance width="600"/>
  <unicode hex="003F"/>
  <outline>
    <contour>
      <point x="192.16" y="154.48" type="curve"/>
      <point x="296.36" y="154.48" type="line"/>
      <point x="296.36" y="231.04" type="line" smooth="yes"/>
      <point x="296.36" y="344.72"/>
      <point x="532.36" y="417.8"/>
      <point x="532.36" y="590.64" type="curve" smooth="yes"/>
      <point x="532.36" y="720.56"/>
      <point x="448.84" y="807.56"/>
      <point x="295.72" y="807.56" type="curve" smooth="yes"/>
      <point x="165.8" y="807.56"/>
      <point x="77.6396" y="706.64"/>
      <point x="77.6396" y="706.64" type="curve"/>
      <point x="77.6396" y="706.64"/>
      <point x="84.5996" y="681.12"/>
      <point x="98.5195" y="660.24" type="curve" smooth="yes"/>
      <point x="115.92" y="634.72"/>
      <point x="139.28" y="615.84"/>
      <point x="139.28" y="615.84" type="curve"/>
      <point x="139.28" y="615.84"/>
      <point x="214.68" y="717.92"/>
      <point x="291.24" y="717.92" type="curve" smooth="yes"/>
      <point x="378.24" y="717.92"/>
      <point x="420.88" y="656.76"/>
      <point x="420.88" y="588.32" type="curve" smooth="yes"/>
      <point x="420.88" y="443.32"/>
      <point x="192.16" y="401.56"/>
      <point x="192.16" y="277.44" type="curve" smooth="yes"/>
      <point x="192.16" y="169.56"/>
      <point x="192.16" y="154.48"/>
    </contour>
    <contour>
      <point x="252" y="-70" type="curve" smooth="yes"/>
      <point x="293" y="-70"/>
      <point x="325" y="-37"/>
      <point x="325" y="4" type="curve" smooth="yes"/>
      <point x="325" y="45"/>
      <point x="293" y="78"/>
      <point x="252" y="78" type="curve" smooth="yes"/>
      <point x="211" y="78"/>
      <point x="178" y="45"/>
      <point x="178" y="4" type="curve" smooth="yes"/>
      <point x="178" y="-37"/>
      <point x="211" y="-70"/>
    </contour>
  </outline>
</glyph>
<glyph name="A" format="2">
	<advance width="641"/>
	<unicode hex="0041"/>
	<anchor x="321" y="750" name="top"/>
	<anchor x="321" y="0" name="bottom"/>
	<anchor x="577" y="10" name="ogonek"/>
	<outline>
		<contour>
			<point x="503" y="0" type="line"/>
			<point x="616" y="0" type="line"/>
			<point x="379" y="750" type="line"/>
			<point x="289" y="750" type="line"/>
		</contour>
		<contour>
			<point x="25" y="0" type="line"/>
			<point x="138" y="0" type="line"/>
			<point x="352" y="750" type="line"/>
			<point x="262" y="750" type="line"/>
		</contour>
		<contour>
			<point x="140" y="241" type="curve"/>
			<point x="160" y="243"/>
			<point x="317" y="243"/>
			<point x="317" y="243" type="curve"/>
			<point x="317" y="243"/>
			<point x="474" y="243"/>
			<point x="494" y="241" type="curve"/>
			<point x="496" y="289" type="line" smooth="yes"/>
			<point x="497" y="304"/>
			<point x="495" y="317"/>
			<point x="494" y="329" type="curve"/>
			<point x="494" y="329"/>
			<point x="461" y="322"/>
			<point x="383" y="322" type="curve" smooth="yes"/>
			<point x="232" y="322" type="line" smooth="yes"/>
			<point x="184" y="322"/>
			<point x="140" y="329"/>
			<point x="140" y="329" type="curve"/>
			<point x="139" y="317"/>
			<point x="139" y="304"/>
			<point x="139" y="289" type="curve" smooth="yes"/>
			<point x="139" y="274"/>
			<point x="139" y="258"/>
		</contour>
	</outline>
</glyph>
<<<<<<< HEAD:CooperativaSans.ufo/glyphs/C_.glif
<glyph name="C" format="1">
  <advance width="603"/>
  <unicode hex="0043"/>
  <outline>
    <contour>
      <point x="366" y="-15" type="curve" smooth="yes"/>
      <point x="524" y="-15"/>
      <point x="573" y="43"/>
      <point x="573" y="43" type="curve"/>
      <point x="573" y="108"/>
      <point x="544" y="129"/>
      <point x="544" y="129" type="curve"/>
      <point x="544" y="129"/>
      <point x="485" y="78"/>
      <point x="362" y="78" type="curve" smooth="yes"/>
      <point x="264" y="78"/>
      <point x="165" y="155"/>
      <point x="165" y="375" type="curve" smooth="yes"/>
      <point x="165" y="595"/>
      <point x="278" y="683"/>
      <point x="388" y="683" type="curve" smooth="yes"/>
      <point x="485" y="683"/>
      <point x="533" y="639"/>
      <point x="533" y="639" type="curve"/>
      <point x="533" y="639"/>
      <point x="546" y="665"/>
      <point x="546" y="701" type="curve" smooth="yes"/>
      <point x="546" y="725"/>
      <point x="540" y="735"/>
      <point x="540" y="735" type="curve"/>
      <point x="540" y="735"/>
      <point x="481" y="766"/>
      <point x="388" y="766" type="curve" smooth="yes"/>
      <point x="281" y="766"/>
      <point x="60" y="713"/>
      <point x="60" y="375" type="curve" smooth="yes"/>
      <point x="60" y="37"/>
      <point x="253" y="-15"/>
    </contour>
  </outline>
=======
<glyph name="C" format="2">
	<advance width="653"/>
	<unicode hex="0043"/>
	<anchor x="327" y="750" name="top"/>
	<anchor x="327" y="0" name="bottom"/>
	<outline>
		<contour>
			<point x="366" y="-15" type="curve" smooth="yes"/>
			<point x="530" y="-15"/>
			<point x="613" y="60"/>
			<point x="613" y="60" type="curve"/>
			<point x="613" y="67"/>
			<point x="603" y="91"/>
			<point x="592" y="110" type="curve" smooth="yes"/>
			<point x="580" y="131"/>
			<point x="565" y="142"/>
			<point x="565" y="142" type="curve"/>
			<point x="564" y="142"/>
			<point x="491" y="78"/>
			<point x="362" y="78" type="curve" smooth="yes"/>
			<point x="264" y="78"/>
			<point x="165" y="155"/>
			<point x="165" y="375" type="curve" smooth="yes"/>
			<point x="165" y="595"/>
			<point x="278" y="683"/>
			<point x="388" y="683" type="curve" smooth="yes"/>
			<point x="485" y="683"/>
			<point x="533" y="639"/>
			<point x="533" y="639" type="curve"/>
			<point x="533" y="639"/>
			<point x="548" y="647"/>
			<point x="564" y="669" type="curve" smooth="yes"/>
			<point x="578" y="688"/>
			<point x="585" y="712"/>
			<point x="585" y="712" type="curve"/>
			<point x="553" y="743"/>
			<point x="481" y="766"/>
			<point x="388" y="766" type="curve" smooth="yes"/>
			<point x="281" y="766"/>
			<point x="60" y="713"/>
			<point x="60" y="375" type="curve" smooth="yes"/>
			<point x="60" y="37"/>
			<point x="253" y="-15"/>
		</contour>
	</outline>
>>>>>>> 64a96ebffaf5013ba58d98fd80efa4318a310ffa:Cooperativa-Sans-Regular.ufo/glyphs/C_.glif
</glyph>
<glyph name="D" format="2">
	<advance width="655"/>
	<unicode hex="0044"/>
	<anchor x="334" y="750" name="top"/>
	<anchor x="334" y="0" name="bottom"/>
	<anchor x="334" y="375" name="center"/>
	<outline>
		<contour>
			<point x="239" y="-16" type="curve" smooth="yes"/>
			<point x="416" y="-16"/>
			<point x="605" y="67"/>
			<point x="605" y="375" type="curve" smooth="yes"/>
			<point x="605" y="682"/>
			<point x="416" y="766"/>
			<point x="239" y="766" type="curve" smooth="yes"/>
			<point x="135" y="766"/>
			<point x="68" y="750"/>
			<point x="68" y="750" type="curve"/>
			<point x="103" y="656" type="line"/>
			<point x="103" y="656"/>
			<point x="168" y="686"/>
			<point x="254" y="686" type="curve" smooth="yes"/>
			<point x="395" y="686"/>
			<point x="504" y="572"/>
			<point x="504" y="375" type="curve" smooth="yes"/>
			<point x="504" y="168"/>
			<point x="404" y="64"/>
			<point x="254" y="64" type="curve" smooth="yes"/>
			<point x="168" y="64"/>
			<point x="104" y="84"/>
			<point x="104" y="84" type="curve"/>
			<point x="71" y="0" type="line"/>
			<point x="71" y="0"/>
			<point x="135" y="-16"/>
		</contour>
		<contour>
			<point x="71" y="0" type="curve"/>
			<point x="180" y="0" type="line"/>
			<point x="180" y="0"/>
			<point x="173" y="137"/>
			<point x="173" y="335" type="curve" smooth="yes"/>
			<point x="173" y="415" type="line" smooth="yes"/>
			<point x="173" y="616"/>
			<point x="183" y="750"/>
			<point x="183" y="750" type="curve"/>
			<point x="68" y="750" type="line"/>
			<point x="68" y="750"/>
			<point x="78" y="616"/>
			<point x="78" y="415" type="curve" smooth="yes"/>
			<point x="78" y="335" type="line" smooth="yes"/>
			<point x="78" y="137"/>
			<point x="71" y="0"/>
		</contour>
	</outline>
</glyph>
<glyph name="F" format="2">
	<advance width="506"/>
	<unicode hex="0046"/>
	<anchor x="251" y="750" name="top"/>
	<anchor x="251" y="0" name="bottom"/>
	<outline>
		<contour>
			<point x="73" y="0" type="curve"/>
			<point x="191" y="0" type="line"/>
			<point x="191" y="0"/>
			<point x="175" y="137"/>
			<point x="175" y="335" type="curve" smooth="yes"/>
			<point x="175" y="415" type="line" smooth="yes"/>
			<point x="175" y="616"/>
			<point x="185" y="750"/>
			<point x="185" y="750" type="curve"/>
			<point x="70" y="750" type="line"/>
			<point x="70" y="750"/>
			<point x="80" y="616"/>
			<point x="80" y="415" type="curve" smooth="yes"/>
			<point x="80" y="335" type="line" smooth="yes"/>
			<point x="80" y="137"/>
			<point x="73" y="0"/>
		</contour>
		<contour>
			<point x="399" y="338" type="curve"/>
			<point x="404" y="362"/>
			<point x="405" y="404"/>
			<point x="399" y="426" type="curve"/>
			<point x="399" y="426"/>
			<point x="329" y="420"/>
			<point x="221" y="420" type="curve" smooth="yes"/>
			<point x="140" y="420" type="line"/>
			<point x="140" y="343" type="line"/>
			<point x="226" y="343" type="line" smooth="yes"/>
			<point x="352" y="343"/>
			<point x="399" y="338"/>
		</contour>
		<contour>
			<point x="452" y="652" type="curve"/>
			<point x="458" y="671"/>
			<point x="458" y="730"/>
			<point x="450" y="754" type="curve"/>
			<point x="450" y="754"/>
			<point x="376" y="750"/>
			<point x="295" y="750" type="curve" smooth="yes"/>
			<point x="138" y="750" type="line"/>
			<point x="153" y="672" type="line"/>
			<point x="256" y="672" type="line" smooth="yes"/>
			<point x="413" y="672"/>
			<point x="452" y="652"/>
		</contour>
	</outline>
</glyph>
<glyph name="G" format="2">
	<advance width="710"/>
	<unicode hex="0047"/>
	<anchor x="355" y="750" name="top"/>
	<anchor x="355" y="0" name="bottom"/>
	<outline>
		<contour>
			<point x="367" y="-16" type="curve" smooth="yes"/>
			<point x="563" y="-16"/>
			<point x="660" y="135"/>
			<point x="660" y="316" type="curve" smooth="yes"/>
			<point x="660" y="374"/>
			<point x="650" y="396"/>
			<point x="650" y="396" type="curve"/>
			<point x="536" y="396" type="line" smooth="yes"/>
			<point x="423" y="396"/>
			<point x="363" y="401"/>
			<point x="363" y="401" type="curve"/>
			<point x="358" y="377"/>
			<point x="357" y="335"/>
			<point x="363" y="313" type="curve"/>
			<point x="363" y="313"/>
			<point x="420" y="319"/>
			<point x="541" y="319" type="curve" smooth="yes"/>
			<point x="578" y="319" type="line"/>
			<point x="565" y="336" type="line"/>
			<point x="565" y="145"/>
			<point x="493" y="64"/>
			<point x="371" y="64" type="curve" smooth="yes"/>
			<point x="240" y="64"/>
			<point x="165" y="156"/>
			<point x="165" y="375" type="curve" smooth="yes"/>
			<point x="165" y="595"/>
			<point x="241" y="686"/>
			<point x="388" y="686" type="curve" smooth="yes"/>
			<point x="488" y="686"/>
			<point x="535" y="642"/>
			<point x="569" y="604" type="curve"/>
			<point x="569" y="604"/>
			<point x="588" y="615"/>
			<point x="603" y="632" type="curve" smooth="yes"/>
			<point x="625" y="657"/>
			<point x="627" y="676"/>
			<point x="627" y="676" type="curve"/>
			<point x="585" y="727"/>
			<point x="506" y="766"/>
			<point x="394" y="766" type="curve" smooth="yes"/>
			<point x="264" y="766"/>
			<point x="60" y="714"/>
			<point x="60" y="370" type="curve" smooth="yes"/>
			<point x="60" y="39"/>
			<point x="248" y="-16"/>
		</contour>
	</outline>
</glyph>
<glyph name="H" format="2">
	<advance width="698"/>
	<unicode hex="0048"/>
	<anchor x="349" y="750" name="top"/>
	<anchor x="349" y="0" name="bottom"/>
	<anchor x="349" y="375" name="center"/>
	<anchor x="30" y="750" name="topleft"/>
	<outline>
		<contour>
			<point x="518" y="0" type="curve"/>
			<point x="627" y="0" type="line"/>
			<point x="627" y="0"/>
			<point x="620" y="137"/>
			<point x="620" y="335" type="curve" smooth="yes"/>
			<point x="620" y="415" type="line" smooth="yes"/>
			<point x="620" y="616"/>
			<point x="630" y="750"/>
			<point x="630" y="750" type="curve"/>
			<point x="515" y="750" type="line"/>
			<point x="515" y="750"/>
			<point x="525" y="616"/>
			<point x="525" y="415" type="curve" smooth="yes"/>
			<point x="525" y="335" type="line" smooth="yes"/>
			<point x="525" y="137"/>
			<point x="518" y="0"/>
		</contour>
		<contour>
			<point x="71" y="0" type="curve"/>
			<point x="180" y="0" type="line"/>
			<point x="180" y="0"/>
			<point x="173" y="137"/>
			<point x="173" y="335" type="curve" smooth="yes"/>
			<point x="173" y="415" type="line" smooth="yes"/>
			<point x="173" y="616"/>
			<point x="183" y="750"/>
			<point x="183" y="750" type="curve"/>
			<point x="68" y="750" type="line"/>
			<point x="68" y="750"/>
			<point x="78" y="616"/>
			<point x="78" y="415" type="curve" smooth="yes"/>
			<point x="78" y="335" type="line" smooth="yes"/>
			<point x="78" y="137"/>
			<point x="71" y="0"/>
		</contour>
		<contour>
			<point x="170" y="334" type="line"/>
			<point x="349" y="336" type="line"/>
			<point x="528" y="334" type="line"/>
			<point x="528" y="422" type="line"/>
			<point x="349" y="420" type="line"/>
			<point x="170" y="422" type="line"/>
		</contour>
	</outline>
</glyph>
<<<<<<< HEAD:CooperativaSans.ufo/glyphs/I_.glif
<glyph name="I" format="1">
  <advance width="242"/>
  <unicode hex="0049"/>
  <outline>
    <contour>
      <point x="61" y="0" type="curve"/>
      <point x="170" y="0" type="line"/>
      <point x="170" y="0"/>
      <point x="163" y="137"/>
      <point x="163" y="335" type="curve" smooth="yes"/>
      <point x="163" y="415" type="line" smooth="yes"/>
      <point x="163" y="616"/>
      <point x="173" y="750"/>
      <point x="173" y="750" type="curve"/>
      <point x="58" y="750" type="line"/>
      <point x="58" y="750"/>
      <point x="68" y="616"/>
      <point x="68" y="415" type="curve" smooth="yes"/>
      <point x="68" y="335" type="line" smooth="yes"/>
      <point x="68" y="137"/>
      <point x="61" y="0"/>
    </contour>
  </outline>
=======
<glyph name="I" format="2">
	<advance width="231"/>
	<unicode hex="0049"/>
	<anchor x="116" y="750" name="top"/>
	<anchor x="116" y="0" name="bottom"/>
	<anchor x="208" y="10" name="ogonek"/>
	<anchor x="20" y="750" name="topleft"/>
	<outline>
		<contour>
			<point x="61" y="0" type="curve"/>
			<point x="170" y="0" type="line"/>
			<point x="170" y="0"/>
			<point x="163" y="137"/>
			<point x="163" y="335" type="curve" smooth="yes"/>
			<point x="163" y="415" type="line" smooth="yes"/>
			<point x="163" y="616"/>
			<point x="173" y="750"/>
			<point x="173" y="750" type="curve"/>
			<point x="58" y="750" type="line"/>
			<point x="58" y="750"/>
			<point x="68" y="616"/>
			<point x="68" y="415" type="curve" smooth="yes"/>
			<point x="68" y="335" type="line" smooth="yes"/>
			<point x="68" y="137"/>
			<point x="61" y="0"/>
		</contour>
	</outline>
>>>>>>> 64a96ebffaf5013ba58d98fd80efa4318a310ffa:Cooperativa-Sans-Regular.ufo/glyphs/I_.glif
</glyph>
<<<<<<< HEAD:CooperativaSans.ufo/glyphs/K_.glif
<glyph name="K" format="1">
  <advance width="624"/>
  <unicode hex="004B"/>
  <outline>
    <contour>
      <point x="466" y="0" type="curve"/>
      <point x="508" y="0" type="line"/>
      <point x="581" y="0" type="line"/>
      <point x="581" y="0"/>
      <point x="395" y="261"/>
      <point x="308" y="389" type="curve"/>
      <point x="578" y="750" type="line"/>
      <point x="578" y="750"/>
      <point x="564" y="755"/>
      <point x="528" y="755" type="curve" smooth="yes"/>
      <point x="498" y="755"/>
      <point x="467" y="751"/>
      <point x="467" y="751" type="curve"/>
      <point x="430" y="697"/>
      <point x="262" y="456"/>
      <point x="244" y="436" type="curve"/>
      <point x="141" y="436" type="line"/>
      <point x="141" y="345" type="line"/>
      <point x="240" y="345" type="line"/>
      <point x="311" y="241"/>
      <point x="466" y="0"/>
    </contour>
    <contour>
      <point x="58" y="0" type="curve"/>
      <point x="112" y="0" type="line"/>
      <point x="170" y="0" type="line"/>
      <point x="170" y="0"/>
      <point x="153" y="141"/>
      <point x="153" y="296" type="curve" smooth="yes"/>
      <point x="153" y="388"/>
      <point x="154" y="440"/>
      <point x="154" y="532" type="curve" smooth="yes"/>
      <point x="159" y="752" type="line"/>
      <point x="159" y="752"/>
      <point x="139" y="755"/>
      <point x="109" y="755" type="curve" smooth="yes"/>
      <point x="79" y="755"/>
      <point x="59" y="752"/>
      <point x="59" y="752" type="curve"/>
      <point x="62" y="689"/>
      <point x="63" y="646"/>
      <point x="63" y="526" type="curve" smooth="yes"/>
      <point x="63" y="286" type="line" smooth="yes"/>
      <point x="63" y="160"/>
      <point x="58" y="0"/>
    </contour>
  </outline>
=======
<glyph name="K" format="2">
	<advance width="624"/>
	<unicode hex="004B"/>
	<anchor x="312" y="750" name="top"/>
	<anchor x="312" y="0" name="bottom"/>
	<outline>
		<contour>
			<point x="450" y="0" type="curve"/>
			<point x="581" y="0" type="line"/>
			<point x="581" y="0"/>
			<point x="403" y="289"/>
			<point x="316" y="417" type="curve"/>
			<point x="594" y="751" type="line"/>
			<point x="594" y="751"/>
			<point x="566" y="754"/>
			<point x="530" y="754" type="curve" smooth="yes"/>
			<point x="500" y="754"/>
			<point x="469" y="751"/>
			<point x="469" y="751" type="curve"/>
			<point x="430" y="702"/>
			<point x="316" y="555"/>
			<point x="237" y="466" type="curve"/>
			<point x="141" y="466" type="line"/>
			<point x="141" y="375" type="line"/>
			<point x="240" y="375" type="line"/>
			<point x="311" y="271"/>
			<point x="450" y="0"/>
		</contour>
		<contour>
			<point x="58" y="0" type="curve"/>
			<point x="170" y="0" type="line"/>
			<point x="170" y="0"/>
			<point x="153" y="141"/>
			<point x="153" y="296" type="curve" smooth="yes"/>
			<point x="153" y="388"/>
			<point x="154" y="440"/>
			<point x="154" y="532" type="curve" smooth="yes"/>
			<point x="159" y="752" type="line"/>
			<point x="159" y="752"/>
			<point x="139" y="755"/>
			<point x="109" y="755" type="curve" smooth="yes"/>
			<point x="79" y="755"/>
			<point x="59" y="752"/>
			<point x="59" y="752" type="curve"/>
			<point x="62" y="689"/>
			<point x="63" y="646"/>
			<point x="63" y="526" type="curve" smooth="yes"/>
			<point x="63" y="286" type="line" smooth="yes"/>
			<point x="63" y="160"/>
			<point x="58" y="0"/>
		</contour>
	</outline>
>>>>>>> 64a96ebffaf5013ba58d98fd80efa4318a310ffa:Cooperativa-Sans-Regular.ufo/glyphs/K_.glif
</glyph>
<glyph name="L" format="2">
	<advance width="502"/>
	<unicode hex="004C"/>
	<anchor x="251" y="750" name="top"/>
	<anchor x="251" y="0" name="bottom"/>
	<anchor x="251" y="375" name="center"/>
	<anchor x="472" y="750" name="topright"/>
	<outline>
		<contour>
			<point x="73" y="0" type="curve"/>
			<point x="182" y="0" type="line"/>
			<point x="182" y="0"/>
			<point x="175" y="137"/>
			<point x="175" y="335" type="curve" smooth="yes"/>
			<point x="175" y="415" type="line" smooth="yes"/>
			<point x="175" y="616"/>
			<point x="185" y="750"/>
			<point x="185" y="750" type="curve"/>
			<point x="70" y="750" type="line"/>
			<point x="70" y="750"/>
			<point x="80" y="616"/>
			<point x="80" y="415" type="curve" smooth="yes"/>
			<point x="80" y="335" type="line" smooth="yes"/>
			<point x="80" y="137"/>
			<point x="73" y="0"/>
		</contour>
		<contour>
			<point x="462" y="-4" type="curve"/>
			<point x="470" y="20"/>
			<point x="470" y="72"/>
			<point x="464" y="91" type="curve"/>
			<point x="464" y="91"/>
			<point x="386" y="71"/>
			<point x="268" y="71" type="curve" smooth="yes"/>
			<point x="151" y="71" type="line"/>
			<point x="150" y="0" type="line"/>
			<point x="307" y="0" type="line" smooth="yes"/>
			<point x="388" y="0"/>
			<point x="462" y="-4"/>
		</contour>
	</outline>
</glyph>
<glyph name="N" format="2">
  <advance width="665"/>
  <unicode hex="004E"/>
  <anchor x="333" y="750" name="top"/>
  <anchor x="333" y="0" name="bottom"/>
  <outline>
    <contour>
      <point x="502" y="0" type="line"/>
      <point x="572" y="30" type="line"/>
      <point x="467" y="242" type="line"/>
      <point x="163" y="750" type="line"/>
      <point x="103" y="710" type="line"/>
      <point x="206" y="500" type="line"/>
    </contour>
    <contour>
      <point x="71" y="0" type="curve"/>
      <point x="170" y="0" type="line"/>
      <point x="170" y="0"/>
      <point x="163" y="137"/>
      <point x="163" y="335" type="curve" smooth="yes"/>
      <point x="163" y="750" type="line"/>
      <point x="68" y="750" type="line"/>
      <point x="68" y="750"/>
      <point x="78" y="616"/>
      <point x="78" y="415" type="curve" smooth="yes"/>
      <point x="78" y="335" type="line" smooth="yes"/>
      <point x="78" y="137"/>
      <point x="71" y="0"/>
    </contour>
    <contour>
      <point x="502" y="0" type="curve"/>
      <point x="594" y="0" type="line"/>
      <point x="594" y="0"/>
      <point x="587" y="137"/>
      <point x="587" y="335" type="curve" smooth="yes"/>
      <point x="587" y="415" type="line" smooth="yes"/>
      <point x="587" y="616"/>
      <point x="597" y="750"/>
      <point x="597" y="750" type="curve"/>
      <point x="492" y="750" type="line"/>
      <point x="492" y="750"/>
      <point x="502" y="616"/>
      <point x="502" y="415" type="curve"/>
      <point x="506" y="277"/>
      <point x="502" y="0"/>
    </contour>
  </outline>
</glyph>
<<<<<<< HEAD:CooperativaSans.ufo/glyphs/R_.glif
<glyph name="R" format="1">
  <advance width="567"/>
  <unicode hex="0052"/>
  <outline>
    <contour>
      <point x="189" y="300" type="line"/>
      <point x="201" y="300" type="line" smooth="yes"/>
      <point x="433" y="300"/>
      <point x="525" y="413"/>
      <point x="525" y="538" type="curve" smooth="yes"/>
      <point x="525" y="695"/>
      <point x="402" y="765"/>
      <point x="232" y="765" type="curve" smooth="yes"/>
      <point x="126" y="765"/>
      <point x="58" y="750"/>
      <point x="58" y="750" type="curve"/>
      <point x="104" y="685" type="line"/>
      <point x="226" y="685" type="line" smooth="yes"/>
      <point x="357" y="685"/>
      <point x="420" y="619"/>
      <point x="420" y="531" type="curve" smooth="yes"/>
      <point x="420" y="451"/>
      <point x="364" y="369"/>
      <point x="241" y="369" type="curve" smooth="yes"/>
      <point x="214" y="369" type="line"/>
    </contour>
    <contour>
      <point x="61" y="0" type="curve"/>
      <point x="170" y="0" type="line"/>
      <point x="170" y="0"/>
      <point x="163" y="137"/>
      <point x="163" y="335" type="curve" smooth="yes"/>
      <point x="163" y="415" type="line" smooth="yes"/>
      <point x="163" y="615"/>
      <point x="163" y="750"/>
      <point x="163" y="750" type="curve"/>
      <point x="58" y="750" type="line"/>
      <point x="58" y="750"/>
      <point x="68" y="615"/>
      <point x="68" y="415" type="curve" smooth="yes"/>
      <point x="68" y="335" type="line" smooth="yes"/>
      <point x="68" y="137"/>
      <point x="61" y="0"/>
    </contour>
    <contour>
      <point x="511" y="-30" type="curve"/>
      <point x="530" y="-18"/>
      <point x="560" y="20"/>
      <point x="560" y="47" type="curve"/>
    </contour>
  </outline>
=======
<glyph name="R" format="2">
	<advance width="585"/>
	<unicode hex="0052"/>
	<anchor x="293" y="750" name="top"/>
	<anchor x="293" y="0" name="bottom"/>
	<outline>
		<contour>
			<point x="189" y="300" type="line"/>
			<point x="201" y="300" type="line" smooth="yes"/>
			<point x="433" y="300"/>
			<point x="525" y="413"/>
			<point x="525" y="538" type="curve" smooth="yes"/>
			<point x="525" y="695"/>
			<point x="402" y="765"/>
			<point x="232" y="765" type="curve" smooth="yes"/>
			<point x="126" y="765"/>
			<point x="58" y="750"/>
			<point x="58" y="750" type="curve"/>
			<point x="104" y="685" type="line"/>
			<point x="226" y="685" type="line" smooth="yes"/>
			<point x="357" y="685"/>
			<point x="420" y="619"/>
			<point x="420" y="531" type="curve" smooth="yes"/>
			<point x="420" y="451"/>
			<point x="364" y="369"/>
			<point x="241" y="369" type="curve" smooth="yes"/>
			<point x="214" y="369" type="line"/>
		</contour>
		<contour>
			<point x="61" y="0" type="curve"/>
			<point x="170" y="0" type="line"/>
			<point x="170" y="0"/>
			<point x="163" y="137"/>
			<point x="163" y="335" type="curve" smooth="yes"/>
			<point x="163" y="415" type="line"/>
			<point x="163" y="750" type="line"/>
			<point x="58" y="750" type="line"/>
			<point x="58" y="750"/>
			<point x="68" y="615"/>
			<point x="68" y="415" type="curve" smooth="yes"/>
			<point x="68" y="335" type="line" smooth="yes"/>
			<point x="68" y="137"/>
			<point x="61" y="0"/>
		</contour>
		<contour>
			<point x="511" y="-30" type="curve"/>
			<point x="530" y="-18"/>
			<point x="560" y="20"/>
			<point x="560" y="47" type="curve"/>
			<point x="439" y="79"/>
			<point x="341" y="235" type="curve" smooth="yes"/>
			<point x="268" y="351" type="line"/>
			<point x="189" y="300" type="line"/>
			<point x="278" y="166" type="line"/>
			<point x="343" y="69"/>
			<point x="423" y="10"/>
		</contour>
	</outline>
>>>>>>> 64a96ebffaf5013ba58d98fd80efa4318a310ffa:Cooperativa-Sans-Regular.ufo/glyphs/R_.glif
</glyph>
<<<<<<< HEAD:CooperativaSans.ufo/glyphs/S_.glif
<glyph name="S" format="1">
  <advance width="600"/>
  <unicode hex="0053"/>
  <outline>
    <contour>
      <point x="291" y="-16" type="curve" smooth="yes"/>
      <point x="469" y="-16"/>
      <point x="567" y="73"/>
      <point x="567" y="202" type="curve" smooth="yes"/>
      <point x="567" y="323"/>
      <point x="442" y="388"/>
      <point x="339" y="437" type="curve" smooth="yes"/>
      <point x="259" y="475"/>
      <point x="168" y="521"/>
      <point x="168" y="573" type="curve" smooth="yes"/>
      <point x="168" y="632"/>
      <point x="228" y="668"/>
      <point x="291" y="668" type="curve" smooth="yes"/>
      <point x="428" y="668"/>
      <point x="489" y="614"/>
      <point x="489" y="614" type="curve"/>
      <point x="489" y="614"/>
      <point x="507" y="625"/>
      <point x="507" y="664" type="curve" smooth="yes"/>
      <point x="507" y="697"/>
      <point x="500" y="712"/>
      <point x="500" y="712" type="curve"/>
      <point x="500" y="712"/>
      <point x="423" y="766"/>
      <point x="291" y="766" type="curve" smooth="yes"/>
      <point x="148" y="766"/>
      <point x="54" y="694"/>
      <point x="54" y="554" type="curve" smooth="yes"/>
      <point x="54" y="436"/>
      <point x="186" y="391"/>
      <point x="291" y="339" type="curve" smooth="yes"/>
      <point x="369" y="300"/>
      <point x="453" y="243"/>
      <point x="453" y="178" type="curve" smooth="yes"/>
      <point x="453" y="118"/>
      <point x="369" y="82"/>
      <point x="291" y="82" type="curve" smooth="yes"/>
      <point x="151" y="82"/>
      <point x="60" y="164"/>
      <point x="60" y="164" type="curve"/>
      <point x="60" y="164"/>
      <point x="42" y="154"/>
      <point x="42" y="105" type="curve" smooth="yes"/>
      <point x="42" y="73"/>
      <point x="49" y="59"/>
      <point x="49" y="59" type="curve"/>
      <point x="49" y="59"/>
      <point x="144" y="-16"/>
    </contour>
  </outline>
=======
<glyph name="S" format="2">
	<advance width="614"/>
	<unicode hex="0053"/>
	<anchor x="307" y="750" name="top"/>
	<anchor x="307" y="0" name="bottom"/>
	<outline>
		<contour>
			<point x="300" y="-15" type="curve" smooth="yes"/>
			<point x="478" y="-15"/>
			<point x="574" y="64"/>
			<point x="574" y="193" type="curve" smooth="yes"/>
			<point x="574" y="314"/>
			<point x="455" y="380"/>
			<point x="354" y="433" type="curve" smooth="yes"/>
			<point x="276" y="474"/>
			<point x="185" y="504"/>
			<point x="183" y="578" type="curve" smooth="yes"/>
			<point x="181" y="637"/>
			<point x="222" y="682"/>
			<point x="314" y="682" type="curve" smooth="yes"/>
			<point x="451" y="682"/>
			<point x="499" y="609"/>
			<point x="499" y="609" type="curve"/>
			<point x="499" y="609"/>
			<point x="516" y="616"/>
			<point x="533" y="640" type="curve" smooth="yes"/>
			<point x="550" y="665"/>
			<point x="546" y="688"/>
			<point x="546" y="688" type="curve"/>
			<point x="546" y="688"/>
			<point x="450" y="766"/>
			<point x="318" y="766" type="curve" smooth="yes"/>
			<point x="175" y="766"/>
			<point x="73" y="703"/>
			<point x="73" y="563" type="curve" smooth="yes"/>
			<point x="73" y="445"/>
			<point x="200" y="395"/>
			<point x="303" y="339" type="curve" smooth="yes"/>
			<point x="379" y="298"/>
			<point x="461" y="263"/>
			<point x="461" y="181" type="curve" smooth="yes"/>
			<point x="461" y="111"/>
			<point x="402" y="73"/>
			<point x="304" y="73" type="curve" smooth="yes"/>
			<point x="184" y="73"/>
			<point x="99" y="167"/>
			<point x="99" y="167" type="curve"/>
			<point x="99" y="167"/>
			<point x="85" y="161"/>
			<point x="64" y="137" type="curve" smooth="yes"/>
			<point x="43" y="110"/>
			<point x="40" y="87"/>
			<point x="40" y="87" type="curve"/>
			<point x="45" y="82"/>
			<point x="154" y="-15"/>
		</contour>
	</outline>
>>>>>>> 64a96ebffaf5013ba58d98fd80efa4318a310ffa:Cooperativa-Sans-Regular.ufo/glyphs/S_.glif
</glyph>
<<<<<<< HEAD:CooperativaSans.ufo/glyphs/T_.glif
<glyph name="T" format="1">
  <advance width="579"/>
  <unicode hex="0054"/>
  <outline>
    <contour>
      <point x="236" y="-1" type="curve"/>
      <point x="345" y="-1" type="line"/>
      <point x="345" y="-1"/>
      <point x="338" y="137"/>
      <point x="338" y="335" type="curve" smooth="yes"/>
      <point x="338" y="415" type="line" smooth="yes"/>
      <point x="338" y="615"/>
      <point x="348" y="750"/>
      <point x="348" y="750" type="curve"/>
      <point x="233" y="750" type="line"/>
      <point x="233" y="750"/>
      <point x="243" y="615"/>
      <point x="243" y="415" type="curve" smooth="yes"/>
      <point x="243" y="335" type="line" smooth="yes"/>
      <point x="243" y="137"/>
      <point x="236" y="-1"/>
    </contour>
    <contour>
      <point x="30" y="664" type="curve"/>
      <point x="81" y="671"/>
      <point x="154" y="675"/>
      <point x="290" y="675" type="curve" smooth="yes"/>
      <point x="426" y="675"/>
      <point x="498" y="671"/>
      <point x="549" y="664" type="curve"/>
      <point x="551" y="678"/>
      <point x="551" y="693"/>
      <point x="551" y="708" type="curve" smooth="yes"/>
      <point x="551" y="724"/>
      <point x="551" y="740"/>
      <point x="549" y="757" type="curve"/>
      <point x="482" y="752"/>
      <point x="420" y="750"/>
      <point x="290" y="750" type="curve" smooth="yes"/>
      <point x="160" y="750"/>
      <point x="97" y="752"/>
      <point x="30" y="757" type="curve"/>
      <point x="28" y="740"/>
      <point x="28" y="724"/>
      <point x="28" y="708" type="curve" smooth="yes"/>
      <point x="28" y="693"/>
      <point x="28" y="678"/>
    </contour>
  </outline>
=======
<glyph name="T" format="2">
	<advance width="563"/>
	<unicode hex="0054"/>
	<anchor x="282" y="750" name="top"/>
	<anchor x="282" y="0" name="bottom"/>
	<anchor x="282" y="375" name="center"/>
	<outline>
		<contour>
			<point x="228" y="-1" type="curve"/>
			<point x="337" y="-1" type="line"/>
			<point x="337" y="-1"/>
			<point x="330" y="137"/>
			<point x="330" y="335" type="curve" smooth="yes"/>
			<point x="330" y="415" type="line" smooth="yes"/>
			<point x="330" y="615"/>
			<point x="340" y="750"/>
			<point x="340" y="750" type="curve"/>
			<point x="225" y="750" type="line"/>
			<point x="225" y="750"/>
			<point x="235" y="615"/>
			<point x="235" y="415" type="curve" smooth="yes"/>
			<point x="235" y="335" type="line" smooth="yes"/>
			<point x="235" y="137"/>
			<point x="228" y="-1"/>
		</contour>
		<contour>
			<point x="22" y="664" type="curve"/>
			<point x="73" y="671"/>
			<point x="146" y="675"/>
			<point x="282" y="675" type="curve" smooth="yes"/>
			<point x="418" y="675"/>
			<point x="490" y="671"/>
			<point x="541" y="664" type="curve"/>
			<point x="543" y="678"/>
			<point x="543" y="693"/>
			<point x="543" y="708" type="curve" smooth="yes"/>
			<point x="543" y="724"/>
			<point x="543" y="740"/>
			<point x="541" y="757" type="curve"/>
			<point x="474" y="752"/>
			<point x="412" y="750"/>
			<point x="282" y="750" type="curve" smooth="yes"/>
			<point x="152" y="750"/>
			<point x="89" y="752"/>
			<point x="22" y="757" type="curve"/>
			<point x="20" y="740"/>
			<point x="20" y="724"/>
			<point x="20" y="708" type="curve" smooth="yes"/>
			<point x="20" y="693"/>
			<point x="20" y="678"/>
		</contour>
	</outline>
>>>>>>> 64a96ebffaf5013ba58d98fd80efa4318a310ffa:Cooperativa-Sans-Regular.ufo/glyphs/T_.glif
</glyph>
<<<<<<< HEAD:CooperativaSans.ufo/glyphs/U_.glif
<glyph name="U" format="1">
  <advance width="633"/>
  <unicode hex="0055"/>
  <outline>
    <contour>
      <point x="319" y="-16" type="curve" smooth="yes"/>
      <point x="517" y="-16"/>
      <point x="579" y="97"/>
      <point x="579" y="395" type="curve" smooth="yes"/>
      <point x="579" y="415" type="line" smooth="yes"/>
      <point x="579" y="616"/>
      <point x="589" y="750"/>
      <point x="589" y="750" type="curve"/>
      <point x="474" y="750" type="line"/>
      <point x="474" y="750"/>
      <point x="484" y="616"/>
      <point x="484" y="415" type="curve" smooth="yes"/>
      <point x="484" y="395" type="line" smooth="yes"/>
      <point x="484" y="176"/>
      <point x="452" y="67"/>
      <point x="319" y="67" type="curve" smooth="yes"/>
      <point x="186" y="67"/>
      <point x="149" y="176"/>
      <point x="149" y="395" type="curve" smooth="yes"/>
      <point x="149" y="415" type="line" smooth="yes"/>
      <point x="149" y="616"/>
      <point x="159" y="750"/>
      <point x="159" y="750" type="curve"/>
      <point x="44" y="750" type="line"/>
      <point x="44" y="750"/>
      <point x="54" y="616"/>
      <point x="54" y="415" type="curve" smooth="yes"/>
      <point x="54" y="395" type="line" smooth="yes"/>
      <point x="54" y="97"/>
      <point x="121" y="-16"/>
    </contour>
  </outline>
=======
<glyph name="U" format="2">
	<advance width="641"/>
	<unicode hex="0055"/>
	<anchor x="321" y="750" name="top"/>
	<anchor x="321" y="0" name="bottom"/>
	<anchor x="577" y="10" name="ogonek"/>
	<anchor x="621" y="750" name="topright"/>
	<outline>
		<contour>
			<point x="323" y="-16" type="curve" smooth="yes"/>
			<point x="452" y="-16"/>
			<point x="583" y="37"/>
			<point x="583" y="395" type="curve" smooth="yes"/>
			<point x="583" y="415" type="line" smooth="yes"/>
			<point x="583" y="616"/>
			<point x="593" y="750"/>
			<point x="593" y="750" type="curve"/>
			<point x="478" y="750" type="line"/>
			<point x="478" y="750"/>
			<point x="488" y="616"/>
			<point x="488" y="415" type="curve" smooth="yes"/>
			<point x="488" y="395" type="line" smooth="yes"/>
			<point x="488" y="106"/>
			<point x="406" y="67"/>
			<point x="323" y="67" type="curve" smooth="yes"/>
			<point x="237" y="67"/>
			<point x="153" y="106"/>
			<point x="153" y="395" type="curve" smooth="yes"/>
			<point x="153" y="415" type="line" smooth="yes"/>
			<point x="153" y="616"/>
			<point x="163" y="750"/>
			<point x="163" y="750" type="curve"/>
			<point x="48" y="750" type="line"/>
			<point x="48" y="750"/>
			<point x="58" y="616"/>
			<point x="58" y="415" type="curve" smooth="yes"/>
			<point x="58" y="395" type="line" smooth="yes"/>
			<point x="58" y="37"/>
			<point x="195" y="-16"/>
		</contour>
	</outline>
>>>>>>> 64a96ebffaf5013ba58d98fd80efa4318a310ffa:Cooperativa-Sans-Regular.ufo/glyphs/U_.glif
</glyph>
<<<<<<< HEAD:CooperativaSans.ufo/glyphs/V_.glif
<glyph name="V" format="1">
  <advance width="622"/>
  <unicode hex="0056"/>
  <outline>
    <contour>
      <point x="274" y="0" type="line"/>
      <point x="377" y="0" type="line"/>
      <point x="612" y="750" type="line"/>
      <point x="612" y="750"/>
      <point x="599" y="760"/>
      <point x="563" y="760" type="curve" smooth="yes"/>
      <point x="525" y="760"/>
      <point x="504" y="750"/>
      <point x="504" y="750" type="curve"/>
      <point x="391" y="375" type="line"/>
      <point x="311" y="67" type="line"/>
      <point x="280" y="121" type="line"/>
    </contour>
    <contour>
      <point x="245" y="0" type="line"/>
      <point x="348" y="0" type="line"/>
      <point x="342" y="121" type="line"/>
      <point x="311" y="67" type="line"/>
      <point x="231" y="375" type="line"/>
      <point x="118" y="750" type="line"/>
      <point x="118" y="750"/>
      <point x="97" y="760"/>
      <point x="59" y="760" type="curve" smooth="yes"/>
      <point x="23" y="760"/>
      <point x="10" y="750"/>
      <point x="10" y="750" type="curve"/>
    </contour>
  </outline>
=======
<glyph name="V" format="2">
	<advance width="622"/>
	<unicode hex="0056"/>
	<anchor x="311" y="750" name="top"/>
	<anchor x="311" y="0" name="bottom"/>
	<outline>
		<contour>
			<point x="274" y="0" type="line"/>
			<point x="377" y="0" type="line"/>
			<point x="612" y="750" type="line"/>
			<point x="612" y="750"/>
			<point x="599" y="760"/>
			<point x="563" y="760" type="curve" smooth="yes"/>
			<point x="525" y="760"/>
			<point x="504" y="750"/>
			<point x="504" y="750" type="curve"/>
			<point x="391" y="375" type="line"/>
			<point x="311" y="67" type="line"/>
			<point x="280" y="121" type="line"/>
		</contour>
		<contour>
			<point x="245" y="0" type="line"/>
			<point x="348" y="0" type="line"/>
			<point x="342" y="121" type="line"/>
			<point x="311" y="67" type="line"/>
			<point x="231" y="375" type="line"/>
			<point x="118" y="750" type="line"/>
			<point x="118" y="750"/>
			<point x="97" y="760"/>
			<point x="59" y="760" type="curve" smooth="yes"/>
			<point x="23" y="760"/>
			<point x="10" y="750"/>
			<point x="10" y="750" type="curve"/>
		</contour>
	</outline>
>>>>>>> 64a96ebffaf5013ba58d98fd80efa4318a310ffa:Cooperativa-Sans-Regular.ufo/glyphs/V_.glif
</glyph>
<glyph name="W" format="2">
	<advance width="858"/>
	<unicode hex="0057"/>
	<anchor x="429" y="750" name="top"/>
	<anchor x="429" y="0" name="bottom"/>
	<outline>
		<contour>
			<point x="571" y="0" type="line"/>
			<point x="648" y="0" type="line"/>
			<point x="609" y="222" type="line"/>
			<point x="487" y="750" type="line"/>
			<point x="419" y="750" type="line"/>
			<point x="429" y="651" type="line"/>
			<point x="487" y="374" type="line"/>
		</contour>
		<contour>
			<point x="163" y="0" type="line"/>
			<point x="237" y="0" type="line"/>
			<point x="209" y="222" type="line"/>
			<point x="128" y="750" type="line"/>
			<point x="112" y="750"/>
			<point x="74" y="750" type="curve" smooth="yes"/>
			<point x="25" y="750" type="line"/>
		</contour>
		<contour>
			<point x="210" y="0" type="line"/>
			<point x="287" y="0" type="line"/>
			<point x="376" y="374" type="line"/>
			<point x="429" y="651" type="line"/>
			<point x="439" y="750" type="line"/>
			<point x="369" y="750" type="line"/>
			<point x="259" y="276" type="line"/>
		</contour>
		<contour>
			<point x="615" y="0" type="line"/>
			<point x="695" y="0" type="line"/>
			<point x="833" y="750" type="line"/>
			<point x="815" y="750"/>
			<point x="784" y="750" type="curve" smooth="yes"/>
			<point x="730" y="750" type="line"/>
			<point x="654" y="220" type="line"/>
		</contour>
	</outline>
</glyph>
<glyph name="Y" format="2">
	<advance width="643"/>
	<unicode hex="0059"/>
	<anchor x="322" y="750" name="top"/>
	<anchor x="322" y="0" name="bottom"/>
	<anchor x="30" y="750" name="topleft"/>
	<outline>
		<contour>
			<point x="266" y="0" type="line"/>
			<point x="375" y="0" type="line" smooth="yes"/>
			<point x="376" y="0"/>
			<point x="368" y="264"/>
			<point x="368" y="264" type="curve"/>
			<point x="608" y="751" type="line"/>
			<point x="608" y="751"/>
			<point x="586" y="756"/>
			<point x="550" y="756" type="curve" smooth="yes"/>
			<point x="509" y="756"/>
			<point x="484" y="751"/>
			<point x="484" y="751" type="curve"/>
			<point x="324" y="375" type="line"/>
			<point x="160" y="751" type="line"/>
			<point x="160" y="751"/>
			<point x="141" y="756"/>
			<point x="99" y="756" type="curve" smooth="yes"/>
			<point x="63" y="756"/>
			<point x="35" y="751"/>
			<point x="35" y="751" type="curve"/>
			<point x="273" y="265" type="line"/>
		</contour>
	</outline>
</glyph>
<glyph name="Z" format="2">
	<advance width="568"/>
	<unicode hex="005A"/>
	<anchor x="284" y="750" name="top"/>
	<anchor x="284" y="0" name="bottom"/>
	<anchor x="284" y="375" name="center"/>
	<outline>
		<contour>
			<point x="546" y="-4" type="curve"/>
			<point x="555" y="15"/>
			<point x="556" y="72"/>
			<point x="548" y="98" type="curve"/>
			<point x="485" y="84"/>
			<point x="303" y="84" type="curve" smooth="yes"/>
			<point x="121" y="84" type="line"/>
			<point x="124" y="14" type="line"/>
			<point x="152" y="56" type="line"/>
			<point x="249" y="208" type="line"/>
			<point x="543" y="734" type="line"/>
			<point x="543" y="750" type="line"/>
			<point x="212" y="750" type="line"/>
			<point x="52" y="754" type="line"/>
			<point x="44" y="730"/>
			<point x="43" y="678"/>
			<point x="54" y="652" type="curve"/>
			<point x="104" y="666"/>
			<point x="277" y="666" type="curve" smooth="yes"/>
			<point x="447" y="666" type="line"/>
			<point x="435" y="728" type="line"/>
			<point x="413" y="694" type="line"/>
			<point x="313" y="522" type="line"/>
			<point x="30" y="18" type="line"/>
			<point x="30" y="0" type="line"/>
			<point x="391" y="0" type="line" smooth="yes"/>
			<point x="435" y="0"/>
			<point x="546" y="-4"/>
		</contour>
	</outline>
</glyph>
<glyph name="a" format="2">
	<advance width="528"/>
	<unicode hex="0061"/>
	<anchor x="238" y="586" name="Top"/>
	<anchor x="263" y="550" name="top"/>
	<anchor x="263" y="0" name="bottom"/>
	<anchor x="473" y="10" name="ogonek"/>
	<outline>
		<contour>
			<point x="387" y="-18" type="curve"/>
			<point x="426" y="-13"/>
			<point x="463" y="3"/>
			<point x="483" y="23" type="curve"/>
			<point x="464" y="55"/>
			<point x="451" y="113"/>
			<point x="451" y="163" type="curve" smooth="yes"/>
			<point x="451" y="361" type="line" smooth="yes"/>
			<point x="451" y="500"/>
			<point x="386" y="566"/>
			<point x="249" y="566" type="curve" smooth="yes"/>
			<point x="168" y="566"/>
			<point x="101" y="551"/>
			<point x="55" y="529" type="curve"/>
			<point x="50" y="512"/>
			<point x="65" y="452"/>
			<point x="77" y="441" type="curve"/>
			<point x="115" y="467"/>
			<point x="171" y="486"/>
			<point x="228" y="486" type="curve" smooth="yes"/>
			<point x="308" y="486"/>
			<point x="356" y="433"/>
			<point x="356" y="345" type="curve" smooth="yes"/>
			<point x="356" y="273" type="line"/>
			<point x="357" y="273" type="line"/>
			<point x="357" y="120" type="line" smooth="yes"/>
			<point x="357" y="69"/>
			<point x="371" y="5"/>
		</contour>
		<contour>
			<point x="195" y="-16" type="curve" smooth="yes"/>
			<point x="297" y="-16"/>
			<point x="386" y="68"/>
			<point x="386" y="165" type="curve"/>
			<point x="357" y="206" type="line"/>
			<point x="357" y="128"/>
			<point x="299" y="69"/>
			<point x="220" y="69" type="curve" smooth="yes"/>
			<point x="166" y="69"/>
			<point x="136" y="100"/>
			<point x="136" y="154" type="curve" smooth="yes"/>
			<point x="136" y="228"/>
			<point x="192" y="265"/>
			<point x="303" y="265" type="curve" smooth="yes"/>
			<point x="335" y="265"/>
			<point x="364" y="262"/>
			<point x="386" y="260" type="curve"/>
			<point x="386" y="327" type="line"/>
			<point x="366" y="330"/>
			<point x="326" y="333"/>
			<point x="291" y="333" type="curve" smooth="yes"/>
			<point x="121" y="333"/>
			<point x="40" y="275"/>
			<point x="40" y="154" type="curve" smooth="yes"/>
			<point x="40" y="51"/>
			<point x="101" y="-16"/>
		</contour>
	</outline>
</glyph>
<glyph name="b" format="2">
	<advance width="572"/>
	<unicode hex="0062"/>
	<anchor x="290" y="550" name="top"/>
	<anchor x="290" y="0" name="bottom"/>
	<anchor x="290" y="275" name="center"/>
	<outline>
		<contour>
			<point x="303" y="-16" type="curve" smooth="yes"/>
			<point x="437" y="-16"/>
			<point x="532" y="104"/>
			<point x="532" y="275" type="curve" smooth="yes"/>
			<point x="532" y="484"/>
			<point x="424" y="566"/>
			<point x="303" y="566" type="curve" smooth="yes"/>
			<point x="154" y="566"/>
			<point x="101" y="416"/>
			<point x="101" y="416" type="curve"/>
			<point x="157" y="335" type="line"/>
			<point x="157" y="428"/>
			<point x="216" y="485"/>
			<point x="283" y="485" type="curve" smooth="yes"/>
			<point x="369" y="485"/>
			<point x="431" y="430"/>
			<point x="431" y="275" type="curve" smooth="yes"/>
			<point x="431" y="151"/>
			<point x="368" y="67"/>
			<point x="281" y="67" type="curve" smooth="yes"/>
			<point x="196" y="67"/>
			<point x="157" y="153"/>
			<point x="157" y="252" type="curve"/>
			<point x="128" y="87" type="line"/>
			<point x="128" y="87"/>
			<point x="185" y="-16"/>
		</contour>
		<contour>
			<point x="65" y="0" type="curve"/>
			<point x="116" y="0" type="line"/>
			<point x="168" y="82" type="line"/>
			<point x="157" y="82" type="line"/>
			<point x="157" y="517" type="line" smooth="yes"/>
			<point x="157" y="741"/>
			<point x="170" y="797"/>
			<point x="170" y="797" type="curve"/>
			<point x="170" y="797"/>
			<point x="142" y="800"/>
			<point x="112" y="800" type="curve" smooth="yes"/>
			<point x="82" y="800"/>
			<point x="62" y="797"/>
			<point x="62" y="797" type="curve"/>
			<point x="62" y="797"/>
			<point x="67" y="706"/>
			<point x="67" y="436" type="curve" smooth="yes"/>
			<point x="67" y="288" type="line" smooth="yes"/>
			<point x="67" y="30"/>
			<point x="65" y="0"/>
		</contour>
	</outline>
</glyph>
<glyph name="c" format="2">
	<advance width="501"/>
	<unicode hex="0063"/>
	<outline>
		<contour>
			<point x="448" y="530" type="curve"/>
			<point x="420" y="548"/>
			<point x="375" y="566"/>
			<point x="298" y="566" type="curve" smooth="yes"/>
			<point x="200" y="566"/>
			<point x="40" y="499"/>
			<point x="40" y="275" type="curve" smooth="yes"/>
			<point x="40" y="61"/>
			<point x="145" y="-15"/>
			<point x="292" y="-15" type="curve" smooth="yes"/>
			<point x="404" y="-15"/>
			<point x="471" y="32"/>
			<point x="471" y="32" type="curve"/>
			<point x="471" y="86"/>
			<point x="439" y="113"/>
			<point x="439" y="113" type="curve"/>
			<point x="439" y="113"/>
			<point x="360" y="63"/>
			<point x="288" y="63" type="curve" smooth="yes"/>
			<point x="216" y="63"/>
			<point x="139" y="107"/>
			<point x="139" y="275" type="curve" smooth="yes"/>
			<point x="139" y="443"/>
			<point x="228" y="483"/>
			<point x="298" y="483" type="curve" smooth="yes"/>
			<point x="377" y="483"/>
			<point x="405" y="448"/>
			<point x="405" y="448" type="curve"/>
			<point x="421" y="457"/>
			<point x="448" y="503"/>
		</contour>
	</outline>
</glyph>
<glyph name="e" format="2">
	<advance width="529"/>
	<unicode hex="0065"/>
	<anchor x="288" y="586" name="Top"/>
	<anchor x="265" y="550" name="top"/>
	<anchor x="265" y="0" name="bottom"/>
	<anchor x="476" y="10" name="ogonek"/>
	<outline>
		<contour>
			<point x="292" y="-15" type="curve" smooth="yes"/>
			<point x="414" y="-15"/>
			<point x="478" y="32"/>
			<point x="478" y="32" type="curve"/>
			<point x="478" y="86"/>
			<point x="446" y="113"/>
			<point x="446" y="113" type="curve"/>
			<point x="446" y="113"/>
			<point x="370" y="63"/>
			<point x="298" y="63" type="curve" smooth="yes"/>
			<point x="206" y="63"/>
			<point x="139" y="144"/>
			<point x="139" y="275" type="curve" smooth="yes"/>
			<point x="139" y="443"/>
			<point x="200" y="488"/>
			<point x="278" y="488" type="curve" smooth="yes"/>
			<point x="372" y="488"/>
			<point x="396" y="422"/>
			<point x="396" y="336" type="curve"/>
			<point x="120" y="336" type="line"/>
			<point x="120" y="258" type="line"/>
			<point x="461" y="258" type="line"/>
			<point x="461" y="258"/>
			<point x="489" y="291"/>
			<point x="489" y="356" type="curve" smooth="yes"/>
			<point x="489" y="478"/>
			<point x="413" y="566"/>
			<point x="288" y="566" type="curve" smooth="yes"/>
			<point x="151" y="566"/>
			<point x="42" y="468"/>
			<point x="40" y="275" type="curve" smooth="yes"/>
			<point x="38" y="86"/>
			<point x="139" y="-15"/>
		</contour>
	</outline>
</glyph>
<glyph name="f" format="2">
	<advance width="400"/>
	<unicode hex="0066"/>
	<anchor x="205" y="800" name="top"/>
	<anchor x="205" y="0" name="bottom"/>
	<outline>
		<contour>
			<point x="179" y="-2" type="curve" smooth="yes"/>
			<point x="214" y="-2"/>
			<point x="230" y="0"/>
			<point x="230" y="0" type="curve"/>
			<point x="230" y="16"/>
			<point x="218" y="104"/>
			<point x="218" y="290" type="curve" smooth="yes"/>
			<point x="218" y="591" type="line" smooth="yes"/>
			<point x="218" y="687"/>
			<point x="244" y="730"/>
			<point x="315" y="730" type="curve" smooth="yes"/>
			<point x="373" y="730"/>
			<point x="397" y="702"/>
			<point x="397" y="702" type="curve"/>
			<point x="397" y="702"/>
			<point x="410" y="728"/>
			<point x="410" y="764" type="curve" smooth="yes"/>
			<point x="410" y="788"/>
			<point x="404" y="798"/>
			<point x="404" y="798" type="curve"/>
			<point x="404" y="798"/>
			<point x="381" y="816"/>
			<point x="292" y="816" type="curve" smooth="yes"/>
			<point x="198" y="816"/>
			<point x="128" y="747"/>
			<point x="128" y="601" type="curve" smooth="yes"/>
			<point x="128" y="286" type="line" smooth="yes"/>
			<point x="128" y="160"/>
			<point x="126" y="0"/>
			<point x="126" y="0" type="curve"/>
			<point x="126" y="0"/>
			<point x="148" y="-2"/>
		</contour>
		<contour>
			<point x="353" y="463" type="curve"/>
			<point x="358" y="493"/>
			<point x="359" y="522"/>
			<point x="354" y="552" type="curve"/>
			<point x="354" y="552"/>
			<point x="226" y="550"/>
			<point x="174" y="550" type="curve" smooth="yes"/>
			<point x="111" y="550"/>
			<point x="46" y="552"/>
			<point x="46" y="552" type="curve"/>
			<point x="40" y="523"/>
			<point x="40" y="493"/>
			<point x="46" y="464" type="curve"/>
			<point x="46" y="464"/>
			<point x="133" y="466"/>
			<point x="174" y="466" type="curve" smooth="yes"/>
			<point x="233" y="466"/>
			<point x="353" y="463"/>
		</contour>
	</outline>
</glyph>
<<<<<<< HEAD:CooperativaSans.ufo/glyphs/g.glif
<glyph name="g" format="1">
  <advance width="562"/>
  <unicode hex="0067"/>
  <outline>
    <contour>
      <point x="243" y="-216" type="curve" smooth="yes"/>
      <point x="393" y="-216"/>
      <point x="518" y="-153"/>
      <point x="518" y="65" type="curve" smooth="yes"/>
      <point x="518" y="550" type="line"/>
      <point x="462" y="550" type="line"/>
      <point x="428" y="488" type="line"/>
      <point x="428" y="48" type="line" smooth="yes"/>
      <point x="428" y="-58"/>
      <point x="377" y="-130"/>
      <point x="253" y="-130" type="curve" smooth="yes"/>
      <point x="141" y="-130"/>
      <point x="89" y="-90"/>
      <point x="89" y="-90" type="curve"/>
      <point x="74" y="-106"/>
      <point x="54" y="-136"/>
      <point x="53" y="-174" type="curve"/>
      <point x="53" y="-174"/>
      <point x="122" y="-216"/>
    </contour>
    <contour>
      <point x="289" y="-16" type="curve" smooth="yes"/>
      <point x="417" y="-16"/>
      <point x="487" y="100"/>
      <point x="487" y="223" type="curve"/>
      <point x="428" y="215" type="line"/>
      <point x="428" y="128"/>
      <point x="364" y="64"/>
      <point x="296" y="64" type="curve" smooth="yes"/>
      <point x="227" y="64"/>
      <point x="140" y="136"/>
      <point x="140" y="275" type="curve" smooth="yes"/>
      <point x="140" y="391"/>
      <point x="199" y="485"/>
      <point x="297" y="485" type="curve" smooth="yes"/>
      <point x="388" y="485"/>
      <point x="428" y="406"/>
      <point x="428" y="341" type="curve"/>
      <point x="489" y="349" type="line"/>
      <point x="489" y="425"/>
      <point x="437" y="566"/>
      <point x="286" y="566" type="curve" smooth="yes"/>
      <point x="155" y="566"/>
      <point x="42" y="460"/>
      <point x="42" y="275" type="curve" smooth="yes"/>
      <point x="42" y="77"/>
      <point x="170" y="-16"/>
    </contour>
  </outline>
=======
<glyph name="g" format="2">
	<advance width="578"/>
	<unicode hex="0067"/>
	<anchor x="289" y="550" name="top"/>
	<anchor x="289" y="-200" name="bottom"/>
	<outline>
		<contour>
			<point x="241" y="-216" type="curve" smooth="yes"/>
			<point x="391" y="-216"/>
			<point x="516" y="-153"/>
			<point x="516" y="65" type="curve" smooth="yes"/>
			<point x="516" y="550" type="line"/>
			<point x="460" y="550" type="line"/>
			<point x="426" y="488" type="line"/>
			<point x="426" y="48" type="line" smooth="yes"/>
			<point x="426" y="-58"/>
			<point x="375" y="-130"/>
			<point x="251" y="-130" type="curve" smooth="yes"/>
			<point x="139" y="-130"/>
			<point x="87" y="-90"/>
			<point x="87" y="-90" type="curve"/>
			<point x="72" y="-106"/>
			<point x="52" y="-136"/>
			<point x="51" y="-174" type="curve"/>
			<point x="51" y="-174"/>
			<point x="120" y="-216"/>
		</contour>
		<contour>
			<point x="287" y="-16" type="curve" smooth="yes"/>
			<point x="415" y="-16"/>
			<point x="485" y="100"/>
			<point x="485" y="223" type="curve"/>
			<point x="426" y="215" type="line"/>
			<point x="426" y="128"/>
			<point x="362" y="64"/>
			<point x="294" y="64" type="curve" smooth="yes"/>
			<point x="225" y="64"/>
			<point x="138" y="136"/>
			<point x="138" y="275" type="curve" smooth="yes"/>
			<point x="138" y="391"/>
			<point x="197" y="485"/>
			<point x="295" y="485" type="curve" smooth="yes"/>
			<point x="386" y="485"/>
			<point x="426" y="406"/>
			<point x="426" y="341" type="curve"/>
			<point x="487" y="349" type="line"/>
			<point x="487" y="425"/>
			<point x="435" y="566"/>
			<point x="284" y="566" type="curve" smooth="yes"/>
			<point x="153" y="566"/>
			<point x="40" y="460"/>
			<point x="40" y="275" type="curve" smooth="yes"/>
			<point x="40" y="77"/>
			<point x="168" y="-16"/>
		</contour>
	</outline>
>>>>>>> 64a96ebffaf5013ba58d98fd80efa4318a310ffa:Cooperativa-Sans-Regular.ufo/glyphs/g.glif
</glyph>
<glyph name="i" format="2">
	<advance width="248"/>
	<unicode hex="0069"/>
	<anchor x="139" y="0" name="bottom"/>
	<outline>
		<component base="idotless" xOffset="15"/>
		<contour>
			<point x="123" y="650" type="curve" smooth="yes"/>
			<point x="157" y="650"/>
			<point x="186" y="678"/>
			<point x="186" y="712" type="curve" smooth="yes"/>
			<point x="186" y="746"/>
			<point x="157" y="774"/>
			<point x="123" y="774" type="curve" smooth="yes"/>
			<point x="89" y="774"/>
			<point x="62" y="746"/>
			<point x="62" y="712" type="curve" smooth="yes"/>
			<point x="62" y="678"/>
			<point x="89" y="650"/>
		</contour>
	</outline>
</glyph>
<<<<<<< HEAD:CooperativaSans.ufo/glyphs/j.glif
<glyph name="j" format="1">
  <advance width="266"/>
  <unicode hex="006A"/>
  <outline>
    <contour>
      <point x="106" y="-206" type="curve"/>
      <point x="154" y="-166"/>
      <point x="188" y="-88"/>
      <point x="188" y="36" type="curve" smooth="yes"/>
      <point x="188" y="282" type="line"/>
      <point x="194" y="550" type="line"/>
      <point x="87" y="550" type="line"/>
      <point x="95" y="278" type="line"/>
      <point x="95" y="72" type="line" smooth="yes"/>
      <point x="95" y="-53"/>
      <point x="58" y="-108"/>
      <point x="17" y="-156" type="curve"/>
      <point x="34" y="-174"/>
      <point x="77" y="-200"/>
    </contour>
    <contour>
      <point x="141" y="652" type="curve" smooth="yes"/>
      <point x="175" y="652"/>
      <point x="204" y="680"/>
      <point x="204" y="714" type="curve" smooth="yes"/>
      <point x="204" y="748"/>
      <point x="175" y="776"/>
      <point x="141" y="776" type="curve" smooth="yes"/>
      <point x="107" y="776"/>
      <point x="80" y="748"/>
      <point x="80" y="714" type="curve" smooth="yes"/>
      <point x="80" y="680"/>
      <point x="107" y="652"/>
    </contour>
  </outline>
=======
<glyph name="j" format="2">
	<advance width="266"/>
	<unicode hex="006A"/>
	<outline>
		<contour>
			<point x="106" y="-206" type="curve"/>
			<point x="154" y="-166"/>
			<point x="188" y="-88"/>
			<point x="188" y="36" type="curve" smooth="yes"/>
			<point x="188" y="282" type="line"/>
			<point x="194" y="550" type="line"/>
			<point x="87" y="550" type="line"/>
			<point x="95" y="278" type="line"/>
			<point x="95" y="72" type="line" smooth="yes"/>
			<point x="95" y="-55"/>
			<point x="56" y="-100"/>
			<point x="15" y="-148" type="curve"/>
			<point x="33" y="-168"/>
			<point x="77" y="-200"/>
		</contour>
		<contour>
			<point x="139" y="652" type="curve" smooth="yes"/>
			<point x="173" y="652"/>
			<point x="202" y="680"/>
			<point x="202" y="714" type="curve" smooth="yes"/>
			<point x="202" y="748"/>
			<point x="173" y="776"/>
			<point x="139" y="776" type="curve" smooth="yes"/>
			<point x="105" y="776"/>
			<point x="78" y="748"/>
			<point x="78" y="714" type="curve" smooth="yes"/>
			<point x="78" y="680"/>
			<point x="105" y="652"/>
		</contour>
	</outline>
>>>>>>> 64a96ebffaf5013ba58d98fd80efa4318a310ffa:Cooperativa-Sans-Regular.ufo/glyphs/j.glif
</glyph>
<<<<<<< HEAD:CooperativaSans.ufo/glyphs/k.glif
<glyph name="k" format="1">
  <advance width="572"/>
  <unicode hex="006B"/>
  <outline>
    <contour>
      <point x="433" y="0" type="line"/>
      <point x="480" y="0" type="line"/>
      <point x="535" y="0" type="line"/>
      <point x="405" y="188"/>
      <point x="318" y="316" type="curve"/>
      <point x="525" y="551" type="line"/>
      <point x="509" y="557"/>
      <point x="473" y="557" type="curve" smooth="yes"/>
      <point x="443" y="557"/>
      <point x="417" y="551" type="line"/>
      <point x="375" y="499"/>
      <point x="327" y="437"/>
      <point x="261" y="363" type="curve"/>
      <point x="157" y="363" type="line"/>
      <point x="157" y="273" type="line"/>
      <point x="256" y="273" type="line"/>
      <point x="327" y="169"/>
    </contour>
    <contour>
      <point x="79" y="0" type="curve"/>
      <point x="135" y="0" type="line"/>
      <point x="191" y="0" type="line"/>
      <point x="191" y="0"/>
      <point x="174" y="145"/>
      <point x="174" y="300" type="curve" smooth="yes"/>
      <point x="174" y="392"/>
      <point x="175" y="434"/>
      <point x="175" y="526" type="curve" smooth="yes"/>
      <point x="180" y="751" type="line"/>
      <point x="180" y="751"/>
      <point x="160" y="753"/>
      <point x="130" y="753" type="curve" smooth="yes"/>
      <point x="100" y="753"/>
      <point x="80" y="751"/>
      <point x="80" y="751" type="curve"/>
      <point x="83" y="688"/>
      <point x="84" y="645"/>
      <point x="84" y="526" type="curve" smooth="yes"/>
      <point x="84" y="286" type="line" smooth="yes"/>
      <point x="84" y="160"/>
      <point x="79" y="0"/>
    </contour>
  </outline>
=======
<glyph name="k" format="2">
	<advance width="555"/>
	<unicode hex="006B"/>
	<anchor x="278" y="800" name="top"/>
	<anchor x="278" y="0" name="bottom"/>
	<outline>
		<contour>
			<point x="387" y="0" type="curve"/>
			<point x="518" y="0" type="line"/>
			<point x="518" y="0"/>
			<point x="399" y="188"/>
			<point x="312" y="316" type="curve"/>
			<point x="525" y="557" type="line"/>
			<point x="525" y="557"/>
			<point x="497" y="561"/>
			<point x="461" y="561" type="curve" smooth="yes"/>
			<point x="431" y="561"/>
			<point x="400" y="557"/>
			<point x="400" y="557" type="curve"/>
			<point x="361" y="508"/>
			<point x="308" y="447"/>
			<point x="239" y="363" type="curve"/>
			<point x="140" y="363" type="line"/>
			<point x="140" y="273" type="line"/>
			<point x="239" y="273" type="line"/>
			<point x="310" y="169"/>
			<point x="387" y="0"/>
		</contour>
		<contour>
			<point x="62" y="0" type="curve"/>
			<point x="174" y="0" type="line"/>
			<point x="174" y="0"/>
			<point x="157" y="145"/>
			<point x="157" y="300" type="curve" smooth="yes"/>
			<point x="157" y="392"/>
			<point x="158" y="434"/>
			<point x="158" y="526" type="curve" smooth="yes"/>
			<point x="163" y="751" type="line"/>
			<point x="163" y="751"/>
			<point x="143" y="753"/>
			<point x="113" y="753" type="curve" smooth="yes"/>
			<point x="83" y="753"/>
			<point x="63" y="751"/>
			<point x="63" y="751" type="curve"/>
			<point x="66" y="688"/>
			<point x="67" y="645"/>
			<point x="67" y="526" type="curve" smooth="yes"/>
			<point x="67" y="286" type="line" smooth="yes"/>
			<point x="67" y="160"/>
			<point x="62" y="0"/>
		</contour>
	</outline>
>>>>>>> 64a96ebffaf5013ba58d98fd80efa4318a310ffa:Cooperativa-Sans-Regular.ufo/glyphs/k.glif
</glyph>
<glyph name="l" format="2">
	<advance width="245"/>
	<unicode hex="006C"/>
	<anchor x="125" y="800" name="top"/>
	<anchor x="125" y="0" name="bottom"/>
	<anchor x="125" y="400" name="center"/>
	<anchor x="225" y="800" name="topright"/>
	<outline>
		<contour>
			<point x="112" y="-19" type="curve"/>
			<point x="150" y="-13"/>
			<point x="182" y="-3"/>
			<point x="205" y="21" type="curve"/>
			<point x="169" y="68"/>
			<point x="156" y="124"/>
			<point x="156" y="249" type="curve" smooth="yes"/>
			<point x="156" y="433"/>
			<point x="158" y="616"/>
			<point x="160" y="800" type="curve"/>
			<point x="160" y="800"/>
			<point x="136" y="802"/>
			<point x="112" y="802" type="curve" smooth="yes"/>
			<point x="82" y="802"/>
			<point x="62" y="800"/>
			<point x="62" y="800" type="curve"/>
			<point x="64" y="604"/>
			<point x="66" y="409"/>
			<point x="66" y="213" type="curve" smooth="yes"/>
			<point x="66" y="89"/>
			<point x="78" y="26"/>
		</contour>
	</outline>
</glyph>
<glyph name="m" format="2">
	<advance width="887"/>
	<unicode hex="006D"/>
	<anchor x="451" y="550" name="top"/>
	<anchor x="451" y="0" name="bottom"/>
	<outline>
		<contour>
			<point x="62" y="0"/>
			<point x="171" y="0"/>
			<point x="171" y="0" type="curve"/>
			<point x="171" y="0"/>
			<point x="157" y="104"/>
			<point x="157" y="290" type="curve" smooth="yes"/>
			<point x="157" y="412"/>
			<point x="169" y="461"/>
			<point x="169" y="461" type="curve"/>
			<point x="120" y="550" type="line"/>
			<point x="63" y="550" type="line"/>
			<point x="63" y="550"/>
			<point x="67" y="397"/>
			<point x="67" y="286" type="curve" smooth="yes"/>
			<point x="67" y="160"/>
			<point x="62" y="0"/>
			<point x="62" y="0" type="curve"/>
		</contour>
		<contour>
			<point x="385" y="0" type="curve"/>
			<point x="494" y="0" type="line"/>
			<point x="491" y="30"/>
			<point x="484" y="90"/>
			<point x="484" y="152" type="curve" smooth="yes"/>
			<point x="484" y="364" type="line" smooth="yes"/>
			<point x="484" y="498"/>
			<point x="442" y="566"/>
			<point x="319" y="566" type="curve" smooth="yes"/>
			<point x="188" y="566"/>
			<point x="110" y="451"/>
			<point x="110" y="451" type="curve"/>
			<point x="146" y="416" type="line"/>
			<point x="146" y="406"/>
			<point x="208" y="477"/>
			<point x="286" y="477" type="curve" smooth="yes"/>
			<point x="366" y="477"/>
			<point x="394" y="423"/>
			<point x="394" y="329" type="curve" smooth="yes"/>
			<point x="394" y="152" type="line" smooth="yes"/>
			<point x="394" y="86"/>
			<point x="388" y="33"/>
		</contour>
		<contour>
			<point x="752" y="-22" type="curve"/>
			<point x="796" y="-18"/>
			<point x="832" y="4"/>
			<point x="842" y="25" type="curve"/>
			<point x="842" y="25"/>
			<point x="816" y="58"/>
			<point x="816" y="149" type="curve" smooth="yes"/>
			<point x="816" y="349" type="line" smooth="yes"/>
			<point x="816" y="495"/>
			<point x="776" y="563"/>
			<point x="661" y="563" type="curve" smooth="yes"/>
			<point x="524" y="563"/>
			<point x="442" y="448"/>
			<point x="442" y="448" type="curve"/>
			<point x="478" y="413" type="line"/>
			<point x="478" y="403"/>
			<point x="544" y="474"/>
			<point x="628" y="474" type="curve" smooth="yes"/>
			<point x="701" y="474"/>
			<point x="726" y="420"/>
			<point x="726" y="326" type="curve" smooth="yes"/>
			<point x="726" y="127" type="line" smooth="yes"/>
			<point x="726" y="83"/>
			<point x="732" y="6"/>
		</contour>
	</outline>
</glyph>
<<<<<<< HEAD:CooperativaSans.ufo/glyphs/n.glif
<glyph name="n" format="1">
  <advance width="567"/>
  <unicode hex="006E"/>
  <outline>
    <contour>
      <point x="434" y="-19" type="curve"/>
      <point x="478" y="-15"/>
      <point x="514" y="7"/>
      <point x="524" y="28" type="curve"/>
      <point x="524" y="28"/>
      <point x="498" y="61"/>
      <point x="498" y="152" type="curve" smooth="yes"/>
      <point x="498" y="329" type="line" smooth="yes"/>
      <point x="498" y="502"/>
      <point x="460" y="566"/>
      <point x="333" y="566" type="curve" smooth="yes"/>
      <point x="215" y="566"/>
      <point x="114" y="461"/>
      <point x="114" y="461" type="curve"/>
      <point x="150" y="416" type="line"/>
      <point x="150" y="416"/>
      <point x="214" y="477"/>
      <point x="305" y="477" type="curve" smooth="yes"/>
      <point x="380" y="477"/>
      <point x="408" y="420"/>
      <point x="408" y="329" type="curve" smooth="yes"/>
      <point x="408" y="130" type="line" smooth="yes"/>
      <point x="408" y="86"/>
      <point x="414" y="9"/>
    </contour>
    <contour>
      <point x="123" y="-4" type="curve" smooth="yes"/>
      <point x="158" y="-4"/>
      <point x="177" y="0"/>
      <point x="177" y="0" type="curve"/>
      <point x="177" y="0"/>
      <point x="160" y="104"/>
      <point x="160" y="290" type="curve" smooth="yes"/>
      <point x="160" y="412"/>
      <point x="172" y="461"/>
      <point x="172" y="461" type="curve"/>
      <point x="123" y="550" type="line"/>
      <point x="66" y="550" type="line"/>
      <point x="66" y="550"/>
      <point x="70" y="397"/>
      <point x="70" y="286" type="curve" smooth="yes"/>
      <point x="70" y="160"/>
      <point x="68" y="0"/>
      <point x="68" y="0" type="curve"/>
      <point x="68" y="0"/>
      <point x="92" y="-4"/>
    </contour>
  </outline>
=======
<glyph name="n" format="2">
	<advance width="565"/>
	<unicode hex="006E"/>
	<anchor x="282" y="550" name="top"/>
	<anchor x="282" y="0" name="bottom"/>
	<outline>
		<contour>
			<point x="430" y="-19" type="curve"/>
			<point x="474" y="-15"/>
			<point x="510" y="7"/>
			<point x="520" y="28" type="curve"/>
			<point x="520" y="28"/>
			<point x="494" y="61"/>
			<point x="494" y="152" type="curve" smooth="yes"/>
			<point x="494" y="329" type="line" smooth="yes"/>
			<point x="494" y="502"/>
			<point x="456" y="566"/>
			<point x="329" y="566" type="curve" smooth="yes"/>
			<point x="211" y="566"/>
			<point x="110" y="461"/>
			<point x="110" y="461" type="curve"/>
			<point x="146" y="416" type="line"/>
			<point x="146" y="416"/>
			<point x="210" y="477"/>
			<point x="301" y="477" type="curve" smooth="yes"/>
			<point x="376" y="477"/>
			<point x="404" y="420"/>
			<point x="404" y="329" type="curve" smooth="yes"/>
			<point x="404" y="130" type="line" smooth="yes"/>
			<point x="404" y="86"/>
			<point x="410" y="9"/>
		</contour>
		<contour>
			<point x="119" y="-4" type="curve" smooth="yes"/>
			<point x="154" y="-4"/>
			<point x="173" y="0"/>
			<point x="173" y="0" type="curve"/>
			<point x="173" y="0"/>
			<point x="156" y="104"/>
			<point x="156" y="290" type="curve" smooth="yes"/>
			<point x="156" y="412"/>
			<point x="168" y="461"/>
			<point x="168" y="461" type="curve"/>
			<point x="119" y="550" type="line"/>
			<point x="62" y="550" type="line"/>
			<point x="62" y="550"/>
			<point x="66" y="397"/>
			<point x="66" y="286" type="curve" smooth="yes"/>
			<point x="66" y="160"/>
			<point x="64" y="0"/>
			<point x="64" y="0" type="curve"/>
			<point x="64" y="0"/>
			<point x="88" y="-4"/>
		</contour>
	</outline>
>>>>>>> 64a96ebffaf5013ba58d98fd80efa4318a310ffa:Cooperativa-Sans-Regular.ufo/glyphs/n.glif
</glyph>
<<<<<<< HEAD:CooperativaSans.ufo/glyphs/o.glif
<glyph name="o" format="1">
  <advance width="578"/>
  <unicode hex="006F"/>
  <outline>
    <contour>
      <point x="289" y="-16" type="curve" smooth="yes"/>
      <point x="442" y="-16"/>
      <point x="538" y="85"/>
      <point x="538" y="275" type="curve" smooth="yes"/>
      <point x="538" y="465"/>
      <point x="442" y="566"/>
      <point x="289" y="566" type="curve" smooth="yes"/>
      <point x="136" y="566"/>
      <point x="40" y="465"/>
      <point x="40" y="275" type="curve" smooth="yes"/>
      <point x="40" y="85"/>
      <point x="136" y="-16"/>
    </contour>
    <contour>
      <point x="289" y="64" type="curve" smooth="yes"/>
      <point x="211" y="64"/>
      <point x="139" y="125"/>
      <point x="139" y="275" type="curve" smooth="yes"/>
      <point x="139" y="425"/>
      <point x="211" y="486"/>
      <point x="289" y="486" type="curve" smooth="yes"/>
      <point x="367" y="486"/>
      <point x="439" y="425"/>
      <point x="439" y="275" type="curve" smooth="yes"/>
      <point x="439" y="125"/>
      <point x="366" y="64"/>
    </contour>
  </outline>
=======
<glyph name="o" format="2">
	<advance width="578"/>
	<unicode hex="006F"/>
	<anchor x="289" y="587" name="Top"/>
	<anchor x="289" y="550" name="top"/>
	<anchor x="289" y="0" name="bottom"/>
	<anchor x="289" y="275" name="center"/>
	<anchor x="558" y="550" name="topright"/>
	<anchor x="520" y="10" name="ogonek"/>
	<outline>
		<contour>
			<point x="289" y="-16" type="curve" smooth="yes"/>
			<point x="442" y="-16"/>
			<point x="538" y="85"/>
			<point x="538" y="275" type="curve" smooth="yes"/>
			<point x="538" y="465"/>
			<point x="442" y="566"/>
			<point x="289" y="566" type="curve" smooth="yes"/>
			<point x="136" y="566"/>
			<point x="40" y="465"/>
			<point x="40" y="275" type="curve" smooth="yes"/>
			<point x="40" y="85"/>
			<point x="136" y="-16"/>
		</contour>
		<contour>
			<point x="289" y="64" type="curve" smooth="yes"/>
			<point x="211" y="64"/>
			<point x="139" y="125"/>
			<point x="139" y="275" type="curve" smooth="yes"/>
			<point x="139" y="425"/>
			<point x="211" y="486"/>
			<point x="289" y="486" type="curve" smooth="yes"/>
			<point x="367" y="486"/>
			<point x="439" y="425"/>
			<point x="439" y="275" type="curve" smooth="yes"/>
			<point x="439" y="125"/>
			<point x="366" y="64"/>
		</contour>
	</outline>
>>>>>>> 64a96ebffaf5013ba58d98fd80efa4318a310ffa:Cooperativa-Sans-Regular.ufo/glyphs/o.glif
</glyph>
<<<<<<< HEAD:CooperativaSans.ufo/glyphs/q.glif
<glyph name="q" format="1">
  <advance width="562"/>
  <unicode hex="0071"/>
  <outline>
    <contour>
      <point x="276" y="-16" type="curve" smooth="yes"/>
      <point x="404" y="-16"/>
      <point x="474" y="100"/>
      <point x="474" y="223" type="curve"/>
      <point x="415" y="215" type="line"/>
      <point x="415" y="128"/>
      <point x="351" y="64"/>
      <point x="283" y="64" type="curve" smooth="yes"/>
      <point x="214" y="64"/>
      <point x="140" y="136"/>
      <point x="140" y="275" type="curve" smooth="yes"/>
      <point x="140" y="391"/>
      <point x="186" y="485"/>
      <point x="284" y="485" type="curve" smooth="yes"/>
      <point x="375" y="485"/>
      <point x="415" y="406"/>
      <point x="415" y="341" type="curve"/>
      <point x="476" y="349" type="line"/>
      <point x="476" y="425"/>
      <point x="424" y="566"/>
      <point x="273" y="566" type="curve" smooth="yes"/>
      <point x="142" y="566"/>
      <point x="42" y="460"/>
      <point x="42" y="275" type="curve" smooth="yes"/>
      <point x="42" y="77"/>
      <point x="157" y="-16"/>
    </contour>
    <contour>
      <point x="485" y="-216" type="curve"/>
      <point x="505" y="-188"/>
      <point x="505" y="-99"/>
      <point x="505" y="-55" type="curve" smooth="yes"/>
      <point x="505" y="553" type="line"/>
      <point x="449" y="553" type="line"/>
      <point x="415" y="488" type="line"/>
      <point x="415" y="-45" type="line" smooth="yes"/>
      <point x="415" y="-120"/>
      <point x="396" y="-185"/>
      <point x="396" y="-185" type="curve"/>
      <point x="410" y="-205"/>
      <point x="446" y="-216"/>
    </contour>
  </outline>
=======
<glyph name="q" format="2">
	<advance width="562"/>
	<unicode hex="0071"/>
	<anchor x="281" y="550" name="top"/>
	<anchor x="281" y="0" name="bottom"/>
	<outline>
		<contour>
			<point x="276" y="-16" type="curve" smooth="yes"/>
			<point x="404" y="-16"/>
			<point x="474" y="100"/>
			<point x="474" y="223" type="curve"/>
			<point x="415" y="215" type="line"/>
			<point x="415" y="128"/>
			<point x="351" y="64"/>
			<point x="283" y="64" type="curve" smooth="yes"/>
			<point x="214" y="64"/>
			<point x="140" y="136"/>
			<point x="140" y="275" type="curve" smooth="yes"/>
			<point x="140" y="391"/>
			<point x="186" y="485"/>
			<point x="284" y="485" type="curve" smooth="yes"/>
			<point x="375" y="485"/>
			<point x="415" y="406"/>
			<point x="415" y="341" type="curve"/>
			<point x="476" y="349" type="line"/>
			<point x="476" y="425"/>
			<point x="424" y="566"/>
			<point x="273" y="566" type="curve" smooth="yes"/>
			<point x="142" y="566"/>
			<point x="42" y="460"/>
			<point x="42" y="275" type="curve" smooth="yes"/>
			<point x="42" y="77"/>
			<point x="157" y="-16"/>
		</contour>
		<contour>
			<point x="485" y="-216" type="curve"/>
			<point x="505" y="-188"/>
			<point x="505" y="-99"/>
			<point x="505" y="-55" type="curve" smooth="yes"/>
			<point x="505" y="553" type="line"/>
			<point x="449" y="553" type="line"/>
			<point x="415" y="488" type="line"/>
			<point x="415" y="-45" type="line" smooth="yes"/>
			<point x="415" y="-120"/>
			<point x="396" y="-185"/>
			<point x="396" y="-185" type="curve"/>
			<point x="410" y="-205"/>
			<point x="446" y="-216"/>
		</contour>
	</outline>
>>>>>>> 64a96ebffaf5013ba58d98fd80efa4318a310ffa:Cooperativa-Sans-Regular.ufo/glyphs/q.glif
</glyph>
<glyph name="r" format="2">
  <advance width="380"/>
  <unicode hex="0072"/>
  <anchor x="196" y="550" name="top"/>
  <anchor x="196" y="0" name="bottom"/>
  <outline>
    <contour>
      <point x="123" y="-2" type="curve" smooth="yes"/>
      <point x="158" y="-2"/>
      <point x="182" y="0"/>
      <point x="182" y="0" type="curve"/>
      <point x="182" y="0"/>
      <point x="166" y="104"/>
      <point x="166" y="290" type="curve" smooth="yes"/>
      <point x="166" y="481" type="line"/>
      <point x="129" y="550" type="line"/>
      <point x="72" y="550" type="line"/>
      <point x="72" y="550"/>
      <point x="76" y="408"/>
      <point x="76" y="269" type="curve" smooth="yes"/>
      <point x="76" y="171"/>
      <point x="70" y="0"/>
      <point x="70" y="0" type="curve"/>
      <point x="70" y="0"/>
      <point x="92" y="-2"/>
    </contour>
    <contour>
      <point x="166" y="321" type="line"/>
      <point x="166" y="414"/>
      <point x="204" y="480"/>
      <point x="270" y="480" type="curve" smooth="yes"/>
      <point x="313" y="480"/>
      <point x="335" y="453"/>
      <point x="335" y="453" type="curve"/>
      <point x="354" y="471"/>
      <point x="372" y="505"/>
      <point x="377" y="534" type="curve"/>
      <point x="377" y="534"/>
      <point x="340" y="566"/>
      <point x="283" y="566" type="curve" smooth="yes"/>
      <point x="182" y="566"/>
      <point x="128" y="465"/>
      <point x="118" y="340" type="curve"/>
    </contour>
  </outline>
</glyph>
<<<<<<< HEAD:CooperativaSans.ufo/glyphs/s.glif
<glyph name="s" format="1">
  <advance width="525"/>
  <unicode hex="0073"/>
  <outline>
    <contour>
      <point x="268" y="-15" type="curve" smooth="yes"/>
      <point x="400" y="-15"/>
      <point x="485" y="51"/>
      <point x="485" y="147" type="curve" smooth="yes"/>
      <point x="485" y="238"/>
      <point x="393" y="284"/>
      <point x="312" y="323" type="curve" smooth="yes"/>
      <point x="250" y="353"/>
      <point x="184" y="374"/>
      <point x="184" y="413" type="curve" smooth="yes"/>
      <point x="184" y="457"/>
      <point x="220" y="479"/>
      <point x="269" y="479" type="curve" smooth="yes"/>
      <point x="376" y="479"/>
      <point x="426" y="441"/>
      <point x="426" y="441" type="curve"/>
      <point x="426" y="441"/>
      <point x="440" y="457"/>
      <point x="440" y="494" type="curve" smooth="yes"/>
      <point x="440" y="518"/>
      <point x="434" y="528"/>
      <point x="434" y="528" type="curve"/>
      <point x="434" y="528"/>
      <point x="372" y="566"/>
      <point x="269" y="566" type="curve" smooth="yes"/>
      <point x="157" y="566"/>
      <point x="76" y="505"/>
      <point x="76" y="401" type="curve" smooth="yes"/>
      <point x="76" y="313"/>
      <point x="179" y="279"/>
      <point x="261" y="238" type="curve" smooth="yes"/>
      <point x="321" y="208"/>
      <point x="377" y="175"/>
      <point x="377" y="137" type="curve" smooth="yes"/>
      <point x="377" y="92"/>
      <point x="330" y="72"/>
      <point x="268" y="72" type="curve" smooth="yes"/>
      <point x="160" y="72"/>
      <point x="80" y="127"/>
      <point x="80" y="127" type="curve"/>
      <point x="80" y="127"/>
      <point x="66" y="111"/>
      <point x="66" y="75" type="curve" smooth="yes"/>
      <point x="66" y="51"/>
      <point x="72" y="41"/>
      <point x="72" y="41" type="curve"/>
      <point x="72" y="41"/>
      <point x="154" y="-15"/>
    </contour>
  </outline>
=======
<glyph name="s" format="2">
	<advance width="525"/>
	<unicode hex="0073"/>
	<anchor x="263" y="550" name="top"/>
	<anchor x="263" y="0" name="bottom"/>
	<outline>
		<contour>
			<point x="263" y="-9" type="curve" smooth="yes"/>
			<point x="386" y="-9"/>
			<point x="469" y="54"/>
			<point x="469" y="144" type="curve" smooth="yes"/>
			<point x="469" y="240"/>
			<point x="373" y="294"/>
			<point x="296" y="331" type="curve" smooth="yes"/>
			<point x="223" y="366"/>
			<point x="176" y="376"/>
			<point x="172" y="428" type="curve" smooth="yes"/>
			<point x="168" y="472"/>
			<point x="198" y="494"/>
			<point x="261" y="494" type="curve" smooth="yes"/>
			<point x="348" y="494"/>
			<point x="396" y="452"/>
			<point x="396" y="452" type="curve"/>
			<point x="396" y="452"/>
			<point x="411" y="468"/>
			<point x="420" y="487" type="curve" smooth="yes"/>
			<point x="429" y="506"/>
			<point x="433" y="527"/>
			<point x="433" y="527" type="curve"/>
			<point x="433" y="529"/>
			<point x="363" y="566"/>
			<point x="267" y="566" type="curve" smooth="yes"/>
			<point x="155" y="566"/>
			<point x="75" y="515"/>
			<point x="75" y="428" type="curve" smooth="yes"/>
			<point x="75" y="326"/>
			<point x="186" y="283"/>
			<point x="253" y="254" type="curve" smooth="yes"/>
			<point x="297" y="235"/>
			<point x="375" y="203"/>
			<point x="375" y="144" type="curve" smooth="yes"/>
			<point x="375" y="106"/>
			<point x="342" y="65"/>
			<point x="268" y="65" type="curve" smooth="yes"/>
			<point x="171" y="65"/>
			<point x="96" y="135"/>
			<point x="96" y="135" type="curve"/>
			<point x="96" y="135"/>
			<point x="85" y="129"/>
			<point x="69" y="103" type="curve" smooth="yes"/>
			<point x="55" y="81"/>
			<point x="50" y="62"/>
			<point x="50" y="62" type="curve"/>
			<point x="50" y="62"/>
			<point x="133" y="-9"/>
		</contour>
	</outline>
>>>>>>> 64a96ebffaf5013ba58d98fd80efa4318a310ffa:Cooperativa-Sans-Regular.ufo/glyphs/s.glif
</glyph>
<glyph name="t" format="2">
  <advance width="395"/>
  <unicode hex="0074"/>
  <anchor x="219" y="550" name="top"/>
  <anchor x="219" y="0" name="bottom"/>
  <anchor x="219" y="275" name="center"/>
  <anchor x="420" y="800" name="topright"/>
  <outline>
    <contour>
      <point x="360" y="468" type="curve"/>
      <point x="365" y="492"/>
      <point x="366" y="534"/>
      <point x="360" y="556" type="curve"/>
      <point x="360" y="556"/>
      <point x="290" y="550"/>
      <point x="172" y="550" type="curve" smooth="yes"/>
      <point x="8" y="550" type="line"/>
      <point x="4" y="525"/>
      <point x="4" y="500"/>
      <point x="8" y="473" type="curve"/>
      <point x="177" y="473" type="line" smooth="yes"/>
      <point x="313" y="473"/>
      <point x="360" y="468"/>
    </contour>
    <contour>
      <point x="390" y="22" type="curve"/>
      <point x="386" y="46"/>
      <point x="375" y="80"/>
      <point x="356" y="98" type="curve"/>
      <point x="336" y="81"/>
      <point x="310" y="66"/>
      <point x="271" y="66" type="curve" smooth="yes"/>
      <point x="206" y="66"/>
      <point x="180" y="124"/>
      <point x="180" y="199" type="curve" smooth="yes"/>
      <point x="180" y="326"/>
      <point x="179" y="558"/>
      <point x="184" y="680" type="curve"/>
      <point x="184" y="680"/>
      <point x="164" y="682"/>
      <point x="134" y="682" type="curve" smooth="yes"/>
      <point x="104" y="682"/>
      <point x="84" y="680"/>
      <point x="84" y="680" type="curve"/>
      <point x="86" y="579"/>
      <point x="90" y="244"/>
      <point x="90" y="189" type="curve" smooth="yes"/>
      <point x="90" y="37"/>
      <point x="143" y="-17"/>
      <point x="252" y="-17" type="curve" smooth="yes"/>
      <point x="292" y="-17"/>
      <point x="350" y="-5"/>
    </contour>
  </outline>
</glyph>
<glyph name="u" format="2">
	<advance width="586"/>
	<unicode hex="0075"/>
	<anchor x="301" y="550" name="top"/>
	<anchor x="301" y="0" name="bottom"/>
	<anchor x="525" y="10" name="ogonek"/>
	<anchor x="561" y="550" name="topright"/>
	<outline>
		<contour>
			<point x="451" y="-19" type="curve"/>
			<point x="495" y="-15"/>
			<point x="531" y="7"/>
			<point x="541" y="28" type="curve"/>
			<point x="541" y="28"/>
			<point x="515" y="61"/>
			<point x="515" y="152" type="curve" smooth="yes"/>
			<point x="515" y="281" type="line"/>
			<point x="520" y="550" type="line"/>
			<point x="520" y="550"/>
			<point x="500" y="552"/>
			<point x="470" y="552" type="curve" smooth="yes"/>
			<point x="440" y="552"/>
			<point x="420" y="550"/>
			<point x="420" y="550" type="curve"/>
			<point x="423" y="487"/>
			<point x="425" y="386"/>
			<point x="425" y="281" type="curve" smooth="yes"/>
			<point x="425" y="134" type="line" smooth="yes"/>
			<point x="425" y="90"/>
			<point x="431" y="9"/>
		</contour>
		<contour>
			<point x="171" y="550" type="curve"/>
			<point x="149" y="556"/>
			<point x="89" y="557"/>
			<point x="70" y="551" type="curve"/>
			<point x="72" y="509"/>
			<point x="72" y="456"/>
			<point x="73" y="395" type="curve" smooth="yes"/>
			<point x="75" y="199" type="line" smooth="yes"/>
			<point x="76" y="53"/>
			<point x="122" y="-15"/>
			<point x="240" y="-15" type="curve" smooth="yes"/>
			<point x="377" y="-15"/>
			<point x="461" y="100"/>
			<point x="461" y="100" type="curve"/>
			<point x="449" y="110"/>
			<point x="437" y="121"/>
			<point x="425" y="131" type="curve"/>
			<point x="413" y="123"/>
			<point x="357" y="74"/>
			<point x="273" y="74" type="curve" smooth="yes"/>
			<point x="193" y="74"/>
			<point x="164" y="128"/>
			<point x="165" y="222" type="curve" smooth="yes"/>
			<point x="167" y="396" type="line" smooth="yes"/>
			<point x="168" y="440"/>
			<point x="171" y="512"/>
		</contour>
	</outline>
</glyph>
<glyph name="v" format="2">
	<advance width="523"/>
	<unicode hex="0076"/>
	<anchor x="262" y="550" name="top"/>
	<anchor x="262" y="0" name="bottom"/>
	<outline>
		<contour>
			<point x="215" y="0" type="line"/>
			<point x="321" y="0" type="line"/>
			<point x="503" y="550" type="line"/>
			<point x="503" y="550"/>
			<point x="495" y="555"/>
			<point x="454" y="555" type="curve" smooth="yes"/>
			<point x="404" y="555"/>
			<point x="399" y="550"/>
			<point x="399" y="550" type="curve"/>
			<point x="304" y="209" type="line"/>
			<point x="250" y="47" type="line"/>
			<point x="227" y="57" type="line"/>
		</contour>
		<contour>
			<point x="202" y="0" type="line"/>
			<point x="308" y="0" type="line"/>
			<point x="296" y="57" type="line"/>
			<point x="273" y="47" type="line"/>
			<point x="217" y="210" type="line"/>
			<point x="125" y="550" type="line"/>
			<point x="125" y="550"/>
			<point x="120" y="555"/>
			<point x="70" y="555" type="curve" smooth="yes"/>
			<point x="29" y="555"/>
			<point x="21" y="550"/>
			<point x="21" y="550" type="curve"/>
		</contour>
	</outline>
</glyph>
<glyph name="w" format="2">
	<advance width="791"/>
	<unicode hex="0077"/>
	<anchor x="396" y="550" name="top"/>
	<anchor x="396" y="0" name="bottom"/>
	<outline>
		<contour>
			<point x="525" y="0" type="line"/>
			<point x="621" y="0" type="line"/>
			<point x="771" y="550" type="line"/>
			<point x="739" y="560"/>
			<point x="706" y="562"/>
			<point x="672" y="550" type="curve"/>
			<point x="600" y="275" type="line"/>
			<point x="559" y="47" type="line"/>
			<point x="527" y="57" type="line"/>
		</contour>
		<contour>
			<point x="171" y="0" type="line"/>
			<point x="267" y="0" type="line"/>
			<point x="265" y="57" type="line"/>
			<point x="233" y="47" type="line"/>
			<point x="192" y="275" type="line"/>
			<point x="120" y="550" type="line"/>
			<point x="85" y="560"/>
			<point x="53" y="557"/>
			<point x="21" y="550" type="curve"/>
		</contour>
		<contour>
			<point x="189" y="0" type="line"/>
			<point x="290" y="0" type="line"/>
			<point x="338" y="211" type="line"/>
			<point x="396" y="477" type="line"/>
			<point x="431" y="550" type="line"/>
			<point x="339" y="550" type="line"/>
			<point x="266" y="249" type="line"/>
			<point x="223" y="47" type="line"/>
			<point x="201" y="57" type="line"/>
		</contour>
		<contour>
			<point x="502" y="0" type="line"/>
			<point x="603" y="0" type="line"/>
			<point x="591" y="57" type="line"/>
			<point x="569" y="47" type="line"/>
			<point x="526" y="249" type="line"/>
			<point x="453" y="550" type="line"/>
			<point x="361" y="550" type="line"/>
			<point x="396" y="477" type="line"/>
			<point x="454" y="211" type="line"/>
		</contour>
	</outline>
</glyph>
<glyph name="y" format="2">
	<advance width="540"/>
	<unicode hex="0079"/>
	<outline>
		<contour>
			<point x="209" y="-209" type="curve"/>
			<point x="209" y="-209"/>
			<point x="266" y="-170"/>
			<point x="311" y="-65" type="curve" smooth="yes"/>
			<point x="348" y="22"/>
			<point x="349" y="39"/>
			<point x="427" y="275" type="curve" smooth="yes"/>
			<point x="498" y="490"/>
			<point x="520" y="550"/>
			<point x="520" y="550" type="curve"/>
			<point x="520" y="550"/>
			<point x="501" y="558"/>
			<point x="466" y="558" type="curve" smooth="yes"/>
			<point x="431" y="558"/>
			<point x="421" y="550"/>
			<point x="421" y="550" type="curve"/>
			<point x="255" y="13" type="line" smooth="yes"/>
			<point x="226" y="-81"/>
			<point x="180" y="-123"/>
			<point x="138" y="-143" type="curve" smooth="yes"/>
			<point x="133" y="-145"/>
			<point x="144" y="-171"/>
			<point x="162" y="-189" type="curve" smooth="yes"/>
			<point x="180" y="-207"/>
			<point x="209" y="-209"/>
		</contour>
		<contour>
			<point x="250" y="-6" type="line"/>
			<point x="250" y="-6"/>
			<point x="284" y="76"/>
			<point x="292" y="109" type="curve"/>
			<point x="130" y="550" type="line" smooth="yes"/>
			<point x="130" y="550"/>
			<point x="120" y="558"/>
			<point x="73" y="558" type="curve" smooth="yes"/>
			<point x="38" y="558"/>
			<point x="21" y="550"/>
			<point x="21" y="550" type="curve"/>
		</contour>
	</outline>
</glyph>
<glyph name="z" format="2">
  <advance width="513"/>
  <unicode hex="007A"/>
  <anchor x="257" y="550" name="top"/>
  <anchor x="257" y="0" name="bottom"/>
  <anchor x="257" y="275" name="center"/>
  <outline>
    <contour>
      <point x="456" y="-4" type="move"/>
      <point x="464" y="20"/>
      <point x="464" y="79"/>
      <point x="458" y="98" type="curve"/>
    </contour>
  </outline>
</glyph>
<<<<<<< HEAD:CooperativaSans.ufo/glyphs/acute.glif
<glyph name="acute" format="1">
  <advance width="310"/>
  <unicode hex="00B4"/>
  <outline>
    <contour>
      <point x="53" y="614" type="curve"/>
      <point x="284" y="724" type="line"/>
      <point x="290" y="762"/>
      <point x="261" y="806"/>
      <point x="225" y="806" type="curve"/>
      <point x="28" y="650" type="line"/>
      <point x="29" y="639"/>
      <point x="44" y="617"/>
    </contour>
  </outline>
=======
<glyph name="acute" format="2">
	<advance width="310"/>
	<unicode hex="00B4"/>
	<anchor x="68" y="583" name="_Top"/>
	<outline>
		<contour>
			<point x="53" y="614" type="curve"/>
			<point x="284" y="724" type="line"/>
			<point x="290" y="762"/>
			<point x="261" y="806"/>
			<point x="225" y="806" type="curve"/>
			<point x="28" y="660" type="line"/>
			<point x="30" y="642"/>
			<point x="39" y="622"/>
		</contour>
	</outline>
>>>>>>> 64a96ebffaf5013ba58d98fd80efa4318a310ffa:Cooperativa-Sans-Regular.ufo/glyphs/acute.glif
</glyph>
<glyph name="questiondown" format="1">
  <advance width="600"/>
  <unicode hex="00BF"/>
  <outline>
    <contour>
      <point x="367.56" y="617.079" type="curve"/>
      <point x="263.359" y="617.079" type="line"/>
      <point x="263.359" y="540.52" type="line" smooth="yes"/>
      <point x="263.359" y="426.84"/>
      <point x="27.3594" y="353.76"/>
      <point x="27.3594" y="180.92" type="curve" smooth="yes"/>
      <point x="27.3594" y="51"/>
      <point x="110.88" y="-36"/>
      <point x="264" y="-36" type="curve" smooth="yes"/>
      <point x="393.92" y="-36"/>
      <point x="482.08" y="64.9199"/>
      <point x="482.08" y="64.9199" type="curve"/>
      <point x="482.08" y="64.9199"/>
      <point x="475.12" y="90.4395"/>
      <point x="461.2" y="111.319" type="curve" smooth="yes"/>
      <point x="443.8" y="136.84"/>
      <point x="420.439" y="155.72"/>
      <point x="420.439" y="155.72" type="curve"/>
      <point x="420.439" y="155.72"/>
      <point x="345.04" y="53.6396"/>
      <point x="268.479" y="53.6396" type="curve" smooth="yes"/>
      <point x="181.479" y="53.6396"/>
      <point x="138.84" y="114.8"/>
      <point x="138.84" y="183.239" type="curve" smooth="yes"/>
      <point x="138.84" y="328.239"/>
      <point x="367.56" y="370"/>
      <point x="367.56" y="494.119" type="curve" smooth="yes"/>
      <point x="367.56" y="602"/>
      <point x="367.56" y="617.079"/>
    </contour>
    <contour>
      <point x="307.72" y="841.56" type="curve" smooth="yes"/>
      <point x="266.72" y="841.56"/>
      <point x="234.72" y="808.56"/>
      <point x="234.72" y="767.56" type="curve" smooth="yes"/>
      <point x="234.72" y="726.56"/>
      <point x="266.72" y="693.56"/>
      <point x="307.72" y="693.56" type="curve" smooth="yes"/>
      <point x="348.72" y="693.56"/>
      <point x="381.72" y="726.56"/>
      <point x="381.72" y="767.56" type="curve" smooth="yes"/>
      <point x="381.72" y="808.56"/>
      <point x="348.72" y="841.56"/>
    </contour>
  </outline>
</glyph>
<<<<<<< HEAD:CooperativaSans.ufo/glyphs/tilde.glif
<glyph name="tilde" format="1">
  <advance width="420"/>
  <unicode hex="02DC"/>
  <outline>
    <contour>
      <point x="276" y="625" type="curve" smooth="yes"/>
      <point x="205" y="625"/>
      <point x="197" y="675"/>
      <point x="140" y="675" type="curve" smooth="yes"/>
      <point x="104" y="675"/>
      <point x="81" y="644"/>
      <point x="76" y="620" type="curve"/>
      <point x="61" y="620"/>
      <point x="43" y="625"/>
      <point x="36" y="640" type="curve"/>
      <point x="36" y="640"/>
      <point x="58" y="758"/>
      <point x="150" y="758" type="curve" smooth="yes"/>
      <point x="224" y="758"/>
      <point x="234" y="708"/>
      <point x="285" y="708" type="curve" smooth="yes"/>
      <point x="326" y="708"/>
      <point x="334" y="742"/>
      <point x="340" y="763" type="curve"/>
      <point x="358" y="762"/>
      <point x="372" y="756"/>
      <point x="380" y="743" type="curve"/>
      <point x="380" y="743"/>
      <point x="364" y="625"/>
    </contour>
  </outline>
=======
<glyph name="tilde" format="2">
	<advance width="420"/>
	<unicode hex="02DC"/>
	<outline>
		<contour>
			<point x="69" y="634" type="curve"/>
			<point x="77" y="658"/>
			<point x="103" y="686"/>
			<point x="139" y="682" type="curve" smooth="yes"/>
			<point x="195" y="676"/>
			<point x="198" y="626"/>
			<point x="269" y="618" type="curve" smooth="yes"/>
			<point x="356" y="609"/>
			<point x="384" y="725"/>
			<point x="384" y="725" type="curve"/>
			<point x="378" y="739"/>
			<point x="365" y="746"/>
			<point x="347" y="749" type="curve"/>
			<point x="339" y="730"/>
			<point x="328" y="700"/>
			<point x="293" y="700" type="curve" smooth="yes"/>
			<point x="236" y="700"/>
			<point x="234" y="756"/>
			<point x="157" y="764" type="curve" smooth="yes"/>
			<point x="66" y="773"/>
			<point x="32" y="658"/>
			<point x="32" y="658" type="curve"/>
			<point x="37" y="643"/>
			<point x="54" y="636"/>
		</contour>
	</outline>
>>>>>>> 64a96ebffaf5013ba58d98fd80efa4318a310ffa:Cooperativa-Sans-Regular.ufo/glyphs/tilde.glif
</glyph>
<glyph name="arrowright" format="2">
	<advance width="691"/>
	<unicode hex="2192"/>
	<outline>
		<contour>
			<point x="591" y="264" type="curve"/>
			<point x="646" y="320" type="line"/>
			<point x="646" y="320"/>
			<point x="589" y="377"/>
			<point x="571" y="396" type="curve"/>
			<point x="522" y="448"/>
			<point x="376" y="603"/>
			<point x="376" y="603" type="curve"/>
			<point x="376" y="603"/>
			<point x="360" y="593"/>
			<point x="338" y="571" type="curve"/>
			<point x="316" y="548"/>
			<point x="302" y="528"/>
			<point x="302" y="528" type="curve"/>
			<point x="302" y="528"/>
			<point x="461" y="386"/>
			<point x="514" y="338" type="curve"/>
			<point x="533" y="320"/>
			<point x="591" y="264"/>
		</contour>
		<contour>
			<point x="51" y="268" type="curve"/>
			<point x="51" y="268"/>
			<point x="320" y="277"/>
			<point x="409" y="280" type="curve"/>
			<point x="443" y="281"/>
			<point x="544" y="282"/>
			<point x="544" y="282" type="curve"/>
			<point x="544" y="360" type="line"/>
			<point x="544" y="360"/>
			<point x="442" y="361"/>
			<point x="408" y="362" type="curve"/>
			<point x="319" y="364"/>
			<point x="50" y="373"/>
			<point x="50" y="373" type="curve"/>
			<point x="50" y="373"/>
			<point x="45" y="354"/>
			<point x="45" y="323" type="curve"/>
			<point x="45" y="291"/>
			<point x="51" y="268"/>
		</contour>
		<contour>
			<point x="376" y="36" type="curve"/>
			<point x="376" y="36"/>
			<point x="522" y="192"/>
			<point x="571" y="243" type="curve"/>
			<point x="589" y="262"/>
			<point x="646" y="319"/>
			<point x="646" y="319" type="curve"/>
			<point x="591" y="375" type="line"/>
			<point x="591" y="375"/>
			<point x="533" y="320"/>
			<point x="514" y="302" type="curve"/>
			<point x="461" y="254"/>
			<point x="302" y="111"/>
			<point x="302" y="111" type="curve"/>
			<point x="302" y="111"/>
			<point x="316" y="91"/>
			<point x="338" y="69" type="curve"/>
			<point x="360" y="46"/>
			<point x="376" y="36"/>
		</contour>
	</outline>
</glyph>
<glyph name="leftRightArrow" format="2">
	<advance width="1063"/>
	<unicode hex="2194"/>
	<outline>
		<contour>
			<point x="956" y="281" type="curve"/>
			<point x="1013" y="340" type="line"/>
			<point x="1013" y="340"/>
			<point x="954" y="400"/>
			<point x="934" y="420" type="curve"/>
			<point x="883" y="474"/>
			<point x="730" y="637"/>
			<point x="730" y="637" type="curve"/>
			<point x="730" y="637"/>
			<point x="714" y="626"/>
			<point x="691" y="602" type="curve"/>
			<point x="667" y="579"/>
			<point x="653" y="558"/>
			<point x="653" y="558" type="curve"/>
			<point x="653" y="558"/>
			<point x="820" y="409"/>
			<point x="875" y="358" type="curve"/>
			<point x="895" y="339"/>
			<point x="956" y="281"/>
		</contour>
		<contour>
			<point x="333" y="42" type="curve"/>
			<point x="333" y="42"/>
			<point x="349" y="53"/>
			<point x="372" y="77" type="curve"/>
			<point x="396" y="100"/>
			<point x="410" y="121"/>
			<point x="410" y="121" type="curve"/>
			<point x="410" y="121"/>
			<point x="244" y="270"/>
			<point x="188" y="321" type="curve"/>
			<point x="168" y="340"/>
			<point x="107" y="398"/>
			<point x="107" y="398" type="curve"/>
			<point x="50" y="339" type="line"/>
			<point x="50" y="339"/>
			<point x="109" y="280"/>
			<point x="129" y="259" type="curve"/>
			<point x="180" y="205"/>
			<point x="333" y="42"/>
		</contour>
		<contour>
			<point x="107" y="281" type="line"/>
			<point x="107" y="281"/>
			<point x="168" y="339"/>
			<point x="188" y="358" type="curve"/>
			<point x="244" y="409"/>
			<point x="410" y="558"/>
			<point x="410" y="558" type="curve"/>
			<point x="410" y="558"/>
			<point x="396" y="579"/>
			<point x="372" y="602" type="curve"/>
			<point x="349" y="626"/>
			<point x="333" y="637"/>
			<point x="333" y="637" type="curve"/>
			<point x="333" y="637"/>
			<point x="180" y="474"/>
			<point x="129" y="420" type="curve"/>
			<point x="109" y="400"/>
			<point x="50" y="340"/>
			<point x="50" y="340" type="curve"/>
		</contour>
		<contour>
			<point x="157" y="297" type="line"/>
			<point x="505" y="296" type="line"/>
			<point x="906" y="298" type="line"/>
			<point x="906" y="380" type="line"/>
			<point x="906" y="380"/>
			<point x="587" y="379"/>
			<point x="497" y="379" type="curve"/>
			<point x="421" y="379"/>
			<point x="157" y="379"/>
			<point x="157" y="379" type="curve"/>
		</contour>
		<contour>
			<point x="730" y="42" type="curve"/>
			<point x="730" y="42"/>
			<point x="883" y="205"/>
			<point x="934" y="259" type="curve"/>
			<point x="954" y="280"/>
			<point x="1013" y="339"/>
			<point x="1013" y="339" type="curve"/>
			<point x="956" y="398" type="line"/>
			<point x="956" y="398"/>
			<point x="895" y="340"/>
			<point x="875" y="321" type="curve"/>
			<point x="820" y="270"/>
			<point x="653" y="121"/>
			<point x="653" y="121" type="curve"/>
			<point x="653" y="121"/>
			<point x="667" y="100"/>
			<point x="691" y="77" type="curve"/>
			<point x="714" y="53"/>
			<point x="730" y="42"/>
		</contour>
	</outline>
</glyph>
<glyph name="upDownArrow" format="2">
  <advance width="695"/>
  <unicode hex="2195"/>
  <outline>
    <contour>
      <point x="289" y="-95" type="curve"/>
      <point x="348" y="-152" type="line"/>
      <point x="348" y="-152"/>
      <point x="408" y="-93"/>
      <point x="428" y="-73" type="curve"/>
      <point x="482" y="-22"/>
      <point x="645" y="131"/>
      <point x="645" y="131" type="curve"/>
      <point x="645" y="131"/>
      <point x="634" y="147"/>
      <point x="610" y="170" type="curve"/>
      <point x="587" y="194"/>
      <point x="566" y="208"/>
      <point x="566" y="208" type="curve"/>
      <point x="566" y="208"/>
      <point x="417" y="41"/>
      <point x="366" y="-14" type="curve"/>
      <point x="347" y="-34"/>
      <point x="289" y="-95"/>
    </contour>
    <contour>
      <point x="50" y="528" type="curve"/>
      <point x="50" y="528"/>
      <point x="61" y="512"/>
      <point x="85" y="489" type="curve"/>
      <point x="108" y="465"/>
      <point x="129" y="451"/>
      <point x="129" y="451" type="curve"/>
      <point x="129" y="451"/>
      <point x="278" y="617"/>
      <point x="329" y="673" type="curve"/>
      <point x="348" y="693"/>
      <point x="406" y="754"/>
      <point x="406" y="754" type="curve"/>
      <point x="347" y="811" type="line"/>
      <point x="347" y="811"/>
      <point x="288" y="752"/>
      <point x="267" y="732" type="curve"/>
      <point x="213" y="681"/>
      <point x="50" y="528"/>
    </contour>
    <contour>
      <point x="289" y="754" type="line"/>
      <point x="289" y="754"/>
      <point x="347" y="693"/>
      <point x="366" y="673" type="curve"/>
      <point x="417" y="617"/>
      <point x="566" y="451"/>
      <point x="566" y="451" type="curve"/>
      <point x="566" y="451"/>
      <point x="587" y="465"/>
      <point x="610" y="489" type="curve"/>
      <point x="634" y="512"/>
      <point x="645" y="528"/>
      <point x="645" y="528" type="curve"/>
      <point x="645" y="528"/>
      <point x="482" y="681"/>
      <point x="428" y="732" type="curve"/>
      <point x="408" y="752"/>
      <point x="348" y="811"/>
      <point x="348" y="811" type="curve"/>
    </contour>
    <contour>
      <point x="305" y="704" type="line"/>
      <point x="304" y="356" type="line"/>
      <point x="306" y="-45" type="line"/>
      <point x="388" y="-45" type="line"/>
      <point x="388" y="-45"/>
      <point x="387" y="274"/>
      <point x="387" y="364" type="curve"/>
      <point x="387" y="440"/>
      <point x="387" y="704"/>
      <point x="387" y="704" type="curve"/>
    </contour>
    <contour>
      <point x="50" y="131" type="curve"/>
      <point x="50" y="131"/>
      <point x="213" y="-22"/>
      <point x="267" y="-73" type="curve"/>
      <point x="288" y="-93"/>
      <point x="347" y="-152"/>
      <point x="347" y="-152" type="curve"/>
      <point x="406" y="-95" type="line"/>
      <point x="406" y="-95"/>
      <point x="348" y="-34"/>
      <point x="329" y="-14" type="curve"/>
      <point x="278" y="41"/>
      <point x="129" y="208"/>
      <point x="129" y="208" type="curve"/>
      <point x="129" y="208"/>
      <point x="108" y="194"/>
      <point x="85" y="170" type="curve"/>
      <point x="61" y="147"/>
      <point x="50" y="131"/>
    </contour>
  </outline>
</glyph>
<glyph name="Auditorio" format="2">
  <advance width="1160"/>
  <outline>
    <contour>
      <point x="268" y="-17" type="curve" smooth="yes"/>
      <point x="212" y="-17"/>
      <point x="160" y="-13"/>
      <point x="160" y="49" type="curve" smooth="yes"/>
      <point x="160" y="64"/>
      <point x="131" y="65"/>
      <point x="131" y="103" type="curve" smooth="yes"/>
      <point x="131" y="111"/>
      <point x="134" y="123"/>
      <point x="134" y="123" type="curve"/>
      <point x="144" y="123"/>
      <point x="153" y="129"/>
      <point x="153" y="147" type="curve" smooth="yes"/>
      <point x="153" y="192"/>
      <point x="204" y="236"/>
      <point x="268" y="236" type="curve" smooth="yes"/>
      <point x="332" y="236"/>
      <point x="384" y="192"/>
      <point x="384" y="147" type="curve" smooth="yes"/>
      <point x="384" y="129"/>
      <point x="393" y="123"/>
      <point x="403" y="123" type="curve"/>
      <point x="403" y="123"/>
      <point x="406" y="111"/>
      <point x="406" y="103" type="curve" smooth="yes"/>
      <point x="406" y="65"/>
      <point x="377" y="64"/>
      <point x="377" y="49" type="curve" smooth="yes"/>
      <point x="377" y="-13"/>
      <point x="324" y="-17"/>
    </contour>
    <contour>
      <point x="268" y="-57" type="curve" smooth="yes"/>
      <point x="316" y="-57"/>
      <point x="411" y="-54"/>
      <point x="417" y="40" type="curve"/>
      <point x="430" y="40"/>
      <point x="446" y="59"/>
      <point x="446" y="107" type="curve" smooth="yes"/>
      <point x="446" y="135"/>
      <point x="436" y="153"/>
      <point x="423" y="153" type="curve"/>
      <point x="414" y="228"/>
      <point x="344" y="276"/>
      <point x="268" y="276" type="curve" smooth="yes"/>
      <point x="192" y="276"/>
      <point x="123" y="228"/>
      <point x="114" y="153" type="curve"/>
      <point x="101" y="153"/>
      <point x="91" y="135"/>
      <point x="91" y="107" type="curve" smooth="yes"/>
      <point x="91" y="59"/>
      <point x="107" y="40"/>
      <point x="120" y="40" type="curve"/>
      <point x="126" y="-54"/>
      <point x="220" y="-57"/>
    </contour>
    <contour>
      <point x="84" y="-260" type="line"/>
      <point x="74" y="-260"/>
      <point x="64" y="-251"/>
      <point x="64" y="-240" type="curve" smooth="yes"/>
      <point x="64" y="-186" type="line" smooth="yes"/>
      <point x="64" y="-181"/>
      <point x="67" y="-175"/>
      <point x="71" y="-171" type="curve" smooth="yes"/>
      <point x="74" y="-169"/>
      <point x="135" y="-116"/>
      <point x="268" y="-116" type="curve" smooth="yes"/>
      <point x="398" y="-116"/>
      <point x="462" y="-168"/>
      <point x="466" y="-171" type="curve" smooth="yes"/>
      <point x="470" y="-174"/>
      <point x="473" y="-180"/>
      <point x="473" y="-186" type="curve" smooth="yes"/>
      <point x="473" y="-240" type="line" smooth="yes"/>
      <point x="473" y="-250"/>
      <point x="464" y="-260"/>
      <point x="453" y="-260" type="curve"/>
    </contour>
    <contour>
      <point x="268" y="-156" type="curve" smooth="yes"/>
      <point x="174" y="-156"/>
      <point x="122" y="-184"/>
      <point x="104" y="-196" type="curve"/>
      <point x="104" y="-220" type="line"/>
      <point x="131" y="-220"/>
      <point x="186" y="-220"/>
      <point x="268" y="-220" type="curve" smooth="yes"/>
      <point x="350" y="-220"/>
      <point x="407" y="-220"/>
      <point x="433" y="-220" type="curve"/>
      <point x="433" y="-196" type="line"/>
      <point x="414" y="-184"/>
      <point x="360" y="-156"/>
    </contour>
    <contour>
      <point x="782" y="-17" type="curve" smooth="yes"/>
      <point x="726" y="-17"/>
      <point x="673" y="-13"/>
      <point x="673" y="49" type="curve" smooth="yes"/>
      <point x="673" y="64"/>
      <point x="645" y="65"/>
      <point x="645" y="103" type="curve" smooth="yes"/>
      <point x="645" y="111"/>
      <point x="648" y="123"/>
      <point x="648" y="123" type="curve"/>
      <point x="658" y="123"/>
      <point x="666" y="129"/>
      <point x="666" y="147" type="curve" smooth="yes"/>
      <point x="666" y="192"/>
      <point x="718" y="236"/>
      <point x="782" y="236" type="curve" smooth="yes"/>
      <point x="846" y="236"/>
      <point x="898" y="192"/>
      <point x="898" y="147" type="curve" smooth="yes"/>
      <point x="898" y="129"/>
      <point x="906" y="123"/>
      <point x="916" y="123" type="curve"/>
      <point x="916" y="123"/>
      <point x="919" y="111"/>
      <point x="919" y="103" type="curve" smooth="yes"/>
      <point x="919" y="65"/>
      <point x="891" y="64"/>
      <point x="891" y="49" type="curve" smooth="yes"/>
      <point x="891" y="-13"/>
      <point x="838" y="-17"/>
    </contour>
    <contour>
      <point x="782" y="-57" type="curve" smooth="yes"/>
      <point x="830" y="-57"/>
      <point x="924" y="-54"/>
      <point x="930" y="40" type="curve"/>
      <point x="943" y="40"/>
      <point x="959" y="59"/>
      <point x="959" y="107" type="curve" smooth="yes"/>
      <point x="959" y="135"/>
      <point x="950" y="153"/>
      <point x="937" y="153" type="curve"/>
      <point x="928" y="228"/>
      <point x="858" y="276"/>
      <point x="782" y="276" type="curve" smooth="yes"/>
      <point x="706" y="276"/>
      <point x="636" y="228"/>
      <point x="627" y="153" type="curve"/>
      <point x="614" y="153"/>
      <point x="605" y="135"/>
      <point x="605" y="107" type="curve" smooth="yes"/>
      <point x="605" y="59"/>
      <point x="621" y="40"/>
      <point x="634" y="40" type="curve"/>
      <point x="640" y="-54"/>
      <point x="734" y="-57"/>
    </contour>
    <contour>
      <point x="597" y="-260" type="line"/>
      <point x="587" y="-260"/>
      <point x="578" y="-251"/>
      <point x="578" y="-240" type="curve" smooth="yes"/>
      <point x="578" y="-186" type="line" smooth="yes"/>
      <point x="578" y="-181"/>
      <point x="580" y="-175"/>
      <point x="584" y="-171" type="curve" smooth="yes"/>
      <point x="587" y="-169"/>
      <point x="649" y="-116"/>
      <point x="782" y="-116" type="curve" smooth="yes"/>
      <point x="912" y="-116"/>
      <point x="976" y="-168"/>
      <point x="980" y="-171" type="curve" smooth="yes"/>
      <point x="984" y="-174"/>
      <point x="986" y="-180"/>
      <point x="986" y="-186" type="curve" smooth="yes"/>
      <point x="986" y="-240" type="line" smooth="yes"/>
      <point x="986" y="-250"/>
      <point x="978" y="-260"/>
      <point x="967" y="-260" type="curve"/>
    </contour>
    <contour>
      <point x="782" y="-156" type="curve" smooth="yes"/>
      <point x="688" y="-156"/>
      <point x="636" y="-184"/>
      <point x="618" y="-196" type="curve"/>
      <point x="618" y="-220" type="line"/>
      <point x="645" y="-220"/>
      <point x="700" y="-220"/>
      <point x="782" y="-220" type="curve" smooth="yes"/>
      <point x="864" y="-220"/>
      <point x="920" y="-220"/>
      <point x="946" y="-220" type="curve"/>
      <point x="946" y="-196" type="line"/>
      <point x="927" y="-184"/>
      <point x="874" y="-156"/>
    </contour>
    <contour>
      <point x="528" y="597" type="curve" smooth="yes"/>
      <point x="472" y="597"/>
      <point x="419" y="601"/>
      <point x="419" y="663" type="curve" smooth="yes"/>
      <point x="419" y="678"/>
      <point x="391" y="679"/>
      <point x="391" y="717" type="curve" smooth="yes"/>
      <point x="391" y="725"/>
      <point x="394" y="737"/>
      <point x="394" y="737" type="curve"/>
      <point x="404" y="737"/>
      <point x="412" y="743"/>
      <point x="412" y="761" type="curve" smooth="yes"/>
      <point x="412" y="806"/>
      <point x="464" y="850"/>
      <point x="528" y="850" type="curve" smooth="yes"/>
      <point x="592" y="850"/>
      <point x="644" y="806"/>
      <point x="644" y="761" type="curve" smooth="yes"/>
      <point x="644" y="743"/>
      <point x="652" y="737"/>
      <point x="662" y="737" type="curve"/>
      <point x="662" y="737"/>
      <point x="665" y="725"/>
      <point x="665" y="717" type="curve" smooth="yes"/>
      <point x="665" y="679"/>
      <point x="637" y="678"/>
      <point x="637" y="663" type="curve" smooth="yes"/>
      <point x="637" y="601"/>
      <point x="584" y="597"/>
    </contour>
    <contour>
      <point x="528" y="557" type="curve" smooth="yes"/>
      <point x="576" y="557"/>
      <point x="670" y="560"/>
      <point x="676" y="654" type="curve"/>
      <point x="689" y="654"/>
      <point x="705" y="673"/>
      <point x="705" y="721" type="curve" smooth="yes"/>
      <point x="705" y="749"/>
      <point x="696" y="767"/>
      <point x="683" y="767" type="curve"/>
      <point x="674" y="842"/>
      <point x="604" y="890"/>
      <point x="528" y="890" type="curve" smooth="yes"/>
      <point x="452" y="890"/>
      <point x="382" y="842"/>
      <point x="373" y="767" type="curve"/>
      <point x="360" y="767"/>
      <point x="351" y="749"/>
      <point x="351" y="721" type="curve" smooth="yes"/>
      <point x="351" y="673"/>
      <point x="367" y="654"/>
      <point x="380" y="654" type="curve"/>
      <point x="386" y="560"/>
      <point x="480" y="557"/>
    </contour>
    <contour>
      <point x="343" y="354" type="line"/>
      <point x="333" y="354"/>
      <point x="324" y="363"/>
      <point x="324" y="374" type="curve" smooth="yes"/>
      <point x="324" y="428" type="line" smooth="yes"/>
      <point x="324" y="433"/>
      <point x="326" y="439"/>
      <point x="330" y="443" type="curve" smooth="yes"/>
      <point x="333" y="445"/>
      <point x="395" y="498"/>
      <point x="528" y="498" type="curve" smooth="yes"/>
      <point x="658" y="498"/>
      <point x="722" y="446"/>
      <point x="726" y="443" type="curve" smooth="yes"/>
      <point x="730" y="440"/>
      <point x="732" y="434"/>
      <point x="732" y="428" type="curve" smooth="yes"/>
      <point x="732" y="374" type="line" smooth="yes"/>
      <point x="732" y="364"/>
      <point x="724" y="354"/>
      <point x="713" y="354" type="curve"/>
    </contour>
    <contour>
      <point x="528" y="458" type="curve" smooth="yes"/>
      <point x="434" y="458"/>
      <point x="382" y="430"/>
      <point x="364" y="418" type="curve"/>
      <point x="364" y="394" type="line"/>
      <point x="391" y="394"/>
      <point x="446" y="394"/>
      <point x="528" y="394" type="curve" smooth="yes"/>
      <point x="610" y="394"/>
      <point x="666" y="394"/>
      <point x="692" y="394" type="curve"/>
      <point x="692" y="418" type="line"/>
      <point x="673" y="430"/>
      <point x="620" y="458"/>
    </contour>
    <contour>
      <point x="503" y="469" type="line"/>
      <point x="553" y="469" type="line"/>
      <point x="539.342" y="428.049" type="line"/>
      <point x="556" y="364" type="line"/>
      <point x="541" y="364" type="line"/>
      <point x="520" y="364" type="line"/>
      <point x="500" y="364" type="line"/>
      <point x="516.658" y="428.049" type="line"/>
    </contour>
  </outline>
</glyph>
<glyph name="Bibliotec" format="2">
  <advance width="1084"/>
  <outline>
    <contour>
      <point x="454.435" y="11.7705" type="line"/>
      <point x="554.062" y="509.905" type="line"/>
      <point x="593.285" y="502.062" type="line"/>
      <point x="493.658" y="3.92578" type="line"/>
    </contour>
    <contour>
      <point x="559.749" y="777.996" type="line"/>
      <point x="393.835" y="-51.5752" type="line"/>
      <point x="525.232" y="-77.8545" type="line"/>
      <point x="691.146" y="751.717" type="line"/>
    </contour>
    <contour>
      <point x="547.982" y="821.142" type="curve" smooth="yes"/>
      <point x="718.604" y="787.018" type="line" smooth="yes"/>
      <point x="730.475" y="784.644"/>
      <point x="735.976" y="771.901"/>
      <point x="734.292" y="763.483" type="curve" smooth="yes"/>
      <point x="560.533" y="-105.311" type="line" smooth="yes"/>
      <point x="558.159" y="-117.182"/>
      <point x="545.417" y="-122.684"/>
      <point x="537" y="-121" type="curve" smooth="yes"/>
      <point x="366.379" y="-86.876" type="line" smooth="yes"/>
      <point x="354.507" y="-84.501"/>
      <point x="349.006" y="-71.7588"/>
      <point x="350.689" y="-63.3418" type="curve" smooth="yes"/>
      <point x="524.448" y="805.453" type="line" smooth="yes"/>
      <point x="526.822" y="817.324"/>
      <point x="539.564" y="822.825"/>
    </contour>
    <contour>
      <point x="870" y="242" type="line"/>
      <point x="870" y="732" type="line"/>
      <point x="910" y="732" type="line"/>
      <point x="910" y="242" type="line"/>
    </contour>
    <contour>
      <point x="180" y="472" type="line"/>
      <point x="180" y="722" type="line"/>
      <point x="220" y="722" type="line"/>
      <point x="220" y="472" type="line"/>
    </contour>
    <contour>
      <point x="823" y="772" type="line"/>
      <point x="823" y="-74" type="line"/>
      <point x="957" y="-74" type="line"/>
      <point x="957" y="772" type="line"/>
    </contour>
    <contour>
      <point x="803" y="812" type="curve" smooth="yes"/>
      <point x="977" y="812" type="line" smooth="yes"/>
      <point x="989.106" y="812"/>
      <point x="997" y="800.584"/>
      <point x="997" y="792" type="curve" smooth="yes"/>
      <point x="997" y="-94" type="line" smooth="yes"/>
      <point x="997" y="-106.106"/>
      <point x="985.584" y="-114"/>
      <point x="977" y="-114" type="curve" smooth="yes"/>
      <point x="803" y="-114" type="line" smooth="yes"/>
      <point x="790.894" y="-114"/>
      <point x="783" y="-102.584"/>
      <point x="783" y="-94" type="curve" smooth="yes"/>
      <point x="783" y="792" type="line" smooth="yes"/>
      <point x="783" y="804.106"/>
      <point x="794.416" y="812"/>
    </contour>
    <contour>
      <point x="133" y="772" type="line"/>
      <point x="133" y="-74" type="line"/>
      <point x="267" y="-74" type="line"/>
      <point x="267" y="772" type="line"/>
    </contour>
    <contour>
      <point x="113" y="812" type="curve" smooth="yes"/>
      <point x="287" y="812" type="line" smooth="yes"/>
      <point x="299.106" y="812"/>
      <point x="307" y="800.584"/>
      <point x="307" y="792" type="curve" smooth="yes"/>
      <point x="307" y="-94" type="line" smooth="yes"/>
      <point x="307" y="-106.106"/>
      <point x="295.584" y="-114"/>
      <point x="287" y="-114" type="curve" smooth="yes"/>
      <point x="113" y="-114" type="line" smooth="yes"/>
      <point x="100.894" y="-114"/>
      <point x="93" y="-102.584"/>
      <point x="93" y="-94" type="curve" smooth="yes"/>
      <point x="93" y="792" type="line" smooth="yes"/>
      <point x="93" y="804.106"/>
      <point x="104.416" y="812"/>
    </contour>
    <contour>
      <point x="20" y="-164" type="curve" smooth="yes"/>
      <point x="20" y="-153.106"/>
      <point x="29.1064" y="-144"/>
      <point x="40" y="-144" type="curve" smooth="yes"/>
      <point x="1044" y="-144" type="line" smooth="yes"/>
      <point x="1054.89" y="-144"/>
      <point x="1064" y="-153.106"/>
      <point x="1064" y="-164" type="curve" smooth="yes"/>
      <point x="1064" y="-174.894"/>
      <point x="1054.89" y="-184"/>
      <point x="1044" y="-184" type="curve" smooth="yes"/>
      <point x="40" y="-184" type="line" smooth="yes"/>
      <point x="29.1064" y="-184"/>
      <point x="20" y="-174.894"/>
    </contour>
  </outline>
</glyph>
<glyph name="Cooperativa" format="2">
  <advance width="966"/>
  <outline>
    <contour>
      <point x="322" y="-149" type="curve" smooth="yes"/>
      <point x="276.04" y="-149"/>
      <point x="285.771" y="-160"/>
      <point x="240" y="-160" type="curve" smooth="yes"/>
      <point x="184.323" y="-160"/>
      <point x="82" y="-21.2188"/>
      <point x="82" y="94" type="curve" smooth="yes"/>
      <point x="82" y="211.006"/>
      <point x="131.693" y="279"/>
      <point x="194" y="279" type="curve" smooth="yes"/>
      <point x="265.838" y="279"/>
      <point x="265.059" y="233"/>
      <point x="322" y="233" type="curve" smooth="yes"/>
      <point x="378.941" y="233"/>
      <point x="378.162" y="279"/>
      <point x="450" y="279" type="curve" smooth="yes"/>
      <point x="512.307" y="279"/>
      <point x="562" y="211.006"/>
      <point x="562" y="94" type="curve" smooth="yes"/>
      <point x="562" y="-21.2188"/>
      <point x="459.677" y="-160"/>
      <point x="404" y="-160" type="curve" smooth="yes"/>
      <point x="358.229" y="-160"/>
      <point x="367.96" y="-149"/>
    </contour>
    <contour>
      <point x="322" y="273" type="curve" smooth="yes"/>
      <point x="284" y="273"/>
      <point x="265" y="319"/>
      <point x="194" y="319" type="curve" smooth="yes"/>
      <point x="96.3066" y="319"/>
      <point x="42" y="216.994"/>
      <point x="42" y="94" type="curve" smooth="yes"/>
      <point x="42" y="-30.7813"/>
      <point x="143.677" y="-200"/>
      <point x="240" y="-200" type="curve" smooth="yes"/>
      <point x="296.229" y="-200"/>
      <point x="291.96" y="-189"/>
      <point x="322" y="-189" type="curve" smooth="yes"/>
      <point x="352.04" y="-189"/>
      <point x="347.771" y="-200"/>
      <point x="404" y="-200" type="curve" smooth="yes"/>
      <point x="500.323" y="-200"/>
      <point x="602" y="-30.7813"/>
      <point x="602" y="94" type="curve" smooth="yes"/>
      <point x="602" y="216.994"/>
      <point x="547.693" y="319"/>
      <point x="450" y="319" type="curve" smooth="yes"/>
      <point x="379" y="319"/>
      <point x="360" y="273"/>
    </contour>
    <contour>
      <point x="230.743" y="203.11" type="curve" smooth="yes"/>
      <point x="236.528" y="212.984"/>
      <point x="249.361" y="215.145"/>
      <point x="257.196" y="210.768" type="curve" smooth="yes"/>
      <point x="260.268" y="209.052"/>
      <point x="281.845" y="197"/>
      <point x="322" y="197" type="curve" smooth="yes"/>
      <point x="360.426" y="197"/>
      <point x="379.866" y="212.507"/>
      <point x="382.207" y="214.157" type="curve" smooth="yes"/>
      <point x="391.113" y="220.437"/>
      <point x="402.809" y="218.704"/>
      <point x="409.391" y="210.772" type="curve" smooth="yes"/>
      <point x="415.979" y="202.832"/>
      <point x="416.407" y="190.606"/>
      <point x="407.377" y="183.111" type="curve" smooth="yes"/>
      <point x="404.331" y="180.583"/>
      <point x="375.281" y="157"/>
      <point x="322" y="157" type="curve" smooth="yes"/>
      <point x="270.623" y="157"/>
      <point x="241.319" y="173.279"/>
      <point x="237.212" y="176.141" type="curve" smooth="yes"/>
      <point x="229.455" y="181.545"/>
      <point x="224.955" y="193.23"/>
    </contour>
    <contour>
      <point x="328" y="246" type="curve" smooth="yes"/>
      <point x="338.889" y="246.34"/>
      <point x="347.706" y="255.727"/>
      <point x="347.365" y="266.615" type="curve" smooth="yes"/>
      <point x="345.492" y="326.563"/>
      <point x="378.385" y="388.154"/>
      <point x="403.982" y="397.113" type="curve" smooth="yes"/>
      <point x="414.265" y="400.712"/>
      <point x="419.852" y="412.315"/>
      <point x="416.253" y="422.598" type="curve" smooth="yes"/>
      <point x="412.653" y="432.879"/>
      <point x="401.051" y="438.466"/>
      <point x="390.769" y="434.867" type="curve" smooth="yes"/>
      <point x="336.365" y="415.826"/>
      <point x="305.259" y="333.418"/>
      <point x="307.385" y="265.365" type="curve" smooth="yes"/>
      <point x="307.726" y="254.478"/>
      <point x="317.111" y="245.66"/>
    </contour>
    <contour>
      <point x="530.852" y="-160" type="move"/>
    </contour>
    <contour>
      <point x="530.852" y="-160" type="curve" smooth="yes"/>
      <point x="886" y="-160" type="line"/>
      <point x="886" y="568" type="line"/>
      <point x="494" y="568" type="line"/>
      <point x="494" y="367" type="line" smooth="yes"/>
      <point x="494" y="357"/>
      <point x="484.2" y="347"/>
      <point x="474" y="347" type="curve" smooth="yes"/>
      <point x="462" y="347"/>
      <point x="454" y="356.412"/>
      <point x="454" y="366.412" type="curve" smooth="yes"/>
      <point x="454" y="588" type="line" smooth="yes"/>
      <point x="454" y="600"/>
      <point x="461" y="608"/>
      <point x="474" y="608" type="curve" smooth="yes"/>
      <point x="568.733" y="608" type="line"/>
      <point x="544.606" y="732.653" type="line"/>
      <point x="477.525" y="760.531" type="line" smooth="yes"/>
      <point x="467.466" y="764.712"/>
      <point x="462.552" y="776.615"/>
      <point x="466.731" y="786.675" type="curve" smooth="yes"/>
      <point x="470.912" y="796.735"/>
      <point x="482.816" y="801.649"/>
      <point x="492.876" y="797.469" type="curve" smooth="yes"/>
      <point x="569.876" y="765.469" type="line" smooth="yes"/>
      <point x="576.126" y="762.871"/>
      <point x="580.656" y="756.897"/>
      <point x="581.836" y="750.801" type="curve" smooth="yes"/>
      <point x="609.475" y="608" type="line"/>
      <point x="906" y="608" type="line" smooth="yes"/>
      <point x="918" y="608"/>
      <point x="926" y="597"/>
      <point x="926" y="582" type="curve" smooth="yes"/>
      <point x="926" y="-180" type="line" smooth="yes"/>
      <point x="926" y="-192.106"/>
      <point x="914" y="-200"/>
      <point x="906" y="-200" type="curve" smooth="yes"/>
      <point x="530" y="-200" type="line" smooth="yes"/>
      <point x="520" y="-200"/>
      <point x="510.852" y="-193"/>
      <point x="510.852" y="-180" type="curve" smooth="yes"/>
      <point x="510.852" y="-167"/>
      <point x="520.852" y="-160"/>
    </contour>
  </outline>
</glyph>
<glyph name="Cubrebocas" format="2">
  <advance width="900"/>
  <outline>
    <contour>
      <point x="450" y="89" type="curve" smooth="yes"/>
      <point x="250.27" y="89"/>
      <point x="173.742" y="229.016"/>
      <point x="172.403" y="231.496" type="curve" smooth="yes"/>
      <point x="170.832" y="234.404"/>
      <point x="170" y="237.825"/>
      <point x="170" y="241" type="curve" smooth="yes"/>
      <point x="170" y="319" type="line" smooth="yes"/>
      <point x="170" y="324.713"/>
      <point x="172.819" y="330.43"/>
      <point x="176.589" y="333.837" type="curve" smooth="yes"/>
      <point x="235.937" y="387.479"/>
      <point x="372.417" y="415"/>
      <point x="450" y="415" type="curve" smooth="yes"/>
      <point x="527.583" y="415"/>
      <point x="664.063" y="387.479"/>
      <point x="723.411" y="333.837" type="curve" smooth="yes"/>
      <point x="727.649" y="330.006"/>
      <point x="730" y="324.082"/>
      <point x="730" y="319" type="curve" smooth="yes"/>
      <point x="730" y="241" type="line" smooth="yes"/>
      <point x="730" y="237.751"/>
      <point x="728.96" y="234.136"/>
      <point x="727.692" y="231.671" type="curve" smooth="yes"/>
      <point x="725.694" y="227.972"/>
      <point x="649.144" y="89"/>
    </contour>
    <contour>
      <point x="450" y="129" type="curve" smooth="yes"/>
      <point x="606.991" y="129"/>
      <point x="676.119" y="224.694"/>
      <point x="690" y="246.525" type="curve"/>
      <point x="690" y="309.613" type="line"/>
      <point x="639.931" y="347.429"/>
      <point x="517.005" y="375"/>
      <point x="450" y="375" type="curve" smooth="yes"/>
      <point x="383.269" y="375"/>
      <point x="261.21" y="348.291"/>
      <point x="210" y="309.613" type="curve"/>
      <point x="210" y="246.525" type="line"/>
      <point x="223.314" y="225.587"/>
      <point x="292.474" y="129"/>
    </contour>
    <contour>
      <point x="450" y="-200" type="line"/>
      <point x="40" y="-200" type="line" smooth="yes"/>
      <point x="31.416" y="-200"/>
      <point x="20" y="-192.106"/>
      <point x="20" y="-180" type="curve" smooth="yes"/>
      <point x="20" y="-76" type="line" smooth="yes"/>
      <point x="20" y="-70.3748"/>
      <point x="23.0026" y="-63.5655"/>
      <point x="28.3701" y="-59.729" type="curve" smooth="yes"/>
      <point x="30.4989" y="-58.2074"/>
      <point x="182.471" y="50"/>
      <point x="450" y="50" type="curve" smooth="yes"/>
      <point x="716.978" y="50"/>
      <point x="868.665" y="-57.6096"/>
      <point x="871.747" y="-59.8127" type="curve" smooth="yes"/>
      <point x="876.071" y="-62.9983"/>
      <point x="880" y="-69.3758"/>
      <point x="880" y="-76" type="curve" smooth="yes"/>
      <point x="880" y="-180" type="line" smooth="yes"/>
      <point x="880" y="-188.584"/>
      <point x="872.106" y="-200"/>
      <point x="860" y="-200" type="curve" smooth="yes"/>
    </contour>
    <contour>
      <point x="450" y="-160" type="line"/>
      <point x="840" y="-160" type="line"/>
      <point x="840" y="-86.8153" type="line"/>
      <point x="804.853" y="-65.014"/>
      <point x="668.468" y="10"/>
      <point x="450" y="10" type="curve" smooth="yes"/>
      <point x="231.052" y="10"/>
      <point x="94.1465" y="-65.6348"/>
      <point x="60" y="-86.8153" type="curve"/>
      <point x="60" y="-160" type="line"/>
    </contour>
    <contour>
      <point x="802.859" y="525.443" type="curve"/>
      <point x="847.105" y="508.793"/>
      <point x="862.582" y="460.564"/>
      <point x="862.582" y="411" type="curve" smooth="yes"/>
      <point x="862.582" y="326"/>
      <point x="833" y="255"/>
      <point x="778" y="255" type="curve" smooth="yes"/>
      <point x="767.106" y="255"/>
      <point x="758" y="264.106"/>
      <point x="758" y="275" type="curve" smooth="yes"/>
      <point x="758" y="285.894"/>
      <point x="764" y="295"/>
      <point x="784" y="295" type="curve" smooth="yes"/>
      <point x="807" y="295"/>
      <point x="821.946" y="342.73"/>
      <point x="822.048" y="408.096" type="curve" smooth="yes"/>
      <point x="822.129" y="460.195"/>
      <point x="804.591" y="490"/>
      <point x="784" y="490" type="curve" smooth="yes"/>
      <point x="764.504" y="490"/>
      <point x="757.834" y="499"/>
      <point x="757.834" y="518.366" type="curve"/>
      <point x="764.036" y="539.061"/>
      <point x="766.54" y="559.766"/>
      <point x="766.54" y="580" type="curve" smooth="yes"/>
      <point x="766.54" y="760"/>
      <point x="624" y="821"/>
      <point x="450" y="821" type="curve" smooth="yes"/>
      <point x="276" y="821"/>
      <point x="133.461" y="760"/>
      <point x="133.461" y="580" type="curve" smooth="yes"/>
      <point x="133.461" y="559.767"/>
      <point x="135.964" y="539.062"/>
      <point x="142.166" y="518.366" type="curve"/>
      <point x="142.166" y="499"/>
      <point x="135.496" y="490"/>
      <point x="116" y="490" type="curve" smooth="yes"/>
      <point x="95.4082" y="490"/>
      <point x="77.8711" y="460.195"/>
      <point x="77.9521" y="408.096" type="curve" smooth="yes"/>
      <point x="78.0537" y="342.73"/>
      <point x="93" y="295"/>
      <point x="116" y="295" type="curve" smooth="yes"/>
      <point x="136" y="295"/>
      <point x="142" y="285.894"/>
      <point x="142" y="275" type="curve" smooth="yes"/>
      <point x="142" y="264.106"/>
      <point x="132.894" y="255"/>
      <point x="122" y="255" type="curve" smooth="yes"/>
      <point x="67" y="255"/>
      <point x="37.418" y="326"/>
      <point x="37.418" y="411" type="curve" smooth="yes"/>
      <point x="37.418" y="460.564"/>
      <point x="52.8945" y="508.793"/>
      <point x="97.1406" y="525.443" type="curve"/>
      <point x="97.1406" y="525.443"/>
      <point x="89" y="538"/>
      <point x="89" y="588" type="curve" smooth="yes"/>
      <point x="89" y="714"/>
      <point x="160" y="861"/>
      <point x="450" y="861" type="curve" smooth="yes"/>
      <point x="740" y="861"/>
      <point x="811" y="714"/>
      <point x="811" y="588" type="curve" smooth="yes"/>
      <point x="811" y="538"/>
      <point x="802.859" y="525.443"/>
    </contour>
  </outline>
</glyph>
<glyph name="Hombre" format="2">
  <advance width="557"/>
  <outline>
    <contour>
      <point x="106" y="214" type="line"/>
      <point x="111" y="269"/>
      <point x="126" y="426" type="line" smooth="yes"/>
      <point x="126.944" y="436.005"/>
      <point x="136" y="444"/>
      <point x="146" y="444" type="curve" smooth="yes"/>
      <point x="186" y="444" type="line" smooth="yes"/>
      <point x="197" y="444"/>
      <point x="206" y="435"/>
      <point x="206" y="425" type="curve" smooth="yes"/>
      <point x="212" y="247" type="line"/>
      <point x="207" y="-165" type="line"/>
      <point x="216" y="-166"/>
      <point x="224" y="-166" type="curve"/>
      <point x="250" y="233" type="line" smooth="yes"/>
      <point x="250.714" y="243.953"/>
      <point x="260" y="252"/>
      <point x="270" y="252" type="curve"/>
      <point x="287" y="252" type="line"/>
      <point x="297" y="252"/>
      <point x="306.259" y="243.95"/>
      <point x="307" y="233" type="curve" smooth="yes"/>
      <point x="334" y="-166" type="line"/>
      <point x="344" y="-166"/>
      <point x="350" y="-165" type="line"/>
      <point x="345" y="247" type="line"/>
      <point x="351" y="425" type="line" smooth="yes"/>
      <point x="351" y="435"/>
      <point x="360" y="444"/>
      <point x="371" y="444" type="curve" smooth="yes"/>
      <point x="411" y="444" type="line" smooth="yes"/>
      <point x="421" y="444"/>
      <point x="430.056" y="436.005"/>
      <point x="431" y="426" type="curve" smooth="yes"/>
      <point x="446" y="269"/>
      <point x="451" y="214" type="curve"/>
      <point x="458" y="213"/>
      <point x="460" y="213" type="curve"/>
      <point x="460" y="264"/>
      <point x="467" y="456"/>
      <point x="467" y="486" type="curve" smooth="yes"/>
      <point x="467" y="506"/>
      <point x="455" y="530"/>
      <point x="432" y="530" type="curve"/>
      <point x="125" y="530" type="line"/>
      <point x="102" y="530"/>
      <point x="90" y="506"/>
      <point x="90" y="486" type="curve" smooth="yes"/>
      <point x="90" y="456"/>
      <point x="97" y="264"/>
      <point x="97" y="213" type="curve"/>
      <point x="102" y="213"/>
    </contour>
    <contour>
      <point x="177" y="724" type="curve" smooth="yes"/>
      <point x="177" y="781"/>
      <point x="222" y="826"/>
      <point x="279" y="826" type="curve" smooth="yes"/>
      <point x="336" y="826"/>
      <point x="382" y="781"/>
      <point x="382" y="724" type="curve" smooth="yes"/>
      <point x="382" y="667"/>
      <point x="336" y="622"/>
      <point x="279" y="622" type="curve" smooth="yes"/>
      <point x="222" y="622"/>
      <point x="177" y="667"/>
    </contour>
    <contour>
      <point x="217" y="724" type="curve" smooth="yes"/>
      <point x="217" y="689"/>
      <point x="244" y="662"/>
      <point x="279" y="662" type="curve" smooth="yes"/>
      <point x="314" y="662"/>
      <point x="342" y="689"/>
      <point x="342" y="724" type="curve" smooth="yes"/>
      <point x="342" y="759"/>
      <point x="314" y="786"/>
      <point x="279" y="786" type="curve" smooth="yes"/>
      <point x="244" y="786"/>
      <point x="217" y="759"/>
    </contour>
    <contour>
      <point x="279" y="144" type="line"/>
      <point x="272.878" y="0" type="line"/>
      <point x="263" y="-180" type="line" smooth="yes"/>
      <point x="263" y="-185"/>
      <point x="261" y="-189"/>
      <point x="257" y="-193" type="curve" smooth="yes"/>
      <point x="236" y="-214"/>
      <point x="196" y="-209"/>
      <point x="176" y="-195" type="curve" smooth="yes"/>
      <point x="171" y="-192"/>
      <point x="167" y="-186"/>
      <point x="167" y="-179" type="curve" smooth="yes"/>
      <point x="172" y="245" type="line"/>
      <point x="167" y="404" type="line"/>
      <point x="164" y="404" type="line"/>
      <point x="160" y="358"/>
      <point x="150" y="251"/>
      <point x="146" y="209" type="curve" smooth="yes"/>
      <point x="145" y="202"/>
      <point x="142" y="194"/>
      <point x="137" y="188" type="curve" smooth="yes"/>
      <point x="127" y="176"/>
      <point x="113" y="173"/>
      <point x="100" y="173" type="curve" smooth="yes"/>
      <point x="82" y="173"/>
      <point x="57" y="184"/>
      <point x="57" y="211" type="curve" smooth="yes"/>
      <point x="57" y="257"/>
      <point x="50" y="453"/>
      <point x="50" y="486" type="curve" smooth="yes"/>
      <point x="50" y="524"/>
      <point x="71" y="570"/>
      <point x="125" y="570" type="curve" smooth="yes"/>
      <point x="278" y="570" type="line"/>
      <point x="279" y="570" type="line"/>
      <point x="432" y="570" type="line" smooth="yes"/>
      <point x="486" y="570"/>
      <point x="507" y="524"/>
      <point x="507" y="486" type="curve" smooth="yes"/>
      <point x="507" y="453"/>
      <point x="500" y="257"/>
      <point x="500" y="211" type="curve" smooth="yes"/>
      <point x="500" y="184"/>
      <point x="475" y="173"/>
      <point x="457" y="173" type="curve" smooth="yes"/>
      <point x="444" y="173"/>
      <point x="430" y="176"/>
      <point x="420" y="188" type="curve" smooth="yes"/>
      <point x="415" y="194"/>
      <point x="412" y="202"/>
      <point x="411" y="209" type="curve" smooth="yes"/>
      <point x="407" y="251"/>
      <point x="397" y="358"/>
      <point x="393" y="404" type="curve"/>
      <point x="390" y="404" type="line"/>
      <point x="385" y="245" type="line"/>
      <point x="390" y="-179" type="line" smooth="yes"/>
      <point x="390" y="-186"/>
      <point x="387" y="-192"/>
      <point x="382" y="-195" type="curve" smooth="yes"/>
      <point x="362" y="-209"/>
      <point x="321" y="-214"/>
      <point x="300" y="-193" type="curve" smooth="yes"/>
      <point x="296" y="-189"/>
      <point x="294" y="-185"/>
      <point x="294" y="-180" type="curve" smooth="yes"/>
      <point x="284.122" y="0" type="line"/>
    </contour>
  </outline>
</glyph>
<glyph name="Laboratorio" format="2">
  <advance width="636"/>
  <outline>
    <contour>
      <point x="38" y="0" type="line"/>
      <point x="35" y="0"/>
      <point x="32.1016" y="1.23535"/>
      <point x="30" y="2" type="curve" smooth="yes"/>
      <point x="19" y="6"/>
      <point x="15.501" y="18.7793"/>
      <point x="20" y="29" type="curve" smooth="yes"/>
      <point x="226" y="497" type="line"/>
      <point x="226" y="770" type="line" smooth="yes"/>
      <point x="226" y="781"/>
      <point x="235" y="790"/>
      <point x="246" y="790" type="curve" smooth="yes"/>
      <point x="257" y="790"/>
      <point x="266" y="781"/>
      <point x="266" y="770" type="curve" smooth="yes"/>
      <point x="266" y="492" type="line" smooth="yes"/>
      <point x="266" y="489"/>
      <point x="265.245" y="485.857"/>
      <point x="264" y="483" type="curve" smooth="yes"/>
      <point x="71" y="40" type="line"/>
      <point x="565" y="40" type="line"/>
      <point x="372" y="483" type="line" smooth="yes"/>
      <point x="370.742" y="485.888"/>
      <point x="370" y="489"/>
      <point x="370" y="492" type="curve" smooth="yes"/>
      <point x="370" y="770" type="line" smooth="yes"/>
      <point x="370" y="781"/>
      <point x="379" y="790"/>
      <point x="390" y="790" type="curve" smooth="yes"/>
      <point x="401" y="790"/>
      <point x="410" y="781"/>
      <point x="410" y="770" type="curve" smooth="yes"/>
      <point x="410" y="497" type="line"/>
      <point x="616" y="29" type="line" smooth="yes"/>
      <point x="620.499" y="18.7793"/>
      <point x="616.469" y="7.23438"/>
      <point x="606" y="2" type="curve" smooth="yes"/>
      <point x="604" y="1"/>
      <point x="600" y="0"/>
      <point x="598" y="0" type="curve" smooth="yes"/>
    </contour>
    <contour>
      <point x="176" y="780" type="curve" smooth="yes"/>
      <point x="176" y="791"/>
      <point x="185" y="800"/>
      <point x="196" y="800" type="curve"/>
      <point x="440" y="800" type="line"/>
      <point x="449.983" y="800"/>
      <point x="460" y="791"/>
      <point x="460" y="780" type="curve" smooth="yes"/>
      <point x="460" y="769"/>
      <point x="449.983" y="760"/>
      <point x="440" y="760" type="curve"/>
      <point x="196" y="760" type="line"/>
      <point x="185" y="760"/>
      <point x="176" y="769"/>
    </contour>
    <contour>
      <point x="124" y="219" type="curve" smooth="yes"/>
      <point x="114.263" y="225.023"/>
      <point x="112.126" y="237.822"/>
      <point x="117.099" y="245.862" type="curve" smooth="yes"/>
      <point x="118.97" y="248.888"/>
      <point x="154.877" y="308"/>
      <point x="230" y="308" type="curve" smooth="yes"/>
      <point x="308.358" y="308"/>
      <point x="340.86" y="258"/>
      <point x="386" y="258" type="curve" smooth="yes"/>
      <point x="435.052" y="258"/>
      <point x="460.848" y="292.307"/>
      <point x="462.604" y="294.356" type="curve" smooth="yes"/>
      <point x="470.086" y="303.086"/>
      <point x="481.665" y="304.077"/>
      <point x="490" y="298" type="curve" smooth="yes"/>
      <point x="498.337" y="291.922"/>
      <point x="501.754" y="280.175"/>
      <point x="494.841" y="270.691" type="curve" smooth="yes"/>
      <point x="493.154" y="268.378"/>
      <point x="457.859" y="218"/>
      <point x="386" y="218" type="curve" smooth="yes"/>
      <point x="309.14" y="218"/>
      <point x="277.642" y="268"/>
      <point x="230" y="268" type="curve" smooth="yes"/>
      <point x="181.055" y="268"/>
      <point x="153.831" y="228.523"/>
      <point x="151.05" y="224.729" type="curve" smooth="yes"/>
      <point x="145.584" y="217.271"/>
      <point x="133.735" y="212.979"/>
    </contour>
  </outline>
</glyph>
<glyph name="Lavar" format="2">
  <advance width="915"/>
  <outline>
    <contour>
      <point x="730" y="590" type="curve" smooth="yes"/>
      <point x="719" y="590"/>
      <point x="710" y="599"/>
      <point x="710" y="610" type="curve" smooth="yes"/>
      <point x="710" y="641"/>
      <point x="730" y="686"/>
      <point x="782" y="686" type="curve"/>
      <point x="878" y="686" type="line"/>
      <point x="889" y="686"/>
      <point x="898" y="677"/>
      <point x="898" y="666" type="curve" smooth="yes"/>
      <point x="898" y="655"/>
      <point x="889" y="646"/>
      <point x="878" y="646" type="curve"/>
      <point x="782" y="646" type="line"/>
      <point x="760" y="646"/>
      <point x="750" y="629"/>
      <point x="750" y="610" type="curve" smooth="yes"/>
      <point x="750" y="599"/>
      <point x="741" y="590"/>
    </contour>
    <contour>
      <point x="608" y="587" type="curve" smooth="yes"/>
      <point x="597" y="587"/>
      <point x="588" y="596"/>
      <point x="588" y="607" type="curve" smooth="yes"/>
      <point x="588" y="670"/>
      <point x="623" y="789"/>
      <point x="753" y="789" type="curve"/>
      <point x="885" y="789" type="line"/>
      <point x="896" y="789"/>
      <point x="905" y="780"/>
      <point x="905" y="769" type="curve" smooth="yes"/>
      <point x="905" y="758"/>
      <point x="896" y="749"/>
      <point x="885" y="749" type="curve"/>
      <point x="753" y="749" type="line"/>
      <point x="657" y="749"/>
      <point x="628" y="662"/>
      <point x="628" y="607" type="curve" smooth="yes"/>
      <point x="628" y="596"/>
      <point x="619" y="587"/>
    </contour>
    <contour>
      <point x="792" y="596" type="curve" smooth="yes"/>
      <point x="792" y="585"/>
      <point x="782" y="576"/>
      <point x="772" y="576" type="curve"/>
      <point x="568" y="576" type="line"/>
      <point x="557" y="576"/>
      <point x="548" y="585"/>
      <point x="548" y="596" type="curve" smooth="yes"/>
      <point x="548" y="607"/>
      <point x="557" y="616"/>
      <point x="568" y="616" type="curve"/>
      <point x="772" y="616" type="line"/>
      <point x="782" y="616"/>
      <point x="792" y="607"/>
    </contour>
    <contour>
      <point x="668" y="556" type="curve" smooth="yes"/>
      <point x="679" y="556"/>
      <point x="688" y="547"/>
      <point x="688" y="536" type="curve" smooth="yes"/>
      <point x="688" y="495" type="line" smooth="yes"/>
      <point x="688" y="484"/>
      <point x="679" y="475"/>
      <point x="668" y="475" type="curve" smooth="yes"/>
      <point x="657" y="475"/>
      <point x="648" y="484"/>
      <point x="648" y="495" type="curve" smooth="yes"/>
      <point x="648" y="536" type="line" smooth="yes"/>
      <point x="648" y="547"/>
      <point x="657" y="556"/>
    </contour>
    <contour>
      <point x="748" y="253" type="curve" smooth="yes"/>
      <point x="759" y="253"/>
      <point x="768" y="244"/>
      <point x="768" y="233" type="curve" smooth="yes"/>
      <point x="768" y="191" type="line" smooth="yes"/>
      <point x="768" y="180"/>
      <point x="759" y="171"/>
      <point x="748" y="171" type="curve" smooth="yes"/>
      <point x="737" y="171"/>
      <point x="728" y="180"/>
      <point x="728" y="191" type="curve" smooth="yes"/>
      <point x="728" y="233" type="line" smooth="yes"/>
      <point x="728" y="244"/>
      <point x="737" y="253"/>
    </contour>
    <contour>
      <point x="748" y="556" type="curve" smooth="yes"/>
      <point x="759" y="556"/>
      <point x="768" y="547"/>
      <point x="768" y="536" type="curve" smooth="yes"/>
      <point x="768" y="313" type="line" smooth="yes"/>
      <point x="768" y="302"/>
      <point x="759" y="293"/>
      <point x="748" y="293" type="curve" smooth="yes"/>
      <point x="737" y="293"/>
      <point x="728" y="302"/>
      <point x="728" y="313" type="curve" smooth="yes"/>
      <point x="728" y="536" type="line" smooth="yes"/>
      <point x="728" y="547"/>
      <point x="737" y="556"/>
    </contour>
    <contour>
      <point x="667" y="400" type="curve" smooth="yes"/>
      <point x="678" y="400"/>
      <point x="687" y="391"/>
      <point x="687" y="380" type="curve" smooth="yes"/>
      <point x="687" y="156" type="line" smooth="yes"/>
      <point x="687" y="145"/>
      <point x="678" y="136"/>
      <point x="667" y="136" type="curve" smooth="yes"/>
      <point x="656" y="136"/>
      <point x="647" y="145"/>
      <point x="647" y="156" type="curve" smooth="yes"/>
      <point x="647" y="380" type="line" smooth="yes"/>
      <point x="647" y="391"/>
      <point x="656" y="400"/>
    </contour>
    <contour>
      <point x="591" y="272" type="curve" smooth="yes"/>
      <point x="602" y="272"/>
      <point x="611" y="263"/>
      <point x="611" y="252" type="curve" smooth="yes"/>
      <point x="611" y="210" type="line" smooth="yes"/>
      <point x="611" y="199"/>
      <point x="602" y="190"/>
      <point x="591" y="190" type="curve" smooth="yes"/>
      <point x="580" y="190"/>
      <point x="571" y="199"/>
      <point x="571" y="210" type="curve" smooth="yes"/>
      <point x="571" y="252" type="line" smooth="yes"/>
      <point x="571" y="263"/>
      <point x="580" y="272"/>
    </contour>
    <contour>
      <point x="591" y="556" type="curve" smooth="yes"/>
      <point x="602" y="556"/>
      <point x="611" y="547"/>
      <point x="611" y="536" type="curve" smooth="yes"/>
      <point x="611" y="320" type="line" smooth="yes"/>
      <point x="611" y="311"/>
      <point x="602" y="300"/>
      <point x="591" y="300" type="curve" smooth="yes"/>
      <point x="580" y="300"/>
      <point x="571" y="311"/>
      <point x="571" y="320" type="curve" smooth="yes"/>
      <point x="571" y="536" type="line" smooth="yes"/>
      <point x="571" y="547"/>
      <point x="580" y="556"/>
    </contour>
    <contour>
      <point x="259" y="244" type="curve" smooth="yes"/>
      <point x="258" y="255"/>
      <point x="268" y="264"/>
      <point x="277" y="265" type="curve" smooth="yes"/>
      <point x="283" y="265"/>
      <point x="360" y="272"/>
      <point x="369" y="344" type="curve" smooth="yes"/>
      <point x="370" y="355"/>
      <point x="381" y="362"/>
      <point x="392" y="361" type="curve" smooth="yes"/>
      <point x="403" y="360"/>
      <point x="410" y="349"/>
      <point x="409" y="338" type="curve" smooth="yes"/>
      <point x="395" y="230"/>
      <point x="281" y="225"/>
      <point x="279" y="225" type="curve" smooth="yes"/>
      <point x="270" y="225"/>
      <point x="260" y="233"/>
    </contour>
    <contour>
      <point x="40" y="391" type="curve" smooth="yes"/>
      <point x="44" y="401"/>
      <point x="57" y="406"/>
      <point x="67" y="402" type="curve" smooth="yes"/>
      <point x="67" y="402"/>
      <point x="154" y="367"/>
      <point x="191" y="367" type="curve" smooth="yes"/>
      <point x="210" y="367"/>
      <point x="255" y="454"/>
      <point x="319" y="454" type="curve" smooth="yes"/>
      <point x="380" y="454"/>
      <point x="434" y="415"/>
      <point x="508" y="420" type="curve" smooth="yes"/>
      <point x="519" y="421"/>
      <point x="528" y="412"/>
      <point x="529" y="401" type="curve" smooth="yes"/>
      <point x="530" y="390"/>
      <point x="521" y="381"/>
      <point x="510" y="380" type="curve" smooth="yes"/>
      <point x="422" y="373"/>
      <point x="360" y="414"/>
      <point x="319" y="414" type="curve" smooth="yes"/>
      <point x="264" y="414"/>
      <point x="244" y="327"/>
      <point x="191" y="327" type="curve" smooth="yes"/>
      <point x="139" y="327"/>
      <point x="52" y="364"/>
      <point x="51" y="364" type="curve" smooth="yes"/>
      <point x="41" y="368"/>
      <point x="36" y="381"/>
    </contour>
    <contour>
      <point x="454" y="16" type="curve" smooth="yes"/>
      <point x="454" y="27"/>
      <point x="463" y="36"/>
      <point x="474" y="36" type="curve" smooth="yes"/>
      <point x="660" y="36" type="line" smooth="yes"/>
      <point x="674" y="36"/>
      <point x="681" y="42"/>
      <point x="681" y="52" type="curve" smooth="yes"/>
      <point x="681" y="61"/>
      <point x="675" y="66"/>
      <point x="661" y="66" type="curve" smooth="yes"/>
      <point x="365" y="66" type="line" smooth="yes"/>
      <point x="354" y="66"/>
      <point x="345" y="75"/>
      <point x="345" y="86" type="curve" smooth="yes"/>
      <point x="345" y="97"/>
      <point x="354" y="106"/>
      <point x="365" y="106" type="curve" smooth="yes"/>
      <point x="661" y="106" type="line" smooth="yes"/>
      <point x="693" y="106"/>
      <point x="721" y="87"/>
      <point x="721" y="52" type="curve" smooth="yes"/>
      <point x="721" y="46"/>
      <point x="720" y="41"/>
      <point x="719" y="36" type="curve"/>
      <point x="750" y="35"/>
      <point x="777" y="16"/>
      <point x="777" y="-18" type="curve" smooth="yes"/>
      <point x="777" y="-52"/>
      <point x="750" y="-74"/>
      <point x="716" y="-74" type="curve" smooth="yes"/>
      <point x="695" y="-74" type="line"/>
      <point x="696" y="-78"/>
      <point x="697" y="-83"/>
      <point x="697" y="-88" type="curve" smooth="yes"/>
      <point x="697" y="-122"/>
      <point x="658" y="-144"/>
      <point x="636" y="-144" type="curve" smooth="yes"/>
      <point x="321" y="-144" type="line" smooth="yes"/>
      <point x="272" y="-144"/>
      <point x="244" y="-97"/>
      <point x="225" y="-97" type="curve" smooth="yes"/>
      <point x="84" y="-97" type="line" smooth="yes"/>
      <point x="73" y="-97"/>
      <point x="64" y="-88"/>
      <point x="64" y="-77" type="curve" smooth="yes"/>
      <point x="64" y="-66"/>
      <point x="73" y="-57"/>
      <point x="84" y="-57" type="curve" smooth="yes"/>
      <point x="225" y="-57" type="line" smooth="yes"/>
      <point x="276" y="-57"/>
      <point x="306" y="-104"/>
      <point x="321" y="-104" type="curve" smooth="yes"/>
      <point x="636" y="-104" type="line" smooth="yes"/>
      <point x="645" y="-104"/>
      <point x="657" y="-98"/>
      <point x="657" y="-88" type="curve" smooth="yes"/>
      <point x="657" y="-79"/>
      <point x="651" y="-74"/>
      <point x="637" y="-74" type="curve" smooth="yes"/>
      <point x="514" y="-74" type="line"/>
      <point x="474" y="-74" type="line" smooth="yes"/>
      <point x="463" y="-74"/>
      <point x="454" y="-65"/>
      <point x="454" y="-54" type="curve" smooth="yes"/>
      <point x="454" y="-43"/>
      <point x="463" y="-34"/>
      <point x="474" y="-34" type="curve" smooth="yes"/>
      <point x="514" y="-34" type="line"/>
      <point x="637" y="-34" type="line"/>
      <point x="716" y="-34" type="line" smooth="yes"/>
      <point x="730" y="-34"/>
      <point x="737" y="-28"/>
      <point x="737" y="-18" type="curve" smooth="yes"/>
      <point x="737" y="-9"/>
      <point x="731" y="-4"/>
      <point x="717" y="-4" type="curve" smooth="yes"/>
      <point x="474" y="-4" type="line" smooth="yes"/>
      <point x="463" y="-4"/>
      <point x="454" y="5"/>
    </contour>
    <contour>
      <point x="54" y="86" type="curve" smooth="yes"/>
      <point x="54" y="97"/>
      <point x="63" y="106"/>
      <point x="74" y="106" type="curve" smooth="yes"/>
      <point x="216" y="106" type="line" smooth="yes"/>
      <point x="248" y="106"/>
      <point x="271" y="200"/>
      <point x="326" y="200" type="curve" smooth="yes"/>
      <point x="365" y="200"/>
      <point x="390" y="191"/>
      <point x="426" y="191" type="curve" smooth="yes"/>
      <point x="450" y="191"/>
      <point x="478" y="196"/>
      <point x="492" y="201" type="curve" smooth="yes"/>
      <point x="502" y="204"/>
      <point x="514" y="198"/>
      <point x="517" y="188" type="curve" smooth="yes"/>
      <point x="520" y="178"/>
      <point x="514" y="166"/>
      <point x="504" y="163" type="curve" smooth="yes"/>
      <point x="485" y="157"/>
      <point x="456" y="151"/>
      <point x="426" y="151" type="curve" smooth="yes"/>
      <point x="383" y="151"/>
      <point x="357" y="160"/>
      <point x="326" y="160" type="curve" smooth="yes"/>
      <point x="286" y="160"/>
      <point x="271" y="66"/>
      <point x="218" y="66" type="curve" smooth="yes"/>
      <point x="74" y="66" type="line" smooth="yes"/>
      <point x="63" y="66"/>
      <point x="54" y="75"/>
    </contour>
  </outline>
</glyph>
<glyph name="Mujer" format="2">
  <advance width="557"/>
  <outline>
    <contour>
      <point x="224" y="570" type="line"/>
      <point x="182.306" y="570"/>
      <point x="122.67" y="549.404"/>
      <point x="105.856" y="493.788" type="curve" smooth="yes"/>
      <point x="92.4607" y="449.481"/>
      <point x="23.7035" y="182.266"/>
      <point x="23.6317" y="181.987" type="curve" smooth="yes"/>
      <point x="22.8493" y="178.948"/>
      <point x="22.8365" y="175.54"/>
      <point x="23.4763" y="172.661" type="curve" smooth="yes"/>
      <point x="26.0014" y="161.298"/>
      <point x="31.62" y="150.443"/>
      <point x="41.4056" y="143.381" type="curve" smooth="yes"/>
      <point x="52.5913" y="135.308"/>
      <point x="65.2502" y="134"/>
      <point x="77" y="134" type="curve" smooth="yes"/>
      <point x="85.8761" y="134"/>
      <point x="93.5397" y="140.502"/>
      <point x="95.9391" y="147.573" type="curve" smooth="yes"/>
      <point x="133.414" y="258" type="line"/>
      <point x="147" y="332" type="line"/>
      <point x="146" y="241"/>
      <point x="112.261" y="150.335"/>
      <point x="111.606" y="148.44" type="curve" smooth="yes"/>
      <point x="108" y="138"/>
      <point x="111.227" y="128.928"/>
      <point x="118" y="123.807" type="curve" smooth="yes"/>
      <point x="121.032" y="121.514"/>
      <point x="178.122" y="76"/>
      <point x="277" y="76" type="curve" smooth="yes"/>
      <point x="375.878" y="76"/>
      <point x="432.968" y="121.514"/>
      <point x="436" y="123.807" type="curve" smooth="yes"/>
      <point x="442.773" y="128.928"/>
      <point x="446" y="138"/>
      <point x="442.394" y="148.44" type="curve" smooth="yes"/>
      <point x="441.739" y="150.335"/>
      <point x="408" y="241"/>
      <point x="407" y="332" type="curve"/>
      <point x="420.586" y="258" type="line"/>
      <point x="458.061" y="147.572" type="line" smooth="yes"/>
      <point x="460.46" y="140.502"/>
      <point x="468.124" y="134"/>
      <point x="477" y="134" type="curve" smooth="yes"/>
      <point x="488.75" y="134"/>
      <point x="501.408" y="135.308"/>
      <point x="512.595" y="143.381" type="curve" smooth="yes"/>
      <point x="522.38" y="150.443"/>
      <point x="527.999" y="161.298"/>
      <point x="530.523" y="172.661" type="curve" smooth="yes"/>
      <point x="531.163" y="175.54"/>
      <point x="531.15" y="178.948"/>
      <point x="530.368" y="181.987" type="curve" smooth="yes"/>
      <point x="530.297" y="182.266"/>
      <point x="461.539" y="449.481"/>
      <point x="448.145" y="493.788" type="curve" smooth="yes"/>
      <point x="431.331" y="549.405"/>
      <point x="371.693" y="570"/>
      <point x="330" y="570" type="curve"/>
    </contour>
    <contour>
      <point x="224" y="530" type="curve"/>
      <point x="330" y="530" type="line"/>
      <point x="362.307" y="530"/>
      <point x="400.67" y="512.596"/>
      <point x="409.855" y="482.212" type="curve" smooth="yes"/>
      <point x="420.086" y="448.373"/>
      <point x="483.719" y="231.362"/>
      <point x="497" y="180" type="curve"/>
      <point x="488" y="176" type="line"/>
      <point x="420.939" y="381.428" type="line" smooth="yes"/>
      <point x="418.185" y="389.865"/>
      <point x="409.467" y="395"/>
      <point x="402" y="395" type="curve" smooth="yes"/>
      <point x="387" y="395" type="line" smooth="yes"/>
      <point x="374.894" y="395"/>
      <point x="367" y="383.584"/>
      <point x="367" y="375" type="curve" smooth="yes"/>
      <point x="367" y="263.106"/>
      <point x="385.953" y="180.524"/>
      <point x="398.881" y="148.226" type="curve"/>
      <point x="376.272" y="136.223"/>
      <point x="337.739" y="116"/>
      <point x="277" y="116" type="curve" smooth="yes"/>
      <point x="216.261" y="116"/>
      <point x="177.728" y="136.223"/>
      <point x="155.119" y="148.226" type="curve"/>
      <point x="168.047" y="180.524"/>
      <point x="187" y="263.106"/>
      <point x="187" y="375" type="curve" smooth="yes"/>
      <point x="187" y="383.584"/>
      <point x="179.106" y="395"/>
      <point x="167" y="395" type="curve" smooth="yes"/>
      <point x="152" y="395" type="line" smooth="yes"/>
      <point x="144.534" y="395"/>
      <point x="135.815" y="389.865"/>
      <point x="133.061" y="381.427" type="curve" smooth="yes"/>
      <point x="66" y="176" type="line"/>
      <point x="57" y="180" type="line"/>
      <point x="70.2813" y="231.362"/>
      <point x="133.914" y="448.373"/>
      <point x="144.144" y="482.212" type="curve" smooth="yes"/>
      <point x="153.33" y="512.596"/>
      <point x="191.694" y="530"/>
    </contour>
    <contour>
      <point x="277" y="786" type="curve" smooth="yes"/>
      <point x="312" y="786"/>
      <point x="339" y="761.178"/>
      <point x="339" y="729" type="curve" smooth="yes"/>
      <point x="339" y="700.366"/>
      <point x="351.177" y="683.377"/>
      <point x="362" y="671" type="curve"/>
      <point x="356" y="632"/>
      <point x="277" y="632" type="curve" smooth="yes"/>
      <point x="198" y="632"/>
      <point x="192" y="671" type="line"/>
      <point x="202.823" y="683.377"/>
      <point x="215" y="700.366"/>
      <point x="215" y="729" type="curve" smooth="yes"/>
      <point x="215" y="761.178"/>
      <point x="242" y="786"/>
    </contour>
    <contour>
      <point x="277" y="826" type="curve" smooth="yes"/>
      <point x="220" y="826"/>
      <point x="175" y="781"/>
      <point x="175" y="729" type="curve" smooth="yes"/>
      <point x="175" y="705.193"/>
      <point x="155.949" y="685.766"/>
      <point x="149" y="682" type="curve" smooth="yes"/>
      <point x="138.249" y="676.175"/>
      <point x="140.379" y="661.714"/>
      <point x="146" y="655" type="curve" smooth="yes"/>
      <point x="150.798" y="649.27"/>
      <point x="178.522" y="592"/>
      <point x="277" y="592" type="curve" smooth="yes"/>
      <point x="375.478" y="592"/>
      <point x="403.202" y="649.27"/>
      <point x="408" y="655" type="curve" smooth="yes"/>
      <point x="413.621" y="661.714"/>
      <point x="415.751" y="676.175"/>
      <point x="405" y="682" type="curve" smooth="yes"/>
      <point x="398.051" y="685.766"/>
      <point x="379" y="705.193"/>
      <point x="379" y="729" type="curve" smooth="yes"/>
      <point x="379" y="781"/>
      <point x="334" y="826"/>
    </contour>
    <contour>
      <point x="228.936" y="64" type="line"/>
      <point x="214" y="-166" type="line" smooth="yes"/>
      <point x="213.935" y="-166.995"/>
      <point x="204" y="-166"/>
      <point x="197" y="-165" type="curve"/>
      <point x="198" y="70" type="line"/>
      <point x="159" y="81" type="line"/>
      <point x="157" y="-179" type="line" smooth="yes"/>
      <point x="156.946" y="-185.999"/>
      <point x="161.223" y="-191.656"/>
      <point x="166" y="-195" type="curve" smooth="yes"/>
      <point x="186" y="-209"/>
      <point x="226" y="-214"/>
      <point x="247" y="-193" type="curve" smooth="yes"/>
      <point x="251" y="-189"/>
      <point x="252.727" y="-184.985"/>
      <point x="253" y="-180" type="curve" smooth="yes"/>
      <point x="262.878" y="0" type="line"/>
      <point x="265" y="59" type="line"/>
    </contour>
    <contour>
      <point x="325.942" y="64" type="line"/>
      <point x="340.878" y="-166" type="line" smooth="yes"/>
      <point x="340.942" y="-166.995"/>
      <point x="350.878" y="-166"/>
      <point x="357.878" y="-165" type="curve"/>
      <point x="356.878" y="70" type="line"/>
      <point x="395.878" y="81" type="line"/>
      <point x="397.878" y="-179" type="line" smooth="yes"/>
      <point x="397.932" y="-185.999"/>
      <point x="393.655" y="-191.656"/>
      <point x="388.878" y="-195" type="curve" smooth="yes"/>
      <point x="368.878" y="-209"/>
      <point x="328.878" y="-214"/>
      <point x="307.878" y="-193" type="curve" smooth="yes"/>
      <point x="303.878" y="-189"/>
      <point x="302.151" y="-184.985"/>
      <point x="301.878" y="-180" type="curve" smooth="yes"/>
      <point x="292" y="0" type="line"/>
      <point x="289.878" y="59" type="line"/>
    </contour>
  </outline>
</glyph>
<glyph name="Q.001" format="2">
	<advance width="762"/>
	<anchor x="364" y="750" name="top"/>
	<anchor x="364" y="0" name="bottom"/>
	<outline>
		<contour>
			<point x="365" y="-16" type="curve" smooth="yes"/>
			<point x="523" y="-16"/>
			<point x="685" y="77"/>
			<point x="685" y="375" type="curve" smooth="yes"/>
			<point x="685" y="673"/>
			<point x="523" y="766"/>
			<point x="365" y="766" type="curve" smooth="yes"/>
			<point x="207" y="766"/>
			<point x="40" y="673"/>
			<point x="40" y="375" type="curve" smooth="yes"/>
			<point x="40" y="77"/>
			<point x="207" y="-16"/>
		</contour>
		<contour>
			<point x="365" y="64" type="curve" smooth="yes"/>
			<point x="262" y="64"/>
			<point x="145" y="136"/>
			<point x="145" y="375" type="curve" smooth="yes"/>
			<point x="145" y="614"/>
			<point x="262" y="686"/>
			<point x="365" y="686" type="curve" smooth="yes"/>
			<point x="468" y="686"/>
			<point x="580" y="614"/>
			<point x="580" y="375" type="curve" smooth="yes"/>
			<point x="580" y="136"/>
			<point x="468" y="64"/>
		</contour>
		<contour>
			<point x="403" y="0" type="curve"/>
			<point x="356" y="46" type="line"/>
			<point x="356" y="46"/>
			<point x="331" y="21"/>
			<point x="331" y="-30" type="curve" smooth="yes"/>
			<point x="331" y="-125"/>
			<point x="414" y="-215"/>
			<point x="552" y="-215" type="curve" smooth="yes"/>
			<point x="692" y="-215"/>
			<point x="729" y="-168"/>
			<point x="729" y="-168" type="curve"/>
			<point x="738" y="-140"/>
			<point x="728" y="-93"/>
			<point x="705" y="-83" type="curve"/>
			<point x="705" y="-83"/>
			<point x="645" y="-133"/>
			<point x="548" y="-133" type="curve" smooth="yes"/>
			<point x="400" y="-133"/>
			<point x="403" y="0"/>
		</contour>
	</outline>
</glyph>
<glyph name="g.alt" format="2">
	<advance width="582"/>
	<anchor x="291" y="550" name="top"/>
	<anchor x="291" y="-200" name="bottom"/>
	<outline>
		<contour>
			<point x="292" y="-214" type="curve" smooth="yes"/>
			<point x="382" y="-214"/>
			<point x="446" y="-202"/>
			<point x="485" y="-179" type="curve" smooth="yes"/>
			<point x="523" y="-156"/>
			<point x="542" y="-118"/>
			<point x="542" y="-65" type="curve" smooth="yes"/>
			<point x="542" y="-18"/>
			<point x="530" y="16"/>
			<point x="505" y="35" type="curve" smooth="yes"/>
			<point x="480" y="54"/>
			<point x="436" y="64"/>
			<point x="373" y="64" type="curve" smooth="yes"/>
			<point x="292" y="64" type="line" smooth="yes"/>
			<point x="263" y="64"/>
			<point x="239" y="65"/>
			<point x="220" y="68" type="curve" smooth="yes"/>
			<point x="201" y="70"/>
			<point x="186" y="73"/>
			<point x="175" y="76" type="curve" smooth="yes"/>
			<point x="164" y="79"/>
			<point x="157" y="85"/>
			<point x="152" y="92" type="curve" smooth="yes"/>
			<point x="147" y="99"/>
			<point x="143" y="106"/>
			<point x="142" y="113" type="curve" smooth="yes"/>
			<point x="141" y="120"/>
			<point x="140" y="129"/>
			<point x="140" y="140" type="curve" smooth="yes"/>
			<point x="140" y="154"/>
			<point x="146" y="167"/>
			<point x="157" y="178" type="curve" smooth="yes"/>
			<point x="168" y="189"/>
			<point x="181" y="196"/>
			<point x="194" y="200" type="curve"/>
			<point x="149" y="249" type="line"/>
			<point x="127" y="238"/>
			<point x="107" y="221"/>
			<point x="89" y="198" type="curve" smooth="yes"/>
			<point x="71" y="174"/>
			<point x="62" y="147"/>
			<point x="62" y="117" type="curve" smooth="yes"/>
			<point x="62" y="71"/>
			<point x="79" y="38"/>
			<point x="112" y="17" type="curve" smooth="yes"/>
			<point x="145" y="-4"/>
			<point x="187" y="-14"/>
			<point x="240" y="-14" type="curve" smooth="yes"/>
			<point x="379" y="-14" type="line" smooth="yes"/>
			<point x="407" y="-14"/>
			<point x="426" y="-19"/>
			<point x="437" y="-28" type="curve" smooth="yes"/>
			<point x="447" y="-37"/>
			<point x="452" y="-52"/>
			<point x="452" y="-73" type="curve" smooth="yes"/>
			<point x="452" y="-101"/>
			<point x="443" y="-119"/>
			<point x="426" y="-126" type="curve" smooth="yes"/>
			<point x="408" y="-133"/>
			<point x="363" y="-136"/>
			<point x="292" y="-136" type="curve" smooth="yes"/>
			<point x="259" y="-136"/>
			<point x="233" y="-135"/>
			<point x="214" y="-134" type="curve" smooth="yes"/>
			<point x="195" y="-133"/>
			<point x="178" y="-130"/>
			<point x="164" y="-127" type="curve" smooth="yes"/>
			<point x="149" y="-124"/>
			<point x="139" y="-118"/>
			<point x="133" y="-111" type="curve" smooth="yes"/>
			<point x="127" y="-103"/>
			<point x="123" y="-94"/>
			<point x="120" y="-85" type="curve" smooth="yes"/>
			<point x="117" y="-75"/>
			<point x="116" y="-61"/>
			<point x="116" y="-44" type="curve" smooth="yes"/>
			<point x="116" y="-27"/>
			<point x="120" y="-10"/>
			<point x="128" y="7" type="curve" smooth="yes"/>
			<point x="136" y="24"/>
			<point x="145" y="38"/>
			<point x="155" y="49" type="curve"/>
			<point x="123" y="74" type="line"/>
			<point x="102" y="64"/>
			<point x="83" y="47"/>
			<point x="66" y="24" type="curve" smooth="yes"/>
			<point x="49" y="1"/>
			<point x="40" y="-26"/>
			<point x="40" y="-57" type="curve" smooth="yes"/>
			<point x="40" y="-113"/>
			<point x="61" y="-153"/>
			<point x="102" y="-178" type="curve" smooth="yes"/>
			<point x="143" y="-202"/>
			<point x="207" y="-214"/>
		</contour>
		<contour>
			<point x="282" y="152" type="curve" smooth="yes"/>
			<point x="340" y="152"/>
			<point x="389" y="171"/>
			<point x="429" y="210" type="curve" smooth="yes"/>
			<point x="469" y="249"/>
			<point x="489" y="298"/>
			<point x="489" y="359" type="curve" smooth="yes"/>
			<point x="489" y="420"/>
			<point x="469" y="469"/>
			<point x="429" y="508" type="curve" smooth="yes"/>
			<point x="389" y="547"/>
			<point x="340" y="566"/>
			<point x="282" y="566" type="curve" smooth="yes"/>
			<point x="223" y="566"/>
			<point x="174" y="547"/>
			<point x="134" y="508" type="curve" smooth="yes"/>
			<point x="94" y="469"/>
			<point x="74" y="420"/>
			<point x="74" y="359" type="curve" smooth="yes"/>
			<point x="74" y="298"/>
			<point x="94" y="249"/>
			<point x="134" y="210" type="curve" smooth="yes"/>
			<point x="174" y="171"/>
			<point x="223" y="152"/>
		</contour>
		<contour>
			<point x="282" y="233" type="curve" smooth="yes"/>
			<point x="243" y="233"/>
			<point x="215" y="243"/>
			<point x="199" y="263" type="curve" smooth="yes"/>
			<point x="182" y="282"/>
			<point x="174" y="314"/>
			<point x="174" y="359" type="curve" smooth="yes"/>
			<point x="174" y="404"/>
			<point x="182" y="436"/>
			<point x="199" y="456" type="curve" smooth="yes"/>
			<point x="215" y="475"/>
			<point x="243" y="485"/>
			<point x="282" y="485" type="curve" smooth="yes"/>
			<point x="321" y="485"/>
			<point x="348" y="475"/>
			<point x="365" y="456" type="curve" smooth="yes"/>
			<point x="381" y="436"/>
			<point x="389" y="404"/>
			<point x="389" y="359" type="curve" smooth="yes"/>
			<point x="389" y="314"/>
			<point x="381" y="282"/>
			<point x="365" y="263" type="curve" smooth="yes"/>
			<point x="348" y="243"/>
			<point x="321" y="233"/>
		</contour>
		<contour>
			<point x="352" y="480" type="line"/>
			<point x="429" y="480"/>
			<point x="478" y="483"/>
			<point x="499" y="490" type="curve" smooth="yes"/>
			<point x="520" y="497"/>
			<point x="530" y="514"/>
			<point x="530" y="541" type="curve" smooth="yes"/>
			<point x="530" y="566"/>
			<point x="524" y="580"/>
			<point x="511" y="585" type="curve"/>
			<point x="494" y="573"/>
			<point x="472" y="562"/>
			<point x="443" y="553" type="curve" smooth="yes"/>
			<point x="414" y="543"/>
			<point x="383" y="538"/>
			<point x="352" y="538" type="curve"/>
		</contour>
	</outline>
</glyph>
<<<<<<< HEAD:CooperativaSans.ufo/glyphs/p.001.glif
<glyph name="p.001" format="1">
  <advance width="570"/>
  <outline>
    <contour>
      <point x="60" y="-240" type="line"/>
      <point x="73" y="-231"/>
      <point x="80" y="-216"/>
      <point x="83" y="-196" type="curve" smooth="yes"/>
      <point x="86" y="-175"/>
      <point x="87" y="-137"/>
      <point x="87" y="-80" type="curve" smooth="yes"/>
      <point x="86" y="70" type="line"/>
      <point x="93" y="49"/>
      <point x="111" y="30"/>
      <point x="140" y="13" type="curve" smooth="yes"/>
      <point x="168" y="-5"/>
      <point x="204" y="-13"/>
      <point x="248" y="-13" type="curve" smooth="yes"/>
      <point x="315" y="-13"/>
      <point x="367" y="14"/>
      <point x="402" y="69" type="curve" smooth="yes"/>
      <point x="437" y="124"/>
      <point x="454" y="195"/>
      <point x="454" y="284" type="curve" smooth="yes"/>
      <point x="454" y="377"/>
      <point x="433" y="447"/>
      <point x="392" y="494" type="curve" smooth="yes"/>
      <point x="351" y="541"/>
      <point x="299" y="565"/>
      <point x="236" y="565" type="curve" smooth="yes"/>
      <point x="201" y="566"/>
      <point x="168" y="558"/>
      <point x="138" y="542" type="curve" smooth="yes"/>
      <point x="107" y="526"/>
      <point x="84" y="508"/>
      <point x="69" y="489" type="curve"/>
      <point x="57" y="551" type="line"/>
      <point x="-13" y="551" type="line"/>
      <point x="-4" y="506"/>
      <point x="0" y="304"/>
      <point x="0" y="-56" type="curve" smooth="yes"/>
      <point x="0" y="-110" type="line" smooth="yes"/>
      <point x="0" y="-118"/>
      <point x="0" y="-124"/>
      <point x="-1" y="-127" type="curve"/>
      <point x="-2" y="-142" type="line" smooth="yes"/>
      <point x="-3" y="-149"/>
      <point x="-3" y="-154"/>
      <point x="-4" y="-157" type="curve" smooth="yes"/>
      <point x="-7" y="-170" type="line" smooth="yes"/>
      <point x="-8" y="-175"/>
      <point x="-10" y="-179"/>
      <point x="-12" y="-183" type="curve" smooth="yes"/>
      <point x="-17" y="-195" type="line"/>
    </contour>
    <contour>
      <point x="224" y="69" type="curve" smooth="yes"/>
      <point x="189" y="69"/>
      <point x="157" y="86"/>
      <point x="129" y="121" type="curve" smooth="yes"/>
      <point x="100" y="156"/>
      <point x="86" y="209"/>
      <point x="86" y="280" type="curve" smooth="yes"/>
      <point x="86" y="341"/>
      <point x="99" y="390"/>
      <point x="125" y="427" type="curve" smooth="yes"/>
      <point x="150" y="464"/>
      <point x="182" y="483"/>
      <point x="221" y="483" type="curve" smooth="yes"/>
      <point x="263" y="483"/>
      <point x="296" y="466"/>
      <point x="320" y="432" type="curve" smooth="yes"/>
      <point x="344" y="398"/>
      <point x="356" y="348"/>
      <point x="356" y="282" type="curve" smooth="yes"/>
      <point x="356" y="140"/>
      <point x="312" y="69"/>
    </contour>
  </outline>
=======
<glyph name="p.001" format="2">
	<advance width="551"/>
	<anchor x="276" y="550" name="top"/>
	<anchor x="276" y="0" name="bottom"/>
	<outline>
		<contour>
			<point x="117" y="-240" type="line"/>
			<point x="130" y="-231"/>
			<point x="137" y="-216"/>
			<point x="140" y="-196" type="curve" smooth="yes"/>
			<point x="143" y="-175"/>
			<point x="144" y="-137"/>
			<point x="144" y="-80" type="curve" smooth="yes"/>
			<point x="143" y="70" type="line"/>
			<point x="150" y="49"/>
			<point x="168" y="30"/>
			<point x="197" y="13" type="curve" smooth="yes"/>
			<point x="225" y="-5"/>
			<point x="261" y="-13"/>
			<point x="305" y="-13" type="curve" smooth="yes"/>
			<point x="372" y="-13"/>
			<point x="424" y="14"/>
			<point x="459" y="69" type="curve" smooth="yes"/>
			<point x="494" y="124"/>
			<point x="511" y="195"/>
			<point x="511" y="284" type="curve" smooth="yes"/>
			<point x="511" y="377"/>
			<point x="490" y="447"/>
			<point x="449" y="494" type="curve" smooth="yes"/>
			<point x="408" y="541"/>
			<point x="356" y="565"/>
			<point x="293" y="565" type="curve" smooth="yes"/>
			<point x="258" y="566"/>
			<point x="225" y="558"/>
			<point x="195" y="542" type="curve" smooth="yes"/>
			<point x="164" y="526"/>
			<point x="141" y="508"/>
			<point x="126" y="489" type="curve"/>
			<point x="114" y="551" type="line"/>
			<point x="44" y="551" type="line"/>
			<point x="53" y="506"/>
			<point x="57" y="304"/>
			<point x="57" y="-56" type="curve" smooth="yes"/>
			<point x="57" y="-110" type="line" smooth="yes"/>
			<point x="57" y="-118"/>
			<point x="57" y="-124"/>
			<point x="56" y="-127" type="curve"/>
			<point x="55" y="-142" type="line" smooth="yes"/>
			<point x="54" y="-149"/>
			<point x="54" y="-154"/>
			<point x="53" y="-157" type="curve" smooth="yes"/>
			<point x="50" y="-170" type="line" smooth="yes"/>
			<point x="49" y="-175"/>
			<point x="47" y="-179"/>
			<point x="45" y="-183" type="curve" smooth="yes"/>
			<point x="40" y="-195" type="line"/>
		</contour>
		<contour>
			<point x="281" y="69" type="curve" smooth="yes"/>
			<point x="246" y="69"/>
			<point x="214" y="86"/>
			<point x="186" y="121" type="curve" smooth="yes"/>
			<point x="157" y="156"/>
			<point x="143" y="209"/>
			<point x="143" y="280" type="curve" smooth="yes"/>
			<point x="143" y="341"/>
			<point x="156" y="390"/>
			<point x="182" y="427" type="curve" smooth="yes"/>
			<point x="207" y="464"/>
			<point x="239" y="483"/>
			<point x="278" y="483" type="curve" smooth="yes"/>
			<point x="320" y="483"/>
			<point x="353" y="466"/>
			<point x="377" y="432" type="curve" smooth="yes"/>
			<point x="401" y="398"/>
			<point x="413" y="348"/>
			<point x="413" y="282" type="curve" smooth="yes"/>
			<point x="413" y="140"/>
			<point x="369" y="69"/>
		</contour>
	</outline>
>>>>>>> 64a96ebffaf5013ba58d98fd80efa4318a310ffa:Cooperativa-Sans-Regular.ufo/glyphs/p.001.glif
</glyph>
